  0
SECTION
  2
BLOCKS
  0
ENDSEC
  0
SECTION
  2
ENTITIES
  0
LINE
  8
0
 10
129.688
 20
-0.0901794
 11
130.345
 21
0.0232391
  0
LINE
  8
0
 10
130.345
 20
0.0232391
 11
130.954
 21
0.212311
  0
LINE
  8
0
 10
130.954
 20
0.212311
 11
131.515
 21
0.47699
  0
LINE
  8
0
 10
131.515
 20
0.47699
 11
132.02
 21
0.81218
  0
LINE
  8
0
 10
132.02
 20
0.81218
 11
132.463
 21
1.21274
  0
LINE
  8
0
 10
132.463
 20
1.21274
 11
132.843
 21
1.67868
  0
LINE
  8
0
 10
132.843
 20
1.67868
 11
133.161
 21
2.20999
  0
LINE
  8
0
 10
133.161
 20
2.20999
 11
133.412
 21
2.79781
  0
LINE
  8
0
 10
133.412
 20
2.79781
 11
133.591
 21
3.43224
  0
LINE
  8
0
 10
133.591
 20
3.43224
 11
133.699
 21
4.11331
  0
LINE
  8
0
 10
133.699
 20
4.11331
 11
133.735
 21
4.84099
  0
LINE
  8
0
 10
133.735
 20
4.84099
 11
133.7
 21
5.57043
  0
LINE
  8
0
 10
133.7
 20
5.57043
 11
133.593
 21
6.24974
  0
LINE
  8
0
 10
133.593
 20
6.24974
 11
133.416
 21
6.87894
  0
LINE
  8
0
 10
133.416
 20
6.87894
 11
133.168
 21
7.45799
  0
LINE
  8
0
 10
133.168
 20
7.45799
 11
132.853
 21
7.97905
  0
LINE
  8
0
 10
132.853
 20
7.97905
 11
132.474
 21
8.43425
  0
LINE
  8
0
 10
132.474
 20
8.43425
 11
132.033
 21
8.82355
  0
LINE
  8
0
 10
132.033
 20
8.82355
 11
131.528
 21
9.14699
  0
LINE
  8
0
 10
131.528
 20
9.14699
 11
130.968
 21
9.40118
  0
LINE
  8
0
 10
130.968
 20
9.40118
 11
130.359
 21
9.58275
  0
LINE
  8
0
 10
130.359
 20
9.58275
 11
129.702
 21
9.69168
  0
LINE
  8
0
 10
129.702
 20
9.69168
 11
128.996
 21
9.728
  0
LINE
  8
0
 10
128.996
 20
9.728
 11
127.937
 21
9.64705
  0
LINE
  8
0
 10
127.937
 20
9.64705
 11
127.001
 21
9.40424
  0
LINE
  8
0
 10
127.001
 20
9.40424
 11
126.189
 21
8.99956
  0
LINE
  8
0
 10
126.189
 20
8.99956
 11
125.499
 21
8.433
  0
LINE
  8
0
 10
125.499
 20
8.433
 11
124.949
 21
7.72287
  0
LINE
  8
0
 10
124.949
 20
7.72287
 11
124.557
 21
6.8875
  0
LINE
  8
0
 10
124.557
 20
6.8875
 11
124.321
 21
5.92686
  0
LINE
  8
0
 10
124.321
 20
5.92686
 11
124.243
 21
4.84099
  0
LINE
  8
0
 10
124.243
 20
4.84099
 11
124.278
 21
4.11006
  0
LINE
  8
0
 10
124.278
 20
4.11006
 11
124.384
 21
3.42624
  0
LINE
  8
0
 10
124.384
 20
3.42624
 11
124.56
 21
2.78955
  0
LINE
  8
0
 10
124.56
 20
2.78955
 11
124.806
 21
2.2
  0
LINE
  8
0
 10
124.806
 20
2.2
 11
125.12
 21
1.66737
  0
LINE
  8
0
 10
125.12
 20
1.66737
 11
125.496
 21
1.20149
  0
LINE
  8
0
 10
125.496
 20
1.20149
 11
125.936
 21
0.802368
  0
LINE
  8
0
 10
125.936
 20
0.802368
 11
126.439
 21
0.469986
  0
LINE
  8
0
 10
126.439
 20
0.469986
 11
126.999
 21
0.208374
  0
LINE
  8
0
 10
126.999
 20
0.208374
 11
127.61
 21
0.0214996
  0
LINE
  8
0
 10
127.61
 20
0.0214996
 11
128.271
 21
-0.0906219
  0
LINE
  8
0
 10
128.271
 20
-0.0906219
 11
128.982
 21
-0.127991
  0
LINE
  8
0
 10
128.982
 20
-0.127991
 11
129.688
 21
-0.0901794
  0
LINE
  8
0
 10
128.221
 20
0.989059
 11
127.548
 21
1.18724
  0
LINE
  8
0
 10
127.548
 20
1.18724
 11
126.962
 21
1.51755
  0
LINE
  8
0
 10
126.962
 20
1.51755
 11
126.465
 21
1.98
  0
LINE
  8
0
 10
126.465
 20
1.98
 11
126.068
 21
2.55556
  0
LINE
  8
0
 10
126.068
 20
2.55556
 11
125.785
 21
3.22424
  0
LINE
  8
0
 10
125.785
 20
3.22424
 11
125.615
 21
3.98605
  0
LINE
  8
0
 10
125.615
 20
3.98605
 11
125.558
 21
4.84099
  0
LINE
  8
0
 10
125.558
 20
4.84099
 11
125.614
 21
5.69836
  0
LINE
  8
0
 10
125.614
 20
5.69836
 11
125.782
 21
6.4545
  0
LINE
  8
0
 10
125.782
 20
6.4545
 11
126.063
 21
7.10936
  0
LINE
  8
0
 10
126.063
 20
7.10936
 11
126.455
 21
7.66299
  0
LINE
  8
0
 10
126.455
 20
7.66299
 11
126.95
 21
8.10356
  0
LINE
  8
0
 10
126.95
 20
8.10356
 11
127.539
 21
8.41824
  0
LINE
  8
0
 10
127.539
 20
8.41824
 11
128.221
 21
8.60706
  0
LINE
  8
0
 10
128.221
 20
8.60706
 11
128.996
 21
8.67
  0
LINE
  8
0
 10
128.996
 20
8.67
 11
129.765
 21
8.60625
  0
LINE
  8
0
 10
129.765
 20
8.60625
 11
130.442
 21
8.41499
  0
LINE
  8
0
 10
130.442
 20
8.41499
 11
131.026
 21
8.09624
  0
LINE
  8
0
 10
131.026
 20
8.09624
 11
131.519
 21
7.64999
  0
LINE
  8
0
 10
131.519
 20
7.64999
 11
131.91
 21
7.09193
  0
LINE
  8
0
 10
131.91
 20
7.09193
 11
132.189
 21
6.43774
  0
LINE
  8
0
 10
132.189
 20
6.43774
 11
132.357
 21
5.68742
  0
LINE
  8
0
 10
132.357
 20
5.68742
 11
132.413
 21
4.84099
  0
LINE
  8
0
 10
132.413
 20
4.84099
 11
132.358
 21
3.95844
  0
LINE
  8
0
 10
132.358
 20
3.95844
 11
132.191
 21
3.18175
  0
LINE
  8
0
 10
132.191
 20
3.18175
 11
131.914
 21
2.51093
  0
LINE
  8
0
 10
131.914
 20
2.51093
 11
131.526
 21
1.946
  0
LINE
  8
0
 10
131.526
 20
1.946
 11
131.035
 21
1.49843
  0
LINE
  8
0
 10
131.035
 20
1.49843
 11
130.447
 21
1.17874
  0
LINE
  8
0
 10
130.447
 20
1.17874
 11
129.763
 21
0.986923
  0
LINE
  8
0
 10
129.763
 20
0.986923
 11
128.982
 21
0.922989
  0
LINE
  8
0
 10
128.982
 20
0.922989
 11
128.221
 21
0.989059
  0
LINE
  8
0
 10
151.219
 20
-2.61469
 11
151.518
 21
-2.58675
  0
LINE
  8
0
 10
151.518
 20
-2.58675
 11
151.823
 21
-2.54018
  0
LINE
  8
0
 10
151.823
 20
-2.54018
 11
152.136
 21
-2.47499
  0
LINE
  8
0
 10
152.136
 20
-2.47499
 11
152.136
 21
-1.56499
  0
LINE
  8
0
 10
152.136
 20
-1.56499
 11
151.934
 21
-1.60393
  0
LINE
  8
0
 10
151.934
 20
-1.60393
 11
151.737
 21
-1.63174
  0
LINE
  8
0
 10
151.737
 20
-1.63174
 11
151.544
 21
-1.64844
  0
LINE
  8
0
 10
151.544
 20
-1.64844
 11
151.355
 21
-1.65399
  0
LINE
  8
0
 10
151.355
 20
-1.65399
 11
151.024
 21
-1.63055
  0
LINE
  8
0
 10
151.024
 20
-1.63055
 11
150.723
 21
-1.56024
  0
LINE
  8
0
 10
150.723
 20
-1.56024
 11
150.452
 21
-1.44305
  0
LINE
  8
0
 10
150.452
 20
-1.44305
 11
150.211
 21
-1.27899
  0
LINE
  8
0
 10
150.211
 20
-1.27899
 11
149.996
 21
-1.06218
  0
LINE
  8
0
 10
149.996
 20
-1.06218
 11
149.802
 21
-0.786743
  0
LINE
  8
0
 10
149.802
 20
-0.786743
 11
149.631
 21
-0.452682
  0
LINE
  8
0
 10
149.631
 20
-0.452682
 11
149.481
 21
-0.0599976
  0
LINE
  8
0
 10
149.481
 20
-0.0599976
 11
150.337
 21
0.126312
  0
LINE
  8
0
 10
150.337
 20
0.126312
 11
151.095
 21
0.446243
  0
LINE
  8
0
 10
151.095
 20
0.446243
 11
151.753
 21
0.899811
  0
LINE
  8
0
 10
151.753
 20
0.899811
 11
152.312
 21
1.487
  0
LINE
  8
0
 10
152.312
 20
1.487
 11
152.757
 21
2.18661
  0
LINE
  8
0
 10
152.757
 20
2.18661
 11
153.076
 21
2.97649
  0
LINE
  8
0
 10
153.076
 20
2.97649
 11
153.267
 21
3.85661
  0
LINE
  8
0
 10
153.267
 20
3.85661
 11
153.331
 21
4.827
  0
LINE
  8
0
 10
153.331
 20
4.827
 11
153.295
 21
5.55836
  0
LINE
  8
0
 10
153.295
 20
5.55836
 11
153.189
 21
6.23949
  0
LINE
  8
0
 10
153.189
 20
6.23949
 11
153.012
 21
6.87036
  0
LINE
  8
0
 10
153.012
 20
6.87036
 11
152.764
 21
7.45099
  0
LINE
  8
0
 10
152.764
 20
7.45099
 11
152.449
 21
7.9735
  0
LINE
  8
0
 10
152.449
 20
7.9735
 11
152.07
 21
8.42999
  0
LINE
  8
0
 10
152.07
 20
8.42999
 11
151.629
 21
8.8205
  0
LINE
  8
0
 10
151.629
 20
8.8205
 11
151.124
 21
9.14499
  0
LINE
  8
0
 10
151.124
 20
9.14499
 11
150.563
 21
9.40005
  0
LINE
  8
0
 10
150.563
 20
9.40005
 11
149.955
 21
9.58224
  0
LINE
  8
0
 10
149.955
 20
9.58224
 11
149.297
 21
9.69156
  0
LINE
  8
0
 10
149.297
 20
9.69156
 11
148.592
 21
9.728
  0
LINE
  8
0
 10
148.592
 20
9.728
 11
147.533
 21
9.6468
  0
LINE
  8
0
 10
147.533
 20
9.6468
 11
146.597
 21
9.40324
  0
LINE
  8
0
 10
146.597
 20
9.40324
 11
145.784
 21
8.9973
  0
LINE
  8
0
 10
145.784
 20
8.9973
 11
145.095
 21
8.42899
  0
LINE
  8
0
 10
145.095
 20
8.42899
 11
144.545
 21
7.71712
  0
LINE
  8
0
 10
144.545
 20
7.71712
 11
144.153
 21
6.87949
  0
LINE
  8
0
 10
144.153
 20
6.87949
 11
143.917
 21
5.91612
  0
LINE
  8
0
 10
143.917
 20
5.91612
 11
143.839
 21
4.827
  0
LINE
  8
0
 10
143.839
 20
4.827
 11
143.871
 21
4.12292
  0
LINE
  8
0
 10
143.871
 20
4.12292
 11
143.967
 21
3.46274
  0
LINE
  8
0
 10
143.967
 20
3.46274
 11
144.127
 21
2.84644
  0
LINE
  8
0
 10
144.127
 20
2.84644
 11
144.351
 21
2.27399
  0
LINE
  8
0
 10
144.351
 20
2.27399
 11
144.636
 21
1.75418
  0
LINE
  8
0
 10
144.636
 20
1.75418
 11
144.979
 21
1.29474
  0
LINE
  8
0
 10
144.979
 20
1.29474
 11
145.379
 21
0.895676
  0
LINE
  8
0
 10
145.379
 20
0.895676
 11
145.838
 21
0.556992
  0
LINE
  8
0
 10
145.838
 20
0.556992
 11
146.348
 21
0.282806
  0
LINE
  8
0
 10
146.348
 20
0.282806
 11
146.905
 21
0.07724
  0
LINE
  8
0
 10
146.905
 20
0.07724
 11
147.508
 21
-0.0596771
  0
LINE
  8
0
 10
147.508
 20
-0.0596771
 11
148.157
 21
-0.127991
  0
LINE
  8
0
 10
148.157
 20
-0.127991
 11
148.382
 21
-0.752808
  0
LINE
  8
0
 10
148.382
 20
-0.752808
 11
148.638
 21
-1.28125
  0
LINE
  8
0
 10
148.638
 20
-1.28125
 11
148.924
 21
-1.7133
  0
LINE
  8
0
 10
148.924
 20
-1.7133
 11
149.24
 21
-2.049
  0
LINE
  8
0
 10
149.24
 20
-2.049
 11
149.593
 21
-2.30055
  0
LINE
  8
0
 10
149.593
 20
-2.30055
 11
149.992
 21
-2.48024
  0
LINE
  8
0
 10
149.992
 20
-2.48024
 11
150.437
 21
-2.58806
  0
LINE
  8
0
 10
150.437
 20
-2.58806
 11
150.927
 21
-2.62399
  0
LINE
  8
0
 10
150.927
 20
-2.62399
 11
151.219
 21
-2.61469
  0
LINE
  8
0
 10
147.817
 20
0.962311
 11
147.143
 21
1.16124
  0
LINE
  8
0
 10
147.143
 20
1.16124
 11
146.558
 21
1.4928
  0
LINE
  8
0
 10
146.558
 20
1.4928
 11
146.061
 21
1.95699
  0
LINE
  8
0
 10
146.061
 20
1.95699
 11
145.664
 21
2.53462
  0
LINE
  8
0
 10
145.664
 20
2.53462
 11
145.38
 21
3.20549
  0
LINE
  8
0
 10
145.38
 20
3.20549
 11
145.21
 21
3.96962
  0
LINE
  8
0
 10
145.21
 20
3.96962
 11
145.154
 21
4.827
  0
LINE
  8
0
 10
145.154
 20
4.827
 11
145.21
 21
5.68768
  0
LINE
  8
0
 10
145.21
 20
5.68768
 11
145.378
 21
6.44675
  0
LINE
  8
0
 10
145.378
 20
6.44675
 11
145.658
 21
7.10419
  0
LINE
  8
0
 10
145.658
 20
7.10419
 11
146.051
 21
7.65999
  0
LINE
  8
0
 10
146.051
 20
7.65999
 11
146.546
 21
8.10187
  0
LINE
  8
0
 10
146.546
 20
8.10187
 11
147.134
 21
8.4175
  0
LINE
  8
0
 10
147.134
 20
8.4175
 11
147.816
 21
8.60687
  0
LINE
  8
0
 10
147.816
 20
8.60687
 11
148.592
 21
8.67
  0
LINE
  8
0
 10
148.592
 20
8.67
 11
149.361
 21
8.60599
  0
LINE
  8
0
 10
149.361
 20
8.60599
 11
150.037
 21
8.41399
  0
LINE
  8
0
 10
150.037
 20
8.41399
 11
150.622
 21
8.09399
  0
LINE
  8
0
 10
150.622
 20
8.09399
 11
151.115
 21
7.646
  0
LINE
  8
0
 10
151.115
 20
7.646
 11
151.506
 21
7.0858
  0
LINE
  8
0
 10
151.506
 20
7.0858
 11
151.785
 21
6.42924
  0
LINE
  8
0
 10
151.785
 20
6.42924
 11
151.953
 21
5.6763
  0
LINE
  8
0
 10
151.953
 20
5.6763
 11
152.009
 21
4.827
  0
LINE
  8
0
 10
152.009
 20
4.827
 11
151.953
 21
3.94162
  0
LINE
  8
0
 10
151.953
 20
3.94162
 11
151.787
 21
3.16249
  0
LINE
  8
0
 10
151.787
 20
3.16249
 11
151.51
 21
2.48962
  0
LINE
  8
0
 10
151.51
 20
2.48962
 11
151.122
 21
1.92299
  0
LINE
  8
0
 10
151.122
 20
1.92299
 11
150.63
 21
1.47368
  0
LINE
  8
0
 10
150.63
 20
1.47368
 11
150.043
 21
1.15274
  0
LINE
  8
0
 10
150.043
 20
1.15274
 11
149.358
 21
0.960175
  0
LINE
  8
0
 10
149.358
 20
0.960175
 11
148.578
 21
0.895996
  0
LINE
  8
0
 10
148.578
 20
0.895996
 11
147.817
 21
0.962311
  0
LINE
  8
0
 10
24.1508
 20
-0.0874939
 11
24.793
 21
0.0339966
  0
LINE
  8
0
 10
24.793
 20
0.0339966
 11
25.3923
 21
0.236496
  0
LINE
  8
0
 10
25.3923
 20
0.236496
 11
25.9488
 21
0.519989
  0
LINE
  8
0
 10
25.9488
 20
0.519989
 11
26.4539
 21
0.881622
  0
LINE
  8
0
 10
26.4539
 20
0.881622
 11
26.899
 21
1.31749
  0
LINE
  8
0
 10
26.899
 20
1.31749
 11
27.2843
 21
1.82762
  0
LINE
  8
0
 10
27.2843
 20
1.82762
 11
27.6098
 21
2.41199
  0
LINE
  8
0
 10
27.6098
 20
2.41199
 11
26.5518
 21
2.94398
  0
LINE
  8
0
 10
26.5518
 20
2.94398
 11
25.9828
 21
2.06593
  0
LINE
  8
0
 10
25.9828
 20
2.06593
 11
25.289
 21
1.43874
  0
LINE
  8
0
 10
25.289
 20
1.43874
 11
24.4704
 21
1.06242
  0
LINE
  8
0
 10
24.4704
 20
1.06242
 11
23.5268
 21
0.936996
  0
LINE
  8
0
 10
23.5268
 20
0.936996
 11
22.7823
 21
1.00394
  0
LINE
  8
0
 10
22.7823
 20
1.00394
 11
22.119
 21
1.20474
  0
LINE
  8
0
 10
22.119
 20
1.20474
 11
21.5368
 21
1.53943
  0
LINE
  8
0
 10
21.5368
 20
1.53943
 11
21.0358
 21
2.008
  0
LINE
  8
0
 10
21.0358
 20
2.008
 11
20.6329
 21
2.58669
  0
LINE
  8
0
 10
20.6329
 20
2.58669
 11
20.345
 21
3.25174
  0
LINE
  8
0
 10
20.345
 20
3.25174
 11
20.1723
 21
4.00317
  0
LINE
  8
0
 10
20.1723
 20
4.00317
 11
20.1148
 21
4.84099
  0
LINE
  8
0
 10
20.1148
 20
4.84099
 11
20.17
 21
5.68456
  0
LINE
  8
0
 10
20.17
 20
5.68456
 11
20.3358
 21
6.43324
  0
LINE
  8
0
 10
20.3358
 20
6.43324
 11
20.612
 21
7.08705
  0
LINE
  8
0
 10
20.612
 20
7.08705
 11
20.9988
 21
7.646
  0
LINE
  8
0
 10
20.9988
 20
7.646
 11
21.485
 21
8.09399
  0
LINE
  8
0
 10
21.485
 20
8.09399
 11
22.0595
 21
8.41399
  0
LINE
  8
0
 10
22.0595
 20
8.41399
 11
22.7225
 21
8.60599
  0
LINE
  8
0
 10
22.7225
 20
8.60599
 11
23.4738
 21
8.67
  0
LINE
  8
0
 10
23.4738
 20
8.67
 11
23.963
 21
8.64281
  0
LINE
  8
0
 10
23.963
 20
8.64281
 11
24.4178
 21
8.56125
  0
LINE
  8
0
 10
24.4178
 20
8.56125
 11
24.838
 21
8.42531
  0
LINE
  8
0
 10
24.838
 20
8.42531
 11
25.2238
 21
8.23499
  0
LINE
  8
0
 10
25.2238
 20
8.23499
 11
25.5675
 21
7.99318
  0
LINE
  8
0
 10
25.5675
 20
7.99318
 11
25.8605
 21
7.70274
  0
LINE
  8
0
 10
25.8605
 20
7.70274
 11
26.103
 21
7.36368
  0
LINE
  8
0
 10
26.103
 20
7.36368
 11
26.2948
 21
6.976
  0
LINE
  8
0
 10
26.2948
 20
6.976
 11
27.5218
 21
7.37999
  0
LINE
  8
0
 10
27.5218
 20
7.37999
 11
27.2468
 21
7.92624
  0
LINE
  8
0
 10
27.2468
 20
7.92624
 11
26.9038
 21
8.40099
  0
LINE
  8
0
 10
26.9038
 20
8.40099
 11
26.4928
 21
8.80424
  0
LINE
  8
0
 10
26.4928
 20
8.80424
 11
26.0138
 21
9.13599
  0
LINE
  8
0
 10
26.0138
 20
9.13599
 11
25.4693
 21
9.39499
  0
LINE
  8
0
 10
25.4693
 20
9.39499
 11
24.862
 21
9.57999
  0
LINE
  8
0
 10
24.862
 20
9.57999
 11
24.1918
 21
9.69099
  0
LINE
  8
0
 10
24.1918
 20
9.69099
 11
23.4588
 21
9.728
  0
LINE
  8
0
 10
23.4588
 20
9.728
 11
22.4247
 21
9.6468
  0
LINE
  8
0
 10
22.4247
 20
9.6468
 11
21.5093
 21
9.40324
  0
LINE
  8
0
 10
21.5093
 20
9.40324
 11
20.7127
 21
8.9973
  0
LINE
  8
0
 10
20.7127
 20
8.9973
 11
20.0348
 21
8.42899
  0
LINE
  8
0
 10
20.0348
 20
8.42899
 11
19.494
 21
7.71799
  0
LINE
  8
0
 10
19.494
 20
7.71799
 11
19.1078
 21
6.883
  0
LINE
  8
0
 10
19.1078
 20
6.883
 11
18.876
 21
5.924
  0
LINE
  8
0
 10
18.876
 20
5.924
 11
18.7988
 21
4.84099
  0
LINE
  8
0
 10
18.7988
 20
4.84099
 11
18.8334
 21
4.10175
  0
LINE
  8
0
 10
18.8334
 20
4.10175
 11
18.937
 21
3.41399
  0
LINE
  8
0
 10
18.937
 20
3.41399
 11
19.1098
 21
2.77774
  0
LINE
  8
0
 10
19.1098
 20
2.77774
 11
19.3518
 21
2.19299
  0
LINE
  8
0
 10
19.3518
 20
2.19299
 11
19.6602
 21
1.66624
  0
LINE
  8
0
 10
19.6602
 20
1.66624
 11
20.0313
 21
1.20399
  0
LINE
  8
0
 10
20.0313
 20
1.20399
 11
20.4652
 21
0.806244
  0
LINE
  8
0
 10
20.4652
 20
0.806244
 11
20.9618
 21
0.472992
  0
LINE
  8
0
 10
20.9618
 20
0.472992
 11
21.5147
 21
0.210052
  0
LINE
  8
0
 10
21.5147
 20
0.210052
 11
22.1163
 21
0.0222473
  0
LINE
  8
0
 10
22.1163
 20
0.0222473
 11
22.7667
 21
-0.0904236
  0
LINE
  8
0
 10
22.7667
 20
-0.0904236
 11
23.4658
 21
-0.127991
  0
LINE
  8
0
 10
23.4658
 20
-0.127991
 11
24.1508
 21
-0.0874939
  0
LINE
  8
0
 10
169.099
 20
-0.08255
 11
169.881
 21
0.0537415
  0
LINE
  8
0
 10
169.881
 20
0.0537415
 11
170.558
 21
0.28093
  0
LINE
  8
0
 10
170.558
 20
0.28093
 11
171.128
 21
0.598999
  0
LINE
  8
0
 10
171.128
 20
0.598999
 11
171.582
 21
1.00031
  0
LINE
  8
0
 10
171.582
 20
1.00031
 11
171.905
 21
1.47624
  0
LINE
  8
0
 10
171.905
 20
1.47624
 11
172.1
 21
2.02681
  0
LINE
  8
0
 10
172.1
 20
2.02681
 11
172.164
 21
2.65199
  0
LINE
  8
0
 10
172.164
 20
2.65199
 11
172.155
 21
2.905
  0
LINE
  8
0
 10
172.155
 20
2.905
 11
172.128
 21
3.14099
  0
LINE
  8
0
 10
172.128
 20
3.14099
 11
172.082
 21
3.35999
  0
LINE
  8
0
 10
172.082
 20
3.35999
 11
172.018
 21
3.562
  0
LINE
  8
0
 10
172.018
 20
3.562
 11
171.938
 21
3.74956
  0
LINE
  8
0
 10
171.938
 20
3.74956
 11
171.844
 21
3.92424
  0
LINE
  8
0
 10
171.844
 20
3.92424
 11
171.736
 21
4.08606
  0
LINE
  8
0
 10
171.736
 20
4.08606
 11
171.613
 21
4.23499
  0
LINE
  8
0
 10
171.613
 20
4.23499
 11
171.479
 21
4.37244
  0
LINE
  8
0
 10
171.479
 20
4.37244
 11
171.332
 21
4.49875
  0
LINE
  8
0
 10
171.332
 20
4.49875
 11
171.175
 21
4.61394
  0
LINE
  8
0
 10
171.175
 20
4.61394
 11
171.005
 21
4.71799
  0
LINE
  8
0
 10
171.005
 20
4.71799
 11
170.828
 21
4.81331
  0
LINE
  8
0
 10
170.828
 20
4.81331
 11
170.643
 21
4.90224
  0
LINE
  8
0
 10
170.643
 20
4.90224
 11
170.453
 21
4.9848
  0
LINE
  8
0
 10
170.453
 20
4.9848
 11
170.255
 21
5.06099
  0
LINE
  8
0
 10
170.255
 20
5.06099
 11
170.053
 21
5.13187
  0
LINE
  8
0
 10
170.053
 20
5.13187
 11
169.845
 21
5.19749
  0
LINE
  8
0
 10
169.845
 20
5.19749
 11
169.633
 21
5.25787
  0
LINE
  8
0
 10
169.633
 20
5.25787
 11
169.415
 21
5.31299
  0
LINE
  8
0
 10
169.415
 20
5.31299
 11
168.535
 21
5.51999
  0
LINE
  8
0
 10
168.535
 20
5.51999
 11
167.931
 21
5.66025
  0
LINE
  8
0
 10
167.931
 20
5.66025
 11
167.436
 21
5.78899
  0
LINE
  8
0
 10
167.436
 20
5.78899
 11
167.051
 21
5.90623
  0
LINE
  8
0
 10
167.051
 20
5.90623
 11
166.775
 21
6.01199
  0
LINE
  8
0
 10
166.775
 20
6.01199
 11
166.568
 21
6.118
  0
LINE
  8
0
 10
166.568
 20
6.118
 11
166.386
 21
6.23499
  0
LINE
  8
0
 10
166.386
 20
6.23499
 11
166.23
 21
6.36299
  0
LINE
  8
0
 10
166.23
 20
6.36299
 11
166.099
 21
6.502
  0
LINE
  8
0
 10
166.099
 20
6.502
 11
165.997
 21
6.65605
  0
LINE
  8
0
 10
165.997
 20
6.65605
 11
165.924
 21
6.82924
  0
LINE
  8
0
 10
165.924
 20
6.82924
 11
165.88
 21
7.02156
  0
LINE
  8
0
 10
165.88
 20
7.02156
 11
165.865
 21
7.23299
  0
LINE
  8
0
 10
165.865
 20
7.23299
 11
165.903
 21
7.58755
  0
LINE
  8
0
 10
165.903
 20
7.58755
 11
166.017
 21
7.89525
  0
LINE
  8
0
 10
166.017
 20
7.89525
 11
166.206
 21
8.15605
  0
LINE
  8
0
 10
166.206
 20
8.15605
 11
166.47
 21
8.37
  0
LINE
  8
0
 10
166.47
 20
8.37
 11
166.807
 21
8.53668
  0
LINE
  8
0
 10
166.807
 20
8.53668
 11
167.211
 21
8.65575
  0
LINE
  8
0
 10
167.211
 20
8.65575
 11
167.684
 21
8.72717
  0
LINE
  8
0
 10
167.684
 20
8.72717
 11
168.224
 21
8.75099
  0
LINE
  8
0
 10
168.224
 20
8.75099
 11
168.719
 21
8.72955
  0
LINE
  8
0
 10
168.719
 20
8.72955
 11
169.157
 21
8.66524
  0
LINE
  8
0
 10
169.157
 20
8.66524
 11
169.538
 21
8.55806
  0
LINE
  8
0
 10
169.538
 20
8.55806
 11
169.862
 21
8.40799
  0
LINE
  8
0
 10
169.862
 20
8.40799
 11
170.135
 21
8.21094
  0
LINE
  8
0
 10
170.135
 20
8.21094
 11
170.359
 21
7.96175
  0
LINE
  8
0
 10
170.359
 20
7.96175
 11
170.536
 21
7.66043
  0
LINE
  8
0
 10
170.536
 20
7.66043
 11
170.665
 21
7.30699
  0
LINE
  8
0
 10
170.665
 20
7.30699
 11
171.94
 21
7.53099
  0
LINE
  8
0
 10
171.94
 20
7.53099
 11
171.735
 21
8.08711
  0
LINE
  8
0
 10
171.735
 20
8.08711
 11
171.465
 21
8.5555
  0
LINE
  8
0
 10
171.465
 20
8.5555
 11
171.131
 21
8.93611
  0
LINE
  8
0
 10
171.131
 20
8.93611
 11
170.731
 21
9.22899
  0
LINE
  8
0
 10
170.731
 20
9.22899
 11
170.252
 21
9.44731
  0
LINE
  8
0
 10
170.252
 20
9.44731
 11
169.677
 21
9.60324
  0
LINE
  8
0
 10
169.677
 20
9.60324
 11
169.005
 21
9.69681
  0
LINE
  8
0
 10
169.005
 20
9.69681
 11
168.238
 21
9.728
  0
LINE
  8
0
 10
168.238
 20
9.728
 11
167.413
 21
9.68637
  0
LINE
  8
0
 10
167.413
 20
9.68637
 11
166.688
 21
9.56149
  0
LINE
  8
0
 10
166.688
 20
9.56149
 11
166.066
 21
9.35336
  0
LINE
  8
0
 10
166.066
 20
9.35336
 11
165.544
 21
9.062
  0
LINE
  8
0
 10
165.544
 20
9.062
 11
165.133
 21
8.69368
  0
LINE
  8
0
 10
165.133
 20
8.69368
 11
164.839
 21
8.25475
  0
LINE
  8
0
 10
164.839
 20
8.25475
 11
164.662
 21
7.74518
  0
LINE
  8
0
 10
164.662
 20
7.74518
 11
164.603
 21
7.16499
  0
LINE
  8
0
 10
164.603
 20
7.16499
 11
164.615
 21
6.90411
  0
LINE
  8
0
 10
164.615
 20
6.90411
 11
164.648
 21
6.65849
  0
LINE
  8
0
 10
164.648
 20
6.65849
 11
164.705
 21
6.42812
  0
LINE
  8
0
 10
164.705
 20
6.42812
 11
164.783
 21
6.213
  0
LINE
  8
0
 10
164.783
 20
6.213
 11
164.883
 21
6.01256
  0
LINE
  8
0
 10
164.883
 20
6.01256
 11
165.003
 21
5.82524
  0
LINE
  8
0
 10
165.003
 20
5.82524
 11
165.143
 21
5.65106
  0
LINE
  8
0
 10
165.143
 20
5.65106
 11
165.303
 21
5.48999
  0
LINE
  8
0
 10
165.303
 20
5.48999
 11
165.489
 21
5.33905
  0
LINE
  8
0
 10
165.489
 20
5.33905
 11
165.705
 21
5.19524
  0
LINE
  8
0
 10
165.705
 20
5.19524
 11
165.952
 21
5.05855
  0
LINE
  8
0
 10
165.952
 20
5.05855
 11
166.23
 21
4.92899
  0
LINE
  8
0
 10
166.23
 20
4.92899
 11
166.559
 21
4.80344
  0
LINE
  8
0
 10
166.559
 20
4.80344
 11
166.955
 21
4.67775
  0
LINE
  8
0
 10
166.955
 20
4.67775
 11
167.42
 21
4.55193
  0
LINE
  8
0
 10
167.42
 20
4.55193
 11
167.953
 21
4.42599
  0
LINE
  8
0
 10
167.953
 20
4.42599
 11
168.577
 21
4.28174
  0
LINE
  8
0
 10
168.577
 20
4.28174
 11
169.142
 21
4.14699
  0
LINE
  8
0
 10
169.142
 20
4.14699
 11
169.402
 21
4.07867
  0
LINE
  8
0
 10
169.402
 20
4.07867
 11
169.642
 21
4.00275
  0
LINE
  8
0
 10
169.642
 20
4.00275
 11
169.864
 21
3.91917
  0
LINE
  8
0
 10
169.864
 20
3.91917
 11
170.066
 21
3.82799
  0
LINE
  8
0
 10
170.066
 20
3.82799
 11
170.25
 21
3.72656
  0
LINE
  8
0
 10
170.25
 20
3.72656
 11
170.411
 21
3.61224
  0
LINE
  8
0
 10
170.411
 20
3.61224
 11
170.551
 21
3.48506
  0
LINE
  8
0
 10
170.551
 20
3.48506
 11
170.668
 21
3.34499
  0
LINE
  8
0
 10
170.668
 20
3.34499
 11
170.762
 21
3.18793
  0
LINE
  8
0
 10
170.762
 20
3.18793
 11
170.829
 21
3.00874
  0
LINE
  8
0
 10
170.829
 20
3.00874
 11
170.869
 21
2.80743
  0
LINE
  8
0
 10
170.869
 20
2.80743
 11
170.882
 21
2.584
  0
LINE
  8
0
 10
170.882
 20
2.584
 11
170.84
 21
2.19073
  0
LINE
  8
0
 10
170.84
 20
2.19073
 11
170.711
 21
1.84799
  0
LINE
  8
0
 10
170.711
 20
1.84799
 11
170.498
 21
1.55574
  0
LINE
  8
0
 10
170.498
 20
1.55574
 11
170.198
 21
1.314
  0
LINE
  8
0
 10
170.198
 20
1.314
 11
169.821
 21
1.125
  0
LINE
  8
0
 10
169.821
 20
1.125
 11
169.372
 21
0.98999
  0
LINE
  8
0
 10
169.372
 20
0.98999
 11
168.851
 21
0.908997
  0
LINE
  8
0
 10
168.851
 20
0.908997
 11
168.258
 21
0.881989
  0
LINE
  8
0
 10
168.258
 20
0.881989
 11
167.682
 21
0.907181
  0
LINE
  8
0
 10
167.682
 20
0.907181
 11
167.169
 21
0.982742
  0
LINE
  8
0
 10
167.169
 20
0.982742
 11
166.72
 21
1.10867
  0
LINE
  8
0
 10
166.72
 20
1.10867
 11
166.334
 21
1.28499
  0
LINE
  8
0
 10
166.334
 20
1.28499
 11
166.011
 21
1.51562
  0
LINE
  8
0
 10
166.011
 20
1.51562
 11
165.75
 21
1.8035
  0
LINE
  8
0
 10
165.75
 20
1.8035
 11
165.549
 21
2.14862
  0
LINE
  8
0
 10
165.549
 20
2.14862
 11
165.409
 21
2.55099
  0
LINE
  8
0
 10
165.409
 20
2.55099
 11
164.155
 21
2.29999
  0
LINE
  8
0
 10
164.155
 20
2.29999
 11
164.618
 21
1.23775
  0
LINE
  8
0
 10
164.618
 20
1.23775
 11
165.448
 21
0.478989
  0
LINE
  8
0
 10
165.448
 20
0.478989
 11
166.645
 21
0.0237427
  0
LINE
  8
0
 10
166.645
 20
0.0237427
 11
168.21
 21
-0.127991
  0
LINE
  8
0
 10
168.21
 20
-0.127991
 11
169.099
 21
-0.08255
  0
LINE
  8
0
 10
61.1631
 20
-0.101425
 11
61.773
 21
-0.0217438
  0
LINE
  8
0
 10
61.773
 20
-0.0217438
 11
62.3596
 21
0.111053
  0
LINE
  8
0
 10
62.3596
 20
0.111053
 11
62.9228
 21
0.296997
  0
LINE
  8
0
 10
62.9228
 20
0.296997
 11
63.4533
 21
0.531372
  0
LINE
  8
0
 10
63.4533
 20
0.531372
 11
63.9408
 21
0.809494
  0
LINE
  8
0
 10
63.9408
 20
0.809494
 11
64.3853
 21
1.13136
  0
LINE
  8
0
 10
64.3853
 20
1.13136
 11
64.7868
 21
1.49699
  0
LINE
  8
0
 10
64.7868
 20
1.49699
 11
64.7868
 21
4.79999
  0
LINE
  8
0
 10
64.7868
 20
4.79999
 11
60.7338
 21
4.79999
  0
LINE
  8
0
 10
60.7338
 20
4.79999
 11
60.7338
 21
3.715
  0
LINE
  8
0
 10
60.7338
 20
3.715
 11
63.5938
 21
3.715
  0
LINE
  8
0
 10
63.5938
 20
3.715
 11
63.5938
 21
1.98499
  0
LINE
  8
0
 10
63.5938
 20
1.98499
 11
63.323
 21
1.75275
  0
LINE
  8
0
 10
63.323
 20
1.75275
 11
63.0135
 21
1.54599
  0
LINE
  8
0
 10
63.0135
 20
1.54599
 11
62.6655
 21
1.36475
  0
LINE
  8
0
 10
62.6655
 20
1.36475
 11
62.2788
 21
1.209
  0
LINE
  8
0
 10
62.2788
 20
1.209
 11
61.8653
 21
1.08386
  0
LINE
  8
0
 10
61.8653
 20
1.08386
 11
61.436
 21
0.994492
  0
LINE
  8
0
 10
61.436
 20
0.994492
 11
60.9908
 21
0.940872
  0
LINE
  8
0
 10
60.9908
 20
0.940872
 11
60.5298
 21
0.922989
  0
LINE
  8
0
 10
60.5298
 20
0.922989
 11
59.7523
 21
0.988678
  0
LINE
  8
0
 10
59.7523
 20
0.988678
 11
59.064
 21
1.18575
  0
LINE
  8
0
 10
59.064
 20
1.18575
 11
58.4648
 21
1.51418
  0
LINE
  8
0
 10
58.4648
 20
1.51418
 11
57.9548
 21
1.974
  0
LINE
  8
0
 10
57.9548
 20
1.974
 11
57.5479
 21
2.5473
  0
LINE
  8
0
 10
57.5479
 20
2.5473
 11
57.2573
 21
3.21625
  0
LINE
  8
0
 10
57.2573
 20
3.21625
 11
57.0829
 21
3.9808
  0
LINE
  8
0
 10
57.0829
 20
3.9808
 11
57.0248
 21
4.84099
  0
LINE
  8
0
 10
57.0248
 20
4.84099
 11
57.0795
 21
5.70125
  0
LINE
  8
0
 10
57.0795
 20
5.70125
 11
57.2438
 21
6.459
  0
LINE
  8
0
 10
57.2438
 20
6.459
 11
57.5175
 21
7.11424
  0
LINE
  8
0
 10
57.5175
 20
7.11424
 11
57.9008
 21
7.66699
  0
LINE
  8
0
 10
57.9008
 20
7.66699
 11
58.388
 21
8.1058
  0
LINE
  8
0
 10
58.388
 20
8.1058
 11
58.9728
 21
8.41924
  0
LINE
  8
0
 10
58.9728
 20
8.41924
 11
59.655
 21
8.6073
  0
LINE
  8
0
 10
59.655
 20
8.6073
 11
60.4348
 21
8.67
  0
LINE
  8
0
 10
60.4348
 20
8.67
 11
60.9463
 21
8.64656
  0
LINE
  8
0
 10
60.9463
 20
8.64656
 11
61.414
 21
8.57625
  0
LINE
  8
0
 10
61.414
 20
8.57625
 11
61.8378
 21
8.45906
  0
LINE
  8
0
 10
61.8378
 20
8.45906
 11
62.2178
 21
8.295
  0
LINE
  8
0
 10
62.2178
 20
8.295
 11
62.5569
 21
8.08031
  0
LINE
  8
0
 10
62.5569
 20
8.08031
 11
62.8575
 21
7.81024
  0
LINE
  8
0
 10
62.8575
 20
7.81024
 11
63.1194
 21
7.4848
  0
LINE
  8
0
 10
63.1194
 20
7.4848
 11
63.3428
 21
7.10399
  0
LINE
  8
0
 10
63.3428
 20
7.10399
 11
64.5768
 21
7.47099
  0
LINE
  8
0
 10
64.5768
 20
7.47099
 11
64.2803
 21
8.02211
  0
LINE
  8
0
 10
64.2803
 20
8.02211
 11
63.9268
 21
8.49249
  0
LINE
  8
0
 10
63.9268
 20
8.49249
 11
63.5163
 21
8.88211
  0
LINE
  8
0
 10
63.5163
 20
8.88211
 11
63.0488
 21
9.19099
  0
LINE
  8
0
 10
63.0488
 20
9.19099
 11
62.5159
 21
9.42593
  0
LINE
  8
0
 10
62.5159
 20
9.42593
 11
61.9083
 21
9.59375
  0
LINE
  8
0
 10
61.9083
 20
9.59375
 11
61.2259
 21
9.69443
  0
LINE
  8
0
 10
61.2259
 20
9.69443
 11
60.4688
 21
9.728
  0
LINE
  8
0
 10
60.4688
 20
9.728
 11
59.4014
 21
9.64812
  0
LINE
  8
0
 10
59.4014
 20
9.64812
 11
58.4605
 21
9.40849
  0
LINE
  8
0
 10
58.4605
 20
9.40849
 11
57.646
 21
9.00912
  0
LINE
  8
0
 10
57.646
 20
9.00912
 11
56.9578
 21
8.45
  0
LINE
  8
0
 10
56.9578
 20
8.45
 11
56.4113
 21
7.74518
  0
LINE
  8
0
 10
56.4113
 20
7.74518
 11
56.021
 21
6.90874
  0
LINE
  8
0
 10
56.021
 20
6.90874
 11
55.7868
 21
5.94067
  0
LINE
  8
0
 10
55.7868
 20
5.94067
 11
55.7088
 21
4.84099
  0
LINE
  8
0
 10
55.7088
 20
4.84099
 11
55.7446
 21
4.10437
  0
LINE
  8
0
 10
55.7446
 20
4.10437
 11
55.852
 21
3.4175
  0
LINE
  8
0
 10
55.852
 20
3.4175
 11
56.0311
 21
2.78036
  0
LINE
  8
0
 10
56.0311
 20
2.78036
 11
56.2818
 21
2.19299
  0
LINE
  8
0
 10
56.2818
 20
2.19299
 11
56.6008
 21
1.66344
  0
LINE
  8
0
 10
56.6008
 20
1.66344
 11
56.9838
 21
1.19974
  0
LINE
  8
0
 10
56.9838
 20
1.19974
 11
57.4308
 21
0.801926
  0
LINE
  8
0
 10
57.4308
 20
0.801926
 11
57.9418
 21
0.469986
  0
LINE
  8
0
 10
57.9418
 20
0.469986
 11
58.5111
 21
0.208374
  0
LINE
  8
0
 10
58.5111
 20
0.208374
 11
59.1323
 21
0.0214996
  0
LINE
  8
0
 10
59.1323
 20
0.0214996
 11
59.8051
 21
-0.0906219
  0
LINE
  8
0
 10
59.8051
 20
-0.0906219
 11
60.5298
 21
-0.127991
  0
LINE
  8
0
 10
60.5298
 20
-0.127991
 11
61.1631
 21
-0.101425
  0
LINE
  8
0
 10
186.411
 20
-0.100311
 11
186.962
 21
-0.0172424
  0
LINE
  8
0
 10
186.962
 20
-0.0172424
 11
187.472
 21
0.121185
  0
LINE
  8
0
 10
187.472
 20
0.121185
 11
187.943
 21
0.314987
  0
LINE
  8
0
 10
187.943
 20
0.314987
 11
188.367
 21
0.561172
  0
LINE
  8
0
 10
188.367
 20
0.561172
 11
188.741
 21
0.856735
  0
LINE
  8
0
 10
188.741
 20
0.856735
 11
189.064
 21
1.20168
  0
LINE
  8
0
 10
189.064
 20
1.20168
 11
189.336
 21
1.59599
  0
LINE
  8
0
 10
189.336
 20
1.59599
 11
189.551
 21
2.03537
  0
LINE
  8
0
 10
189.551
 20
2.03537
 11
189.705
 21
2.5145
  0
LINE
  8
0
 10
189.705
 20
2.5145
 11
189.798
 21
3.03337
  0
LINE
  8
0
 10
189.798
 20
3.03337
 11
189.829
 21
3.592
  0
LINE
  8
0
 10
189.829
 20
3.592
 11
189.829
 21
9.536
  0
LINE
  8
0
 10
189.829
 20
9.536
 11
188.541
 21
9.536
  0
LINE
  8
0
 10
188.541
 20
9.536
 11
188.541
 21
3.668
  0
LINE
  8
0
 10
188.541
 20
3.668
 11
188.496
 21
3.03537
  0
LINE
  8
0
 10
188.496
 20
3.03537
 11
188.361
 21
2.48349
  0
LINE
  8
0
 10
188.361
 20
2.48349
 11
188.137
 21
2.01237
  0
LINE
  8
0
 10
188.137
 20
2.01237
 11
187.823
 21
1.62199
  0
LINE
  8
0
 10
187.823
 20
1.62199
 11
187.428
 21
1.31618
  0
LINE
  8
0
 10
187.428
 20
1.31618
 11
186.962
 21
1.09775
  0
LINE
  8
0
 10
186.962
 20
1.09775
 11
186.424
 21
0.966675
  0
LINE
  8
0
 10
186.424
 20
0.966675
 11
185.814
 21
0.922989
  0
LINE
  8
0
 10
185.814
 20
0.922989
 11
185.221
 21
0.96524
  0
LINE
  8
0
 10
185.221
 20
0.96524
 11
184.703
 21
1.092
  0
LINE
  8
0
 10
184.703
 20
1.092
 11
184.259
 21
1.30324
  0
LINE
  8
0
 10
184.259
 20
1.30324
 11
183.889
 21
1.599
  0
LINE
  8
0
 10
183.889
 20
1.599
 11
183.597
 21
1.9763
  0
LINE
  8
0
 10
183.597
 20
1.9763
 11
183.389
 21
2.43224
  0
LINE
  8
0
 10
183.389
 20
2.43224
 11
183.264
 21
2.96681
  0
LINE
  8
0
 10
183.264
 20
2.96681
 11
183.223
 21
3.57999
  0
LINE
  8
0
 10
183.223
 20
3.57999
 11
183.223
 21
9.536
  0
LINE
  8
0
 10
183.223
 20
9.536
 11
181.927
 21
9.536
  0
LINE
  8
0
 10
181.927
 20
9.536
 11
181.927
 21
3.46999
  0
LINE
  8
0
 10
181.927
 20
3.46999
 11
181.957
 21
2.92793
  0
LINE
  8
0
 10
181.957
 20
2.92793
 11
182.047
 21
2.42474
  0
LINE
  8
0
 10
182.047
 20
2.42474
 11
182.198
 21
1.96043
  0
LINE
  8
0
 10
182.198
 20
1.96043
 11
182.409
 21
1.53499
  0
LINE
  8
0
 10
182.409
 20
1.53499
 11
182.675
 21
1.15355
  0
LINE
  8
0
 10
182.675
 20
1.15355
 11
182.99
 21
0.820236
  0
LINE
  8
0
 10
182.99
 20
0.820236
 11
183.354
 21
0.535049
  0
LINE
  8
0
 10
183.354
 20
0.535049
 11
183.768
 21
0.297989
  0
LINE
  8
0
 10
183.768
 20
0.297989
 11
184.225
 21
0.111618
  0
LINE
  8
0
 10
184.225
 20
0.111618
 11
184.719
 21
-0.0214996
  0
LINE
  8
0
 10
184.719
 20
-0.0214996
 11
185.251
 21
-0.101364
  0
LINE
  8
0
 10
185.251
 20
-0.101364
 11
185.82
 21
-0.127991
  0
LINE
  8
0
 10
185.82
 20
-0.127991
 11
186.411
 21
-0.100311
  0
LINE
  8
0
 10
104.786
 20
6.35999
 11
104.759
 21
7.63899
  0
LINE
  8
0
 10
104.759
 20
7.63899
 11
104.739
 21
8.39
  0
LINE
  8
0
 10
104.739
 20
8.39
 11
104.963
 21
7.646
  0
LINE
  8
0
 10
104.963
 20
7.646
 11
105.343
 21
6.495
  0
LINE
  8
0
 10
105.343
 20
6.495
 11
107.849
 21
0
  0
LINE
  8
0
 10
107.849
 20
0
 11
108.759
 21
0
  0
LINE
  8
0
 10
108.759
 20
0
 11
111.231
 21
6.495
  0
LINE
  8
0
 10
111.231
 20
6.495
 11
111.368
 21
6.86993
  0
LINE
  8
0
 10
111.368
 20
6.86993
 11
111.513
 21
7.31075
  0
LINE
  8
0
 10
111.513
 20
7.31075
 11
111.667
 21
7.81743
  0
LINE
  8
0
 10
111.667
 20
7.81743
 11
111.829
 21
8.39
  0
LINE
  8
0
 10
111.829
 20
8.39
 11
111.802
 21
7.89787
  0
LINE
  8
0
 10
111.802
 20
7.89787
 11
111.783
 21
7.39549
  0
LINE
  8
0
 10
111.783
 20
7.39549
 11
111.772
 21
6.88287
  0
LINE
  8
0
 10
111.772
 20
6.88287
 11
111.768
 21
6.35999
  0
LINE
  8
0
 10
111.768
 20
6.35999
 11
111.768
 21
0
  0
LINE
  8
0
 10
111.768
 20
0
 11
112.935
 21
0
  0
LINE
  8
0
 10
112.935
 20
0
 11
112.935
 21
9.536
  0
LINE
  8
0
 10
112.935
 20
9.536
 11
111.273
 21
9.536
  0
LINE
  8
0
 10
111.273
 20
9.536
 11
108.736
 21
2.82944
  0
LINE
  8
0
 10
108.736
 20
2.82944
 11
108.684
 21
2.68175
  0
LINE
  8
0
 10
108.684
 20
2.68175
 11
108.618
 21
2.48293
  0
LINE
  8
0
 10
108.618
 20
2.48293
 11
108.538
 21
2.23299
  0
LINE
  8
0
 10
108.538
 20
2.23299
 11
108.459
 21
1.97499
  0
LINE
  8
0
 10
108.459
 20
1.97499
 11
108.395
 21
1.752
  0
LINE
  8
0
 10
108.395
 20
1.752
 11
108.346
 21
1.564
  0
LINE
  8
0
 10
108.346
 20
1.564
 11
108.311
 21
1.411
  0
LINE
  8
0
 10
108.311
 20
1.411
 11
108.285
 21
1.52831
  0
LINE
  8
0
 10
108.285
 20
1.52831
 11
108.249
 21
1.67725
  0
LINE
  8
0
 10
108.249
 20
1.67725
 11
108.202
 21
1.8578
  0
LINE
  8
0
 10
108.202
 20
1.8578
 11
108.081
 21
2.29486
  0
LINE
  8
0
 10
108.081
 20
2.29486
 11
108.016
 21
2.5125
  0
LINE
  8
0
 10
108.016
 20
2.5125
 11
107.95
 21
2.72287
  0
LINE
  8
0
 10
107.95
 20
2.72287
 11
107.883
 21
2.92599
  0
LINE
  8
0
 10
107.883
 20
2.92599
 11
105.335
 21
9.536
  0
LINE
  8
0
 10
105.335
 20
9.536
 11
103.633
 21
9.536
  0
LINE
  8
0
 10
103.633
 20
9.536
 11
103.633
 21
0
  0
LINE
  8
0
 10
103.633
 20
0
 11
104.786
 21
0
  0
LINE
  8
0
 10
104.786
 20
0
 11
104.786
 21
6.35999
  0
LINE
  8
0
 10
116.084
 20
6.33299
 11
116.05
 21
7.463
  0
LINE
  8
0
 10
116.05
 20
7.463
 11
116.016
 21
8.11899
  0
LINE
  8
0
 10
116.016
 20
8.11899
 11
121.143
 21
0
  0
LINE
  8
0
 10
121.143
 20
0
 11
122.703
 21
0
  0
LINE
  8
0
 10
122.703
 20
0
 11
122.703
 21
9.536
  0
LINE
  8
0
 10
122.703
 20
9.536
 11
121.537
 21
9.536
  0
LINE
  8
0
 10
121.537
 20
9.536
 11
121.537
 21
3.284
  0
LINE
  8
0
 10
121.537
 20
3.284
 11
121.542
 21
2.94081
  0
LINE
  8
0
 10
121.542
 20
2.94081
 11
121.557
 21
2.50624
  0
LINE
  8
0
 10
121.557
 20
2.50624
 11
121.583
 21
1.9803
  0
LINE
  8
0
 10
121.583
 20
1.9803
 11
121.618
 21
1.36299
  0
LINE
  8
0
 10
121.618
 20
1.36299
 11
116.437
 21
9.536
  0
LINE
  8
0
 10
116.437
 20
9.536
 11
114.931
 21
9.536
  0
LINE
  8
0
 10
114.931
 20
9.536
 11
114.931
 21
0
  0
LINE
  8
0
 10
114.931
 20
0
 11
116.084
 21
0
  0
LINE
  8
0
 10
116.084
 20
0
 11
116.084
 21
6.33299
  0
LINE
  8
0
 10
136.57
 20
3.71199
 11
139.384
 21
3.71199
  0
LINE
  8
0
 10
139.384
 20
3.71199
 11
140.105
 21
3.76193
  0
LINE
  8
0
 10
140.105
 20
3.76193
 11
140.747
 21
3.91174
  0
LINE
  8
0
 10
140.747
 20
3.91174
 11
141.31
 21
4.16142
  0
LINE
  8
0
 10
141.31
 20
4.16142
 11
141.793
 21
4.51099
  0
LINE
  8
0
 10
141.793
 20
4.51099
 11
142.181
 21
4.94524
  0
LINE
  8
0
 10
142.181
 20
4.94524
 11
142.458
 21
5.44899
  0
LINE
  8
0
 10
142.458
 20
5.44899
 11
142.624
 21
6.02225
  0
LINE
  8
0
 10
142.624
 20
6.02225
 11
142.68
 21
6.66499
  0
LINE
  8
0
 10
142.68
 20
6.66499
 11
142.625
 21
7.31042
  0
LINE
  8
0
 10
142.625
 20
7.31042
 11
142.459
 21
7.87874
  0
LINE
  8
0
 10
142.459
 20
7.87874
 11
142.183
 21
8.36993
  0
LINE
  8
0
 10
142.183
 20
8.36993
 11
141.797
 21
8.784
  0
LINE
  8
0
 10
141.797
 20
8.784
 11
141.31
 21
9.11299
  0
LINE
  8
0
 10
141.31
 20
9.11299
 11
140.732
 21
9.34799
  0
LINE
  8
0
 10
140.732
 20
9.34799
 11
140.063
 21
9.489
  0
LINE
  8
0
 10
140.063
 20
9.489
 11
139.304
 21
9.536
  0
LINE
  8
0
 10
139.304
 20
9.536
 11
135.275
 21
9.536
  0
LINE
  8
0
 10
135.275
 20
9.536
 11
135.275
 21
0
  0
LINE
  8
0
 10
135.275
 20
0
 11
136.57
 21
0
  0
LINE
  8
0
 10
136.57
 20
0
 11
136.57
 21
3.71199
  0
LINE
  8
0
 10
136.57
 20
4.73599
 11
136.57
 21
8.49799
  0
LINE
  8
0
 10
136.57
 20
8.49799
 11
139.147
 21
8.49799
  0
LINE
  8
0
 10
139.147
 20
8.49799
 11
140.123
 21
8.38255
  0
LINE
  8
0
 10
140.123
 20
8.38255
 11
140.82
 21
8.03624
  0
LINE
  8
0
 10
140.82
 20
8.03624
 11
141.238
 21
7.45906
  0
LINE
  8
0
 10
141.238
 20
7.45906
 11
141.378
 21
6.65099
  0
LINE
  8
0
 10
141.378
 20
6.65099
 11
141.242
 21
5.81319
  0
LINE
  8
0
 10
141.242
 20
5.81319
 11
140.834
 21
5.21474
  0
LINE
  8
0
 10
140.834
 20
5.21474
 11
140.154
 21
4.85568
  0
LINE
  8
0
 10
140.154
 20
4.85568
 11
139.202
 21
4.73599
  0
LINE
  8
0
 10
139.202
 20
4.73599
 11
136.57
 21
4.73599
  0
LINE
  8
0
 10
156.165
 20
3.96799
 11
159.151
 21
3.96799
  0
LINE
  8
0
 10
159.151
 20
3.96799
 11
161.64
 21
0
  0
LINE
  8
0
 10
161.64
 20
0
 11
163.132
 21
0
  0
LINE
  8
0
 10
163.132
 20
0
 11
160.413
 21
4.11699
  0
LINE
  8
0
 10
160.413
 20
4.11699
 11
160.931
 21
4.24487
  0
LINE
  8
0
 10
160.931
 20
4.24487
 11
161.389
 21
4.4395
  0
LINE
  8
0
 10
161.389
 20
4.4395
 11
161.789
 21
4.70087
  0
LINE
  8
0
 10
161.789
 20
4.70087
 11
162.129
 21
5.02899
  0
LINE
  8
0
 10
162.129
 20
5.02899
 11
162.402
 21
5.41162
  0
LINE
  8
0
 10
162.402
 20
5.41162
 11
162.596
 21
5.83649
  0
LINE
  8
0
 10
162.596
 20
5.83649
 11
162.713
 21
6.30362
  0
LINE
  8
0
 10
162.713
 20
6.30362
 11
162.751
 21
6.81299
  0
LINE
  8
0
 10
162.751
 20
6.81299
 11
162.696
 21
7.41968
  0
LINE
  8
0
 10
162.696
 20
7.41968
 11
162.531
 21
7.95575
  0
LINE
  8
0
 10
162.531
 20
7.95575
 11
162.256
 21
8.42117
  0
LINE
  8
0
 10
162.256
 20
8.42117
 11
161.871
 21
8.81599
  0
LINE
  8
0
 10
161.871
 20
8.81599
 11
161.385
 21
9.131
  0
LINE
  8
0
 10
161.385
 20
9.131
 11
160.807
 21
9.35599
  0
LINE
  8
0
 10
160.807
 20
9.35599
 11
160.137
 21
9.491
  0
LINE
  8
0
 10
160.137
 20
9.491
 11
159.374
 21
9.536
  0
LINE
  8
0
 10
159.374
 20
9.536
 11
154.87
 21
9.536
  0
LINE
  8
0
 10
154.87
 20
9.536
 11
154.87
 21
0
  0
LINE
  8
0
 10
154.87
 20
0
 11
156.165
 21
0
  0
LINE
  8
0
 10
156.165
 20
0
 11
156.165
 21
3.96799
  0
LINE
  8
0
 10
156.165
 20
4.99199
 11
156.165
 21
8.49799
  0
LINE
  8
0
 10
156.165
 20
8.49799
 11
159.246
 21
8.49799
  0
LINE
  8
0
 10
159.246
 20
8.49799
 11
159.749
 21
8.47081
  0
LINE
  8
0
 10
159.749
 20
8.47081
 11
160.189
 21
8.38924
  0
LINE
  8
0
 10
160.189
 20
8.38924
 11
160.566
 21
8.25331
  0
LINE
  8
0
 10
160.566
 20
8.25331
 11
160.881
 21
8.06299
  0
LINE
  8
0
 10
160.881
 20
8.06299
 11
161.13
 21
7.82086
  0
LINE
  8
0
 10
161.13
 20
7.82086
 11
161.307
 21
7.5295
  0
LINE
  8
0
 10
161.307
 20
7.5295
 11
161.414
 21
7.18887
  0
LINE
  8
0
 10
161.414
 20
7.18887
 11
161.449
 21
6.799
  0
LINE
  8
0
 10
161.449
 20
6.799
 11
161.414
 21
6.39474
  0
LINE
  8
0
 10
161.414
 20
6.39474
 11
161.309
 21
6.03799
  0
LINE
  8
0
 10
161.309
 20
6.03799
 11
161.134
 21
5.72874
  0
LINE
  8
0
 10
161.134
 20
5.72874
 11
160.888
 21
5.467
  0
LINE
  8
0
 10
160.888
 20
5.467
 11
160.579
 21
5.25919
  0
LINE
  8
0
 10
160.579
 20
5.25919
 11
160.211
 21
5.11075
  0
LINE
  8
0
 10
160.211
 20
5.11075
 11
159.785
 21
5.02168
  0
LINE
  8
0
 10
159.785
 20
5.02168
 11
159.3
 21
4.99199
  0
LINE
  8
0
 10
159.3
 20
4.99199
 11
156.165
 21
4.99199
  0
LINE
  8
0
 10
177.464
 20
8.478
 11
180.761
 21
8.478
  0
LINE
  8
0
 10
180.761
 20
8.478
 11
180.761
 21
9.536
  0
LINE
  8
0
 10
180.761
 20
9.536
 11
172.882
 21
9.536
  0
LINE
  8
0
 10
172.882
 20
9.536
 11
172.882
 21
8.478
  0
LINE
  8
0
 10
172.882
 20
8.478
 11
176.175
 21
8.478
  0
LINE
  8
0
 10
176.175
 20
8.478
 11
176.175
 21
0
  0
LINE
  8
0
 10
176.175
 20
0
 11
177.464
 21
0
  0
LINE
  8
0
 10
177.464
 20
0
 11
177.464
 21
8.478
  0
LINE
  8
0
 10
2.47099
 20
2.76599
 11
6.836
 21
2.76599
  0
LINE
  8
0
 10
6.836
 20
2.76599
 11
7.931
 21
0
  0
LINE
  8
0
 10
7.931
 20
0
 11
9.25299
 21
0
  0
LINE
  8
0
 10
9.25299
 20
0
 11
5.407
 21
9.536
  0
LINE
  8
0
 10
5.407
 20
9.536
 11
3.935
 21
9.536
  0
LINE
  8
0
 10
3.935
 20
9.536
 11
0.0269928
 21
0
  0
LINE
  8
0
 10
0.0269928
 20
0
 11
1.37
 21
0
  0
LINE
  8
0
 10
1.37
 20
0
 11
2.47099
 21
2.76599
  0
LINE
  8
0
 10
2.866
 20
3.77599
 11
4.09
 21
6.922
  0
LINE
  8
0
 10
4.09
 20
6.922
 11
4.24631
 21
7.34355
  0
LINE
  8
0
 10
4.24631
 20
7.34355
 11
4.38225
 21
7.72523
  0
LINE
  8
0
 10
4.38225
 20
7.72523
 11
4.4978
 21
8.06706
  0
LINE
  8
0
 10
4.4978
 20
8.06706
 11
4.65399
 21
8.55899
  0
LINE
  8
0
 10
4.65399
 20
8.55899
 11
4.933
 21
7.70712
  0
LINE
  8
0
 10
4.933
 20
7.70712
 11
5.028
 21
7.43449
  0
LINE
  8
0
 10
5.028
 20
7.43449
 11
5.12299
 21
7.17712
  0
LINE
  8
0
 10
5.12299
 20
7.17712
 11
6.44899
 21
3.77599
  0
LINE
  8
0
 10
6.44899
 20
3.77599
 11
2.866
 21
3.77599
  0
LINE
  8
0
 10
195.865
 20
2.82399
 11
195.294
 21
1.13899
  0
LINE
  8
0
 10
195.294
 20
1.13899
 11
194.723
 21
2.82399
  0
LINE
  8
0
 10
194.723
 20
2.82399
 11
192.071
 21
9.536
  0
LINE
  8
0
 10
192.071
 20
9.536
 11
190.708
 21
9.536
  0
LINE
  8
0
 10
190.708
 20
9.536
 11
194.616
 21
0
  0
LINE
  8
0
 10
194.616
 20
0
 11
195.959
 21
0
  0
LINE
  8
0
 10
195.959
 20
0
 11
199.801
 21
9.377
  0
LINE
  8
0
 10
199.801
 20
9.377
 11
202.571
 21
0
  0
LINE
  8
0
 10
202.571
 20
0
 11
204.117
 21
0
  0
LINE
  8
0
 10
204.117
 20
0
 11
204.883
 21
2.76775
  0
LINE
  8
0
 10
204.883
 20
2.76775
 11
205.447
 21
4.81999
  0
LINE
  8
0
 10
205.447
 20
4.81999
 11
205.81
 21
6.15674
  0
LINE
  8
0
 10
205.81
 20
6.15674
 11
205.971
 21
6.778
  0
LINE
  8
0
 10
205.971
 20
6.778
 11
206.27
 21
8.09099
  0
LINE
  8
0
 10
206.27
 20
8.09099
 11
206.417
 21
7.41324
  0
LINE
  8
0
 10
206.417
 20
7.41324
 11
206.545
 21
6.84799
  0
LINE
  8
0
 10
206.545
 20
6.84799
 11
206.655
 21
6.39525
  0
LINE
  8
0
 10
206.655
 20
6.39525
 11
206.745
 21
6.05499
  0
LINE
  8
0
 10
206.745
 20
6.05499
 11
208.402
 21
0
  0
LINE
  8
0
 10
208.402
 20
0
 11
209.948
 21
0
  0
LINE
  8
0
 10
209.948
 20
0
 11
212.765
 21
9.536
  0
LINE
  8
0
 10
212.765
 20
9.536
 11
211.415
 21
9.536
  0
LINE
  8
0
 10
211.415
 20
9.536
 11
210.624
 21
6.70486
  0
LINE
  8
0
 10
210.624
 20
6.70486
 11
210.042
 21
4.61249
  0
LINE
  8
0
 10
210.042
 20
4.61249
 11
209.67
 21
3.25887
  0
LINE
  8
0
 10
209.67
 20
3.25887
 11
209.507
 21
2.644
  0
LINE
  8
0
 10
209.507
 20
2.644
 11
209.209
 21
1.37599
  0
LINE
  8
0
 10
209.209
 20
1.37599
 11
209.148
 21
1.13899
  0
LINE
  8
0
 10
209.148
 20
1.13899
 11
209.03
 21
1.67093
  0
LINE
  8
0
 10
209.03
 20
1.67093
 11
208.89
 21
2.25874
  0
LINE
  8
0
 10
208.89
 20
2.25874
 11
208.731
 21
2.90244
  0
LINE
  8
0
 10
208.731
 20
2.90244
 11
208.55
 21
3.60199
  0
LINE
  8
0
 10
208.55
 20
3.60199
 11
206.887
 21
9.536
  0
LINE
  8
0
 10
206.887
 20
9.536
 11
205.646
 21
9.536
  0
LINE
  8
0
 10
205.646
 20
9.536
 11
204.902
 21
6.9028
  0
LINE
  8
0
 10
204.902
 20
6.9028
 11
204.34
 21
4.89624
  0
LINE
  8
0
 10
204.34
 20
4.89624
 11
203.96
 21
3.51631
  0
LINE
  8
0
 10
203.96
 20
3.51631
 11
203.762
 21
2.76299
  0
LINE
  8
0
 10
203.762
 20
2.76299
 11
203.659
 21
2.3315
  0
LINE
  8
0
 10
203.659
 20
2.3315
 11
203.561
 21
1.91699
  0
LINE
  8
0
 10
203.561
 20
1.91699
 11
203.47
 21
1.51949
  0
LINE
  8
0
 10
203.47
 20
1.51949
 11
203.385
 21
1.13899
  0
LINE
  8
0
 10
203.385
 20
1.13899
 11
203.253
 21
1.7368
  0
LINE
  8
0
 10
203.253
 20
1.7368
 11
203.116
 21
2.32625
  0
LINE
  8
0
 10
203.116
 20
2.32625
 11
202.972
 21
2.9073
  0
LINE
  8
0
 10
202.972
 20
2.9073
 11
202.822
 21
3.48
  0
LINE
  8
0
 10
202.822
 20
3.48
 11
201.104
 21
9.536
  0
LINE
  8
0
 10
201.104
 20
9.536
 11
198.503
 21
9.536
  0
LINE
  8
0
 10
198.503
 20
9.536
 11
195.865
 21
2.82399
  0
LINE
  8
0
 10
217.175
 20
4.16899
 11
220.051
 21
0
  0
LINE
  8
0
 10
220.051
 20
0
 11
221.482
 21
0
  0
LINE
  8
0
 10
221.482
 20
0
 11
217.929
 21
5.00099
  0
LINE
  8
0
 10
217.929
 20
5.00099
 11
221.203
 21
9.536
  0
LINE
  8
0
 10
221.203
 20
9.536
 11
219.772
 21
9.536
  0
LINE
  8
0
 10
219.772
 20
9.536
 11
217.181
 21
5.793
  0
LINE
  8
0
 10
217.181
 20
5.793
 11
214.516
 21
9.536
  0
LINE
  8
0
 10
214.516
 20
9.536
 11
213.085
 21
9.536
  0
LINE
  8
0
 10
213.085
 20
9.536
 11
216.448
 21
4.95399
  0
LINE
  8
0
 10
216.448
 20
4.95399
 11
212.807
 21
0
  0
LINE
  8
0
 10
212.807
 20
0
 11
214.238
 21
0
  0
LINE
  8
0
 10
214.238
 20
0
 11
217.175
 21
4.16899
  0
LINE
  8
0
 10
226.816
 20
3.952
 11
230.514
 21
9.536
  0
LINE
  8
0
 10
230.514
 20
9.536
 11
229.09
 21
9.536
  0
LINE
  8
0
 10
229.09
 20
9.536
 11
226.186
 21
4.99699
  0
LINE
  8
0
 10
226.186
 20
4.99699
 11
223.27
 21
9.536
  0
LINE
  8
0
 10
223.27
 20
9.536
 11
221.846
 21
9.536
  0
LINE
  8
0
 10
221.846
 20
9.536
 11
225.528
 21
3.952
  0
LINE
  8
0
 10
225.528
 20
3.952
 11
225.528
 21
0
  0
LINE
  8
0
 10
225.528
 20
0
 11
226.816
 21
0
  0
LINE
  8
0
 10
226.816
 20
0
 11
226.816
 21
3.952
  0
LINE
  8
0
 10
238.663
 20
1.058
 11
232.499
 21
1.058
  0
LINE
  8
0
 10
232.499
 20
1.058
 11
238.343
 21
8.59299
  0
LINE
  8
0
 10
238.343
 20
8.59299
 11
238.343
 21
9.536
  0
LINE
  8
0
 10
238.343
 20
9.536
 11
231.525
 21
9.536
  0
LINE
  8
0
 10
231.525
 20
9.536
 11
231.525
 21
8.478
  0
LINE
  8
0
 10
231.525
 20
8.478
 11
236.871
 21
8.478
  0
LINE
  8
0
 10
236.871
 20
8.478
 11
231.028
 21
0.969986
  0
LINE
  8
0
 10
231.028
 20
0.969986
 11
231.028
 21
0
  0
LINE
  8
0
 10
231.028
 20
0
 11
238.663
 21
0
  0
LINE
  8
0
 10
238.663
 20
0
 11
238.663
 21
1.058
  0
LINE
  8
0
 10
14.8564
 20
0.0443726
 11
15.5489
 21
0.17749
  0
LINE
  8
0
 10
15.5489
 20
0.17749
 11
16.1504
 21
0.399368
  0
LINE
  8
0
 10
16.1504
 20
0.399368
 11
16.6609
 21
0.709991
  0
LINE
  8
0
 10
16.6609
 20
0.709991
 11
17.0682
 21
1.10086
  0
LINE
  8
0
 10
17.0682
 20
1.10086
 11
17.3591
 21
1.5625
  0
LINE
  8
0
 10
17.3591
 20
1.5625
 11
17.5337
 21
2.09486
  0
LINE
  8
0
 10
17.5337
 20
2.09486
 11
17.5919
 21
2.698
  0
LINE
  8
0
 10
17.5919
 20
2.698
 11
17.5532
 21
3.1568
  0
LINE
  8
0
 10
17.5532
 20
3.1568
 11
17.4371
 21
3.57425
  0
LINE
  8
0
 10
17.4371
 20
3.57425
 11
17.2437
 21
3.9503
  0
LINE
  8
0
 10
17.2437
 20
3.9503
 11
16.9729
 21
4.28499
  0
LINE
  8
0
 10
16.9729
 20
4.28499
 11
16.6311
 21
4.56868
  0
LINE
  8
0
 10
16.6311
 20
4.56868
 11
16.2239
 21
4.79074
  0
LINE
  8
0
 10
16.2239
 20
4.79074
 11
15.7511
 21
4.95119
  0
LINE
  8
0
 10
15.7511
 20
4.95119
 11
15.2129
 21
5.04999
  0
LINE
  8
0
 10
15.2129
 20
5.04999
 11
15.6233
 21
5.17105
  0
LINE
  8
0
 10
15.6233
 20
5.17105
 11
15.9844
 21
5.33925
  0
LINE
  8
0
 10
15.9844
 20
5.33925
 11
16.2963
 21
5.55455
  0
LINE
  8
0
 10
16.2963
 20
5.55455
 11
16.5589
 21
5.81699
  0
LINE
  8
0
 10
16.5589
 20
5.81699
 11
16.7671
 21
6.1203
  0
LINE
  8
0
 10
16.7671
 20
6.1203
 11
16.9159
 21
6.45724
  0
LINE
  8
0
 10
16.9159
 20
6.45724
 11
17.0051
 21
6.8278
  0
LINE
  8
0
 10
17.0051
 20
6.8278
 11
17.0349
 21
7.23199
  0
LINE
  8
0
 10
17.0349
 20
7.23199
 11
16.8243
 21
8.23999
  0
LINE
  8
0
 10
16.8243
 20
8.23999
 11
16.1924
 21
8.95999
  0
LINE
  8
0
 10
16.1924
 20
8.95999
 11
15.1393
 21
9.392
  0
LINE
  8
0
 10
15.1393
 20
9.392
 11
13.6649
 21
9.536
  0
LINE
  8
0
 10
13.6649
 20
9.536
 11
10.1869
 21
9.536
  0
LINE
  8
0
 10
10.1869
 20
9.536
 11
10.1869
 21
0
  0
LINE
  8
0
 10
10.1869
 20
0
 11
14.0729
 21
0
  0
LINE
  8
0
 10
14.0729
 20
0
 11
14.8564
 21
0.0443726
  0
LINE
  8
0
 10
11.4819
 20
5.504
 11
11.4819
 21
8.49799
  0
LINE
  8
0
 10
11.4819
 20
8.49799
 11
13.6649
 21
8.49799
  0
LINE
  8
0
 10
13.6649
 20
8.49799
 11
14.1386
 21
8.47743
  0
LINE
  8
0
 10
14.1386
 20
8.47743
 11
14.5526
 21
8.41574
  0
LINE
  8
0
 10
14.5526
 20
8.41574
 11
14.9071
 21
8.31293
  0
LINE
  8
0
 10
14.9071
 20
8.31293
 11
15.2019
 21
8.16899
  0
LINE
  8
0
 10
15.2019
 20
8.16899
 11
15.4342
 21
7.97725
  0
LINE
  8
0
 10
15.4342
 20
7.97725
 11
15.6001
 21
7.73099
  0
LINE
  8
0
 10
15.6001
 20
7.73099
 11
15.6997
 21
7.43024
  0
LINE
  8
0
 10
15.6997
 20
7.43024
 11
15.7329
 21
7.075
  0
LINE
  8
0
 10
15.7329
 20
7.075
 11
15.7008
 21
6.70131
  0
LINE
  8
0
 10
15.7008
 20
6.70131
 11
15.6044
 21
6.37924
  0
LINE
  8
0
 10
15.6044
 20
6.37924
 11
15.4438
 21
6.10881
  0
LINE
  8
0
 10
15.4438
 20
6.10881
 11
15.2189
 21
5.89
  0
LINE
  8
0
 10
15.2189
 20
5.89
 11
14.9294
 21
5.72112
  0
LINE
  8
0
 10
14.9294
 20
5.72112
 11
14.5739
 21
5.60049
  0
LINE
  8
0
 10
14.5739
 20
5.60049
 11
14.1524
 21
5.52812
  0
LINE
  8
0
 10
14.1524
 20
5.52812
 11
13.6649
 21
5.504
  0
LINE
  8
0
 10
13.6649
 20
5.504
 11
11.4819
 21
5.504
  0
LINE
  8
0
 10
11.4819
 20
1.03799
 11
11.4819
 21
4.49399
  0
LINE
  8
0
 10
11.4819
 20
4.49399
 11
13.9029
 21
4.49399
  0
LINE
  8
0
 10
13.9029
 20
4.49399
 11
14.9441
 21
4.38812
  0
LINE
  8
0
 10
14.9441
 20
4.38812
 11
15.6879
 21
4.0705
  0
LINE
  8
0
 10
15.6879
 20
4.0705
 11
16.1341
 21
3.54112
  0
LINE
  8
0
 10
16.1341
 20
3.54112
 11
16.2829
 21
2.79999
  0
LINE
  8
0
 10
16.2829
 20
2.79999
 11
16.2489
 21
2.38824
  0
LINE
  8
0
 10
16.2489
 20
2.38824
 11
16.1469
 21
2.03099
  0
LINE
  8
0
 10
16.1469
 20
2.03099
 11
15.9769
 21
1.72824
  0
LINE
  8
0
 10
15.9769
 20
1.72824
 11
15.7389
 21
1.48
  0
LINE
  8
0
 10
15.7389
 20
1.48
 11
15.4265
 21
1.28662
  0
LINE
  8
0
 10
15.4265
 20
1.28662
 11
15.0334
 21
1.1485
  0
LINE
  8
0
 10
15.0334
 20
1.1485
 11
14.5595
 21
1.06561
  0
LINE
  8
0
 10
14.5595
 20
1.06561
 11
14.0049
 21
1.03799
  0
LINE
  8
0
 10
14.0049
 20
1.03799
 11
11.4819
 21
1.03799
  0
LINE
  8
0
 10
33.2794
 20
0.0368042
 11
33.9112
 21
0.147247
  0
LINE
  8
0
 10
33.9112
 20
0.147247
 11
34.5024
 21
0.331299
  0
LINE
  8
0
 10
34.5024
 20
0.331299
 11
35.0527
 21
0.588989
  0
LINE
  8
0
 10
35.0527
 20
0.588989
 11
35.5526
 21
0.915802
  0
LINE
  8
0
 10
35.5526
 20
0.915802
 11
35.992
 21
1.30724
  0
LINE
  8
0
 10
35.992
 20
1.30724
 11
36.371
 21
1.76331
  0
LINE
  8
0
 10
36.371
 20
1.76331
 11
36.6897
 21
2.284
  0
LINE
  8
0
 10
36.6897
 20
2.284
 11
36.9426
 21
2.86049
  0
LINE
  8
0
 10
36.9426
 20
2.86049
 11
37.1232
 21
3.48299
  0
LINE
  8
0
 10
37.1232
 20
3.48299
 11
37.2316
 21
4.15149
  0
LINE
  8
0
 10
37.2316
 20
4.15149
 11
37.2677
 21
4.866
  0
LINE
  8
0
 10
37.2677
 20
4.866
 11
37.1851
 21
5.92194
  0
LINE
  8
0
 10
37.1851
 20
5.92194
 11
36.9372
 21
6.84975
  0
LINE
  8
0
 10
36.9372
 20
6.84975
 11
36.5241
 21
7.64943
  0
LINE
  8
0
 10
36.5241
 20
7.64943
 11
35.9457
 21
8.321
  0
LINE
  8
0
 10
35.9457
 20
8.321
 11
35.2158
 21
8.85255
  0
LINE
  8
0
 10
35.2158
 20
8.85255
 11
34.347
 21
9.23224
  0
LINE
  8
0
 10
34.347
 20
9.23224
 11
33.3393
 21
9.46005
  0
LINE
  8
0
 10
33.3393
 20
9.46005
 11
32.1927
 21
9.536
  0
LINE
  8
0
 10
32.1927
 20
9.536
 11
29.0267
 21
9.536
  0
LINE
  8
0
 10
29.0267
 20
9.536
 11
29.0267
 21
0
  0
LINE
  8
0
 10
29.0267
 20
0
 11
32.6067
 21
0
  0
LINE
  8
0
 10
32.6067
 20
0
 11
33.2794
 21
0.0368042
  0
LINE
  8
0
 10
30.3217
 20
1.03799
 11
30.3217
 21
8.49799
  0
LINE
  8
0
 10
30.3217
 20
8.49799
 11
32.1647
 21
8.49799
  0
LINE
  8
0
 10
32.1647
 20
8.49799
 11
33.0347
 21
8.43987
  0
LINE
  8
0
 10
33.0347
 20
8.43987
 11
33.7955
 21
8.26549
  0
LINE
  8
0
 10
33.7955
 20
8.26549
 11
34.4472
 21
7.97487
  0
LINE
  8
0
 10
34.4472
 20
7.97487
 11
34.9897
 21
7.56799
  0
LINE
  8
0
 10
34.9897
 20
7.56799
 11
35.4167
 21
7.05037
  0
LINE
  8
0
 10
35.4167
 20
7.05037
 11
35.7217
 21
6.42749
  0
LINE
  8
0
 10
35.7217
 20
6.42749
 11
35.9047
 21
5.69937
  0
LINE
  8
0
 10
35.9047
 20
5.69937
 11
35.9657
 21
4.866
  0
LINE
  8
0
 10
35.9657
 20
4.866
 11
35.9389
 21
4.29694
  0
LINE
  8
0
 10
35.9389
 20
4.29694
 11
35.8585
 21
3.76674
  0
LINE
  8
0
 10
35.8585
 20
3.76674
 11
35.7244
 21
3.27544
  0
LINE
  8
0
 10
35.7244
 20
3.27544
 11
35.5367
 21
2.823
  0
LINE
  8
0
 10
35.5367
 20
2.823
 11
35.2995
 21
2.4158
  0
LINE
  8
0
 10
35.2995
 20
2.4158
 11
35.016
 21
2.05925
  0
LINE
  8
0
 10
35.016
 20
2.05925
 11
34.6861
 21
1.75331
  0
LINE
  8
0
 10
34.6861
 20
1.75331
 11
34.3097
 21
1.49799
  0
LINE
  8
0
 10
34.3097
 20
1.49799
 11
33.8943
 21
1.29674
  0
LINE
  8
0
 10
33.8943
 20
1.29674
 11
33.447
 21
1.153
  0
LINE
  8
0
 10
33.447
 20
1.153
 11
32.9678
 21
1.06674
  0
LINE
  8
0
 10
32.9678
 20
1.06674
 11
32.4567
 21
1.03799
  0
LINE
  8
0
 10
32.4567
 20
1.03799
 11
30.3217
 21
1.03799
  0
LINE
  8
0
 10
88.3393
 20
3.655
 11
89.5913
 21
4.60199
  0
LINE
  8
0
 10
89.5913
 20
4.60199
 11
93.4203
 21
0
  0
LINE
  8
0
 10
93.4203
 20
0
 11
95.0273
 21
0
  0
LINE
  8
0
 10
95.0273
 20
0
 11
90.4073
 21
5.394
  0
LINE
  8
0
 10
90.4073
 20
5.394
 11
94.4833
 21
9.536
  0
LINE
  8
0
 10
94.4833
 20
9.536
 11
92.9573
 21
9.536
  0
LINE
  8
0
 10
92.9573
 20
9.536
 11
88.3393
 21
4.758
  0
LINE
  8
0
 10
88.3393
 20
4.758
 11
88.3393
 21
9.536
  0
LINE
  8
0
 10
88.3393
 20
9.536
 11
87.0443
 21
9.536
  0
LINE
  8
0
 10
87.0443
 20
9.536
 11
87.0443
 21
0
  0
LINE
  8
0
 10
87.0443
 20
0
 11
88.3393
 21
0
  0
LINE
  8
0
 10
88.3393
 20
0
 11
88.3393
 21
3.655
  0
LINE
  8
0
 10
46.3617
 20
1.058
 11
40.1157
 21
1.058
  0
LINE
  8
0
 10
40.1157
 20
1.058
 11
40.1157
 21
4.396
  0
LINE
  8
0
 10
40.1157
 20
4.396
 11
45.6757
 21
4.396
  0
LINE
  8
0
 10
45.6757
 20
4.396
 11
45.6757
 21
5.43999
  0
LINE
  8
0
 10
45.6757
 20
5.43999
 11
40.1157
 21
5.43999
  0
LINE
  8
0
 10
40.1157
 20
5.43999
 11
40.1157
 21
8.478
  0
LINE
  8
0
 10
40.1157
 20
8.478
 11
46.0837
 21
8.478
  0
LINE
  8
0
 10
46.0837
 20
8.478
 11
46.0837
 21
9.536
  0
LINE
  8
0
 10
46.0837
 20
9.536
 11
38.8207
 21
9.536
  0
LINE
  8
0
 10
38.8207
 20
9.536
 11
38.8207
 21
0
  0
LINE
  8
0
 10
38.8207
 20
0
 11
46.3617
 21
0
  0
LINE
  8
0
 10
46.3617
 20
0
 11
46.3617
 21
1.058
  0
LINE
  8
0
 10
82.8576
 20
-0.0783691
 11
83.4103
 21
0.0704956
  0
LINE
  8
0
 10
83.4103
 20
0.0704956
 11
83.8931
 21
0.318619
  0
LINE
  8
0
 10
83.8931
 20
0.318619
 11
84.3061
 21
0.665985
  0
LINE
  8
0
 10
84.3061
 20
0.665985
 11
84.6368
 21
1.10049
  0
LINE
  8
0
 10
84.6368
 20
1.10049
 11
84.8731
 21
1.60899
  0
LINE
  8
0
 10
84.8731
 20
1.60899
 11
85.0148
 21
2.1915
  0
LINE
  8
0
 10
85.0148
 20
2.1915
 11
85.0621
 21
2.84799
  0
LINE
  8
0
 10
85.0621
 20
2.84799
 11
85.0621
 21
9.536
  0
LINE
  8
0
 10
85.0621
 20
9.536
 11
81.9221
 21
9.536
  0
LINE
  8
0
 10
81.9221
 20
9.536
 11
81.9221
 21
8.478
  0
LINE
  8
0
 10
81.9221
 20
8.478
 11
83.7741
 21
8.478
  0
LINE
  8
0
 10
83.7741
 20
8.478
 11
83.7741
 21
2.82199
  0
LINE
  8
0
 10
83.7741
 20
2.82199
 11
83.7484
 21
2.38362
  0
LINE
  8
0
 10
83.7484
 20
2.38362
 11
83.6713
 21
2.0015
  0
LINE
  8
0
 10
83.6713
 20
2.0015
 11
83.5429
 21
1.67561
  0
LINE
  8
0
 10
83.5429
 20
1.67561
 11
83.3631
 21
1.40599
  0
LINE
  8
0
 10
83.3631
 20
1.40599
 11
83.1393
 21
1.19469
  0
LINE
  8
0
 10
83.1393
 20
1.19469
 11
82.8778
 21
1.04375
  0
LINE
  8
0
 10
82.8778
 20
1.04375
 11
82.5788
 21
0.953186
  0
LINE
  8
0
 10
82.5788
 20
0.953186
 11
82.2421
 21
0.922989
  0
LINE
  8
0
 10
82.2421
 20
0.922989
 11
81.9312
 21
0.95105
  0
LINE
  8
0
 10
81.9312
 20
0.95105
 11
81.6476
 21
1.03525
  0
LINE
  8
0
 10
81.6476
 20
1.03525
 11
81.3912
 21
1.17555
  0
LINE
  8
0
 10
81.3912
 20
1.17555
 11
81.1621
 21
1.37199
  0
LINE
  8
0
 10
81.1621
 20
1.37199
 11
80.9658
 21
1.61899
  0
LINE
  8
0
 10
80.9658
 20
1.61899
 11
80.8081
 21
1.90999
  0
LINE
  8
0
 10
80.8081
 20
1.90999
 11
80.6888
 21
2.245
  0
LINE
  8
0
 10
80.6888
 20
2.245
 11
80.6081
 21
2.62399
  0
LINE
  8
0
 10
80.6081
 20
2.62399
 11
79.3401
 21
2.411
  0
LINE
  8
0
 10
79.3401
 20
2.411
 11
79.692
 21
1.30019
  0
LINE
  8
0
 10
79.692
 20
1.30019
 11
80.2918
 21
0.506744
  0
LINE
  8
0
 10
80.2918
 20
0.506744
 11
81.1395
 21
0.0306854
  0
LINE
  8
0
 10
81.1395
 20
0.0306854
 11
82.2351
 21
-0.127991
  0
LINE
  8
0
 10
82.2351
 20
-0.127991
 11
82.8576
 21
-0.0783691
  0
LINE
  8
0
 10
102.231
 20
1.058
 11
97.3862
 21
1.058
  0
LINE
  8
0
 10
97.3862
 20
1.058
 11
97.3862
 21
9.536
  0
LINE
  8
0
 10
97.3862
 20
9.536
 11
96.0912
 21
9.536
  0
LINE
  8
0
 10
96.0912
 20
9.536
 11
96.0912
 21
0
  0
LINE
  8
0
 10
96.0912
 20
0
 11
102.231
 21
0
  0
LINE
  8
0
 10
102.231
 20
0
 11
102.231
 21
1.058
  0
LINE
  8
0
 10
67.9956
 20
4.41899
 11
73.1776
 21
4.41899
  0
LINE
  8
0
 10
73.1776
 20
4.41899
 11
73.1776
 21
0
  0
LINE
  8
0
 10
73.1776
 20
0
 11
74.4726
 21
0
  0
LINE
  8
0
 10
74.4726
 20
0
 11
74.4726
 21
9.536
  0
LINE
  8
0
 10
74.4726
 20
9.536
 11
73.1776
 21
9.536
  0
LINE
  8
0
 10
73.1776
 20
9.536
 11
73.1776
 21
5.504
  0
LINE
  8
0
 10
73.1776
 20
5.504
 11
67.9956
 21
5.504
  0
LINE
  8
0
 10
67.9956
 20
5.504
 11
67.9956
 21
9.536
  0
LINE
  8
0
 10
67.9956
 20
9.536
 11
66.7006
 21
9.536
  0
LINE
  8
0
 10
66.7006
 20
9.536
 11
66.7006
 21
0
  0
LINE
  8
0
 10
66.7006
 20
0
 11
67.9956
 21
0
  0
LINE
  8
0
 10
67.9956
 20
0
 11
67.9956
 21
4.41899
  0
LINE
  8
0
 10
77.9245
 20
9.536
 11
76.6295
 21
9.536
  0
LINE
  8
0
 10
76.6295
 20
9.536
 11
76.6295
 21
0
  0
LINE
  8
0
 10
76.6295
 20
0
 11
77.9245
 21
0
  0
LINE
  8
0
 10
77.9245
 20
0
 11
77.9245
 21
9.536
  0
LINE
  8
0
 10
49.1636
 20
3.85699
 11
54.5166
 21
3.85699
  0
LINE
  8
0
 10
54.5166
 20
3.85699
 11
54.5166
 21
4.92799
  0
LINE
  8
0
 10
54.5166
 20
4.92799
 11
49.1636
 21
4.92799
  0
LINE
  8
0
 10
49.1636
 20
4.92799
 11
49.1636
 21
8.478
  0
LINE
  8
0
 10
49.1636
 20
8.478
 11
54.6796
 21
8.478
  0
LINE
  8
0
 10
54.6796
 20
8.478
 11
54.6796
 21
9.536
  0
LINE
  8
0
 10
54.6796
 20
9.536
 11
47.8686
 21
9.536
  0
LINE
  8
0
 10
47.8686
 20
9.536
 11
47.8686
 21
0
  0
LINE
  8
0
 10
47.8686
 20
0
 11
49.1636
 21
0
  0
LINE
  8
0
 10
49.1636
 20
0
 11
49.1636
 21
3.85699
  0
ENDSEC
  0
SECTION
  2
OBJECTS
  0
DICTIONARY
  0
ENDSEC
  0
EOF
