  0
SECTION
  2
BLOCKS
  0
ENDSEC
  0
SECTION
  2
ENTITIES
  0
LINE
  8
0
 10
4.32742
 20
-0.0880585
 11
4.83675
 21
0.0317383
  0
LINE
  8
0
 10
4.83675
 20
0.0317383
 11
5.29494
 21
0.23143
  0
LINE
  8
0
 10
5.29494
 20
0.23143
 11
5.702
 21
0.510986
  0
LINE
  8
0
 10
5.702
 20
0.510986
 11
6.04474
 21
0.857559
  0
LINE
  8
0
 10
6.04474
 20
0.857559
 11
6.31
 21
1.25824
  0
LINE
  8
0
 10
6.31
 20
1.25824
 11
6.49774
 21
1.71306
  0
LINE
  8
0
 10
6.49774
 20
1.71306
 11
6.60799
 21
2.22198
  0
LINE
  8
0
 10
6.60799
 20
2.22198
 11
5.37399
 21
2.30399
  0
LINE
  8
0
 10
5.37399
 20
2.30399
 11
5.30136
 21
1.95418
  0
LINE
  8
0
 10
5.30136
 20
1.95418
 11
5.18649
 21
1.65274
  0
LINE
  8
0
 10
5.18649
 20
1.65274
 11
5.02937
 21
1.39967
  0
LINE
  8
0
 10
5.02937
 20
1.39967
 11
4.82999
 21
1.19499
  0
LINE
  8
0
 10
4.82999
 20
1.19499
 11
4.5965
 21
1.03749
  0
LINE
  8
0
 10
4.5965
 20
1.03749
 11
4.336
 21
0.924988
  0
LINE
  8
0
 10
4.336
 20
0.924988
 11
4.04849
 21
0.857498
  0
LINE
  8
0
 10
4.04849
 20
0.857498
 11
3.73399
 21
0.834991
  0
LINE
  8
0
 10
3.73399
 20
0.834991
 11
3.295
 21
0.87912
  0
LINE
  8
0
 10
3.295
 20
0.87912
 11
2.91499
 21
1.01149
  0
LINE
  8
0
 10
2.91499
 20
1.01149
 11
2.59399
 21
1.23212
  0
LINE
  8
0
 10
2.59399
 20
1.23212
 11
2.33199
 21
1.54099
  0
LINE
  8
0
 10
2.33199
 20
1.54099
 11
2.129
 21
1.94156
  0
LINE
  8
0
 10
2.129
 20
1.94156
 11
1.98399
 21
2.43724
  0
LINE
  8
0
 10
1.98399
 20
2.43724
 11
1.89699
 21
3.02806
  0
LINE
  8
0
 10
1.89699
 20
3.02806
 11
1.868
 21
3.71399
  0
LINE
  8
0
 10
1.868
 20
3.71399
 11
1.89531
 21
4.42281
  0
LINE
  8
0
 10
1.89531
 20
4.42281
 11
1.97725
 21
5.02124
  0
LINE
  8
0
 10
1.97725
 20
5.02124
 11
2.1138
 21
5.50931
  0
LINE
  8
0
 10
2.1138
 20
5.50931
 11
2.30499
 21
5.88699
  0
LINE
  8
0
 10
2.30499
 20
5.88699
 11
2.55768
 21
6.16917
  0
LINE
  8
0
 10
2.55768
 20
6.16917
 11
2.87775
 21
6.37074
  0
LINE
  8
0
 10
2.87775
 20
6.37074
 11
3.26518
 21
6.49168
  0
LINE
  8
0
 10
3.26518
 20
6.49168
 11
3.71999
 21
6.532
  0
LINE
  8
0
 10
3.71999
 20
6.532
 11
4.05843
 21
6.50919
  0
LINE
  8
0
 10
4.05843
 20
6.50919
 11
4.35574
 21
6.44073
  0
LINE
  8
0
 10
4.35574
 20
6.44073
 11
4.61192
 21
6.32668
  0
LINE
  8
0
 10
4.61192
 20
6.32668
 11
4.827
 21
6.16699
  0
LINE
  8
0
 10
4.827
 20
6.16699
 11
5.00362
 21
5.96906
  0
LINE
  8
0
 10
5.00362
 20
5.96906
 11
5.14349
 21
5.73924
  0
LINE
  8
0
 10
5.14349
 20
5.73924
 11
5.24661
 21
5.47755
  0
LINE
  8
0
 10
5.24661
 20
5.47755
 11
5.31299
 21
5.18399
  0
LINE
  8
0
 10
5.31299
 20
5.18399
 11
6.56699
 21
5.28
  0
LINE
  8
0
 10
6.56699
 20
5.28
 11
6.4368
 21
5.76825
  0
LINE
  8
0
 10
6.4368
 20
5.76825
 11
6.23724
 21
6.20099
  0
LINE
  8
0
 10
6.23724
 20
6.20099
 11
5.96831
 21
6.57825
  0
LINE
  8
0
 10
5.96831
 20
6.57825
 11
5.62999
 21
6.89999
  0
LINE
  8
0
 10
5.62999
 20
6.89999
 11
5.23299
 21
7.15724
  0
LINE
  8
0
 10
5.23299
 20
7.15724
 11
4.78799
 21
7.34099
  0
LINE
  8
0
 10
4.78799
 20
7.34099
 11
4.295
 21
7.45125
  0
LINE
  8
0
 10
4.295
 20
7.45125
 11
3.754
 21
7.48799
  0
LINE
  8
0
 10
3.754
 20
7.48799
 11
3.03525
 21
7.42712
  0
LINE
  8
0
 10
3.03525
 20
7.42712
 11
2.405
 21
7.24449
  0
LINE
  8
0
 10
2.405
 20
7.24449
 11
1.86324
 21
6.94012
  0
LINE
  8
0
 10
1.86324
 20
6.94012
 11
1.40999
 21
6.51399
  0
LINE
  8
0
 10
1.40999
 20
6.51399
 11
1.05255
 21
5.97206
  0
LINE
  8
0
 10
1.05255
 20
5.97206
 11
0.797241
 21
5.32024
  0
LINE
  8
0
 10
0.797241
 20
5.32024
 11
0.644058
 21
4.55855
  0
LINE
  8
0
 10
0.644058
 20
4.55855
 11
0.592987
 21
3.687
  0
LINE
  8
0
 10
0.592987
 20
3.687
 11
0.64386
 21
2.80931
  0
LINE
  8
0
 10
0.64386
 20
2.80931
 11
0.796494
 21
2.04324
  0
LINE
  8
0
 10
0.796494
 20
2.04324
 11
1.05087
 21
1.38881
  0
LINE
  8
0
 10
1.05087
 20
1.38881
 11
1.407
 21
0.845993
  0
LINE
  8
0
 10
1.407
 20
0.845993
 11
1.85974
 21
0.419861
  0
LINE
  8
0
 10
1.85974
 20
0.419861
 11
2.40399
 21
0.115494
  0
LINE
  8
0
 10
2.40399
 20
0.115494
 11
3.03975
 21
-0.0671234
  0
LINE
  8
0
 10
3.03975
 20
-0.0671234
 11
3.767
 21
-0.127991
  0
LINE
  8
0
 10
3.767
 20
-0.127991
 11
4.32742
 21
-0.0880585
  0
ENDSEC
  0
SECTION
  2
OBJECTS
  0
DICTIONARY
  0
ENDSEC
  0
EOF
