  0
SECTION
  2
BLOCKS
  0
ENDSEC
  0
SECTION
  2
ENTITIES
  0
LINE
  8
0
 10
39.3961
 20
6.47198
 11
40.8131
 21
6.47198
  0
LINE
  8
0
 10
40.8131
 20
6.47198
 11
40.8131
 21
7.35999
  0
LINE
  8
0
 10
40.8131
 20
7.35999
 11
39.3961
 21
7.35999
  0
LINE
  8
0
 10
39.3961
 20
7.35999
 11
39.3961
 21
8.00899
  0
LINE
  8
0
 10
39.3961
 20
8.00899
 11
39.4091
 21
8.29268
  0
LINE
  8
0
 10
39.4091
 20
8.29268
 11
39.4481
 21
8.52875
  0
LINE
  8
0
 10
39.4481
 20
8.52875
 11
39.5131
 21
8.71718
  0
LINE
  8
0
 10
39.5131
 20
8.71718
 11
39.6041
 21
8.85799
  0
LINE
  8
0
 10
39.6041
 20
8.85799
 11
39.7241
 21
8.96037
  0
LINE
  8
0
 10
39.7241
 20
8.96037
 11
39.8761
 21
9.03349
  0
LINE
  8
0
 10
39.8761
 20
9.03349
 11
40.0601
 21
9.07736
  0
LINE
  8
0
 10
40.0601
 20
9.07736
 11
40.2761
 21
9.092
  0
LINE
  8
0
 10
40.2761
 20
9.092
 11
40.3978
 21
9.08856
  0
LINE
  8
0
 10
40.3978
 20
9.08856
 11
40.5279
 21
9.07825
  0
LINE
  8
0
 10
40.5279
 20
9.07825
 11
40.6663
 21
9.06105
  0
LINE
  8
0
 10
40.6663
 20
9.06105
 11
40.8131
 21
9.03699
  0
LINE
  8
0
 10
40.8131
 20
9.03699
 11
40.8131
 21
9.967
  0
LINE
  8
0
 10
40.8131
 20
9.967
 11
40.6279
 21
10.0024
  0
LINE
  8
0
 10
40.6279
 20
10.0024
 11
40.4234
 21
10.0277
  0
LINE
  8
0
 10
40.4234
 20
10.0277
 11
40.1994
 21
10.0429
  0
LINE
  8
0
 10
40.1994
 20
10.0429
 11
39.9561
 21
10.048
  0
LINE
  8
0
 10
39.9561
 20
10.048
 11
39.5332
 21
10.0207
  0
LINE
  8
0
 10
39.5332
 20
10.0207
 11
39.1684
 21
9.93874
  0
LINE
  8
0
 10
39.1684
 20
9.93874
 11
38.8617
 21
9.80219
  0
LINE
  8
0
 10
38.8617
 20
9.80219
 11
38.6131
 21
9.61099
  0
LINE
  8
0
 10
38.6131
 20
9.61099
 11
38.4215
 21
9.35768
  0
LINE
  8
0
 10
38.4215
 20
9.35768
 11
38.2846
 21
9.03474
  0
LINE
  8
0
 10
38.2846
 20
9.03474
 11
38.2025
 21
8.64218
  0
LINE
  8
0
 10
38.2025
 20
8.64218
 11
38.1751
 21
8.17999
  0
LINE
  8
0
 10
38.1751
 20
8.17999
 11
38.1751
 21
7.35999
  0
LINE
  8
0
 10
38.1751
 20
7.35999
 11
37.1491
 21
7.35999
  0
LINE
  8
0
 10
37.1491
 20
7.35999
 11
37.1491
 21
6.47198
  0
LINE
  8
0
 10
37.1491
 20
6.47198
 11
38.1751
 21
6.47198
  0
LINE
  8
0
 10
38.1751
 20
6.47198
 11
38.1751
 21
0
  0
LINE
  8
0
 10
38.1751
 20
0
 11
39.3961
 21
0
  0
LINE
  8
0
 10
39.3961
 20
0
 11
39.3961
 21
6.47198
  0
LINE
  8
0
 10
50.4506
 20
4.336
 11
50.4832
 21
4.81656
  0
LINE
  8
0
 10
50.4832
 20
4.81656
 11
50.5809
 21
5.24524
  0
LINE
  8
0
 10
50.5809
 20
5.24524
 11
50.7437
 21
5.62206
  0
LINE
  8
0
 10
50.7437
 20
5.62206
 11
50.9716
 21
5.94699
  0
LINE
  8
0
 10
50.9716
 20
5.94699
 11
51.2537
 21
6.20862
  0
LINE
  8
0
 10
51.2537
 20
6.20862
 11
51.5789
 21
6.39549
  0
LINE
  8
0
 10
51.5789
 20
6.39549
 11
51.9472
 21
6.50761
  0
LINE
  8
0
 10
51.9472
 20
6.50761
 11
52.3586
 21
6.545
  0
LINE
  8
0
 10
52.3586
 20
6.545
 11
52.6324
 21
6.53394
  0
LINE
  8
0
 10
52.6324
 20
6.53394
 11
52.8746
 21
6.50075
  0
LINE
  8
0
 10
52.8746
 20
6.50075
 11
53.0854
 21
6.44543
  0
LINE
  8
0
 10
53.0854
 20
6.44543
 11
53.2646
 21
6.368
  0
LINE
  8
0
 10
53.2646
 20
6.368
 11
53.4166
 21
6.26736
  0
LINE
  8
0
 10
53.4166
 20
6.26736
 11
53.5456
 21
6.14149
  0
LINE
  8
0
 10
53.5456
 20
6.14149
 11
53.6516
 21
5.99037
  0
LINE
  8
0
 10
53.6516
 20
5.99037
 11
53.7346
 21
5.814
  0
LINE
  8
0
 10
53.7346
 20
5.814
 11
53.7972
 21
5.60062
  0
LINE
  8
0
 10
53.7972
 20
5.60062
 11
53.8419
 21
5.33749
  0
LINE
  8
0
 10
53.8419
 20
5.33749
 11
53.8687
 21
5.02461
  0
LINE
  8
0
 10
53.8687
 20
5.02461
 11
53.8776
 21
4.66199
  0
LINE
  8
0
 10
53.8776
 20
4.66199
 11
53.8776
 21
0
  0
LINE
  8
0
 10
53.8776
 20
0
 11
55.1046
 21
0
  0
LINE
  8
0
 10
55.1046
 20
0
 11
55.1046
 21
4.89899
  0
LINE
  8
0
 10
55.1046
 20
4.89899
 11
55.0691
 21
5.54861
  0
LINE
  8
0
 10
55.0691
 20
5.54861
 11
54.9626
 21
6.09749
  0
LINE
  8
0
 10
54.9626
 20
6.09749
 11
54.7851
 21
6.54562
  0
LINE
  8
0
 10
54.7851
 20
6.54562
 11
54.5366
 21
6.89299
  0
LINE
  8
0
 10
54.5366
 20
6.89299
 11
54.2133
 21
7.15331
  0
LINE
  8
0
 10
54.2133
 20
7.15331
 11
53.8111
 21
7.33925
  0
LINE
  8
0
 10
53.8111
 20
7.33925
 11
53.3303
 21
7.45081
  0
LINE
  8
0
 10
53.3303
 20
7.45081
 11
52.7706
 21
7.48799
  0
LINE
  8
0
 10
52.7706
 20
7.48799
 11
52.3641
 21
7.46693
  0
LINE
  8
0
 10
52.3641
 20
7.46693
 11
51.9944
 21
7.40375
  0
LINE
  8
0
 10
51.9944
 20
7.40375
 11
51.6616
 21
7.29843
  0
LINE
  8
0
 10
51.6616
 20
7.29843
 11
51.3656
 21
7.15099
  0
LINE
  8
0
 10
51.3656
 20
7.15099
 11
51.0986
 21
6.959
  0
LINE
  8
0
 10
51.0986
 20
6.959
 11
50.8514
 21
6.71899
  0
LINE
  8
0
 10
50.8514
 20
6.71899
 11
50.6241
 21
6.431
  0
LINE
  8
0
 10
50.6241
 20
6.431
 11
50.4166
 21
6.09499
  0
LINE
  8
0
 10
50.4166
 20
6.09499
 11
50.3956
 21
6.09499
  0
LINE
  8
0
 10
50.3956
 20
6.09499
 11
50.4157
 21
6.40417
  0
LINE
  8
0
 10
50.4157
 20
6.40417
 11
50.4371
 21
6.81731
  0
LINE
  8
0
 10
50.4371
 20
6.81731
 11
50.4446
 21
7.03125
  0
LINE
  8
0
 10
50.4446
 20
7.03125
 11
50.4491
 21
7.24181
  0
LINE
  8
0
 10
50.4491
 20
7.24181
 11
50.4506
 21
7.44899
  0
LINE
  8
0
 10
50.4506
 20
7.44899
 11
50.4506
 21
10.048
  0
LINE
  8
0
 10
50.4506
 20
10.048
 11
49.2296
 21
10.048
  0
LINE
  8
0
 10
49.2296
 20
10.048
 11
49.2296
 21
0
  0
LINE
  8
0
 10
49.2296
 20
0
 11
50.4506
 21
0
  0
LINE
  8
0
 10
50.4506
 20
0
 11
50.4506
 21
4.336
  0
LINE
  8
0
 10
57.9536
 20
10.048
 11
56.7326
 21
10.048
  0
LINE
  8
0
 10
56.7326
 20
10.048
 11
56.7326
 21
8.88199
  0
LINE
  8
0
 10
56.7326
 20
8.88199
 11
57.9536
 21
8.88199
  0
LINE
  8
0
 10
57.9536
 20
8.88199
 11
57.9536
 21
10.048
  0
LINE
  8
0
 10
25.5574
 20
-0.108932
 11
25.9219
 21
-0.0517426
  0
LINE
  8
0
 10
25.9219
 20
-0.0517426
 11
26.2529
 21
0.0435486
  0
LINE
  8
0
 10
26.2529
 20
0.0435486
 11
26.5502
 21
0.176987
  0
LINE
  8
0
 10
26.5502
 20
0.176987
 11
26.8173
 21
0.354996
  0
LINE
  8
0
 10
26.8173
 20
0.354996
 11
27.0567
 21
0.582993
  0
LINE
  8
0
 10
27.0567
 20
0.582993
 11
27.2683
 21
0.860992
  0
LINE
  8
0
 10
27.2683
 20
0.860992
 11
27.4522
 21
1.189
  0
LINE
  8
0
 10
27.4522
 20
1.189
 11
27.4792
 21
1.189
  0
LINE
  8
0
 10
27.4792
 20
1.189
 11
27.4807
 21
1.03862
  0
LINE
  8
0
 10
27.4807
 20
1.03862
 11
27.4852
 21
0.874496
  0
LINE
  8
0
 10
27.4852
 20
0.874496
 11
27.4927
 21
0.696625
  0
LINE
  8
0
 10
27.4927
 20
0.696625
 11
27.5149
 21
0.324936
  0
LINE
  8
0
 10
27.5149
 20
0.324936
 11
27.5262
 21
0.18074
  0
LINE
  8
0
 10
27.5262
 20
0.18074
 11
27.5369
 21
0.0724335
  0
LINE
  8
0
 10
27.5369
 20
0.0724335
 11
27.5472
 21
0
  0
LINE
  8
0
 10
27.5472
 20
0
 11
28.7142
 21
0
  0
LINE
  8
0
 10
28.7142
 20
0
 11
28.6962
 21
0.231613
  0
LINE
  8
0
 10
28.6962
 20
0.231613
 11
28.6834
 21
0.560486
  0
LINE
  8
0
 10
28.6834
 20
0.560486
 11
28.6757
 21
0.986618
  0
LINE
  8
0
 10
28.6757
 20
0.986618
 11
28.6732
 21
1.50999
  0
LINE
  8
0
 10
28.6732
 20
1.50999
 11
28.6732
 21
10.048
  0
LINE
  8
0
 10
28.6732
 20
10.048
 11
27.4522
 21
10.048
  0
LINE
  8
0
 10
27.4522
 20
10.048
 11
27.4522
 21
7.02599
  0
LINE
  8
0
 10
27.4522
 20
7.02599
 11
27.4662
 21
6.21199
  0
LINE
  8
0
 10
27.4662
 20
6.21199
 11
27.4522
 21
6.21199
  0
LINE
  8
0
 10
27.4522
 20
6.21199
 11
27.2686
 21
6.52199
  0
LINE
  8
0
 10
27.2686
 20
6.52199
 11
27.0577
 21
6.78699
  0
LINE
  8
0
 10
27.0577
 20
6.78699
 11
26.8195
 21
7.00699
  0
LINE
  8
0
 10
26.8195
 20
7.00699
 11
26.5542
 21
7.18199
  0
LINE
  8
0
 10
26.5542
 20
7.18199
 11
26.2577
 21
7.31587
  0
LINE
  8
0
 10
26.2577
 20
7.31587
 11
25.9264
 21
7.4115
  0
LINE
  8
0
 10
25.9264
 20
7.4115
 11
25.5602
 21
7.46887
  0
LINE
  8
0
 10
25.5602
 20
7.46887
 11
25.1592
 21
7.48799
  0
LINE
  8
0
 10
25.1592
 20
7.48799
 11
23.9749
 21
7.24786
  0
LINE
  8
0
 10
23.9749
 20
7.24786
 11
23.1289
 21
6.5275
  0
LINE
  8
0
 10
23.1289
 20
6.5275
 11
22.6214
 21
5.32687
  0
LINE
  8
0
 10
22.6214
 20
5.32687
 11
22.4522
 21
3.646
  0
LINE
  8
0
 10
22.4522
 20
3.646
 11
22.4932
 21
2.75574
  0
LINE
  8
0
 10
22.4932
 20
2.75574
 11
22.6162
 21
1.98599
  0
LINE
  8
0
 10
22.6162
 20
1.98599
 11
22.8212
 21
1.33675
  0
LINE
  8
0
 10
22.8212
 20
1.33675
 11
23.1082
 21
0.807999
  0
LINE
  8
0
 10
23.1082
 20
0.807999
 11
23.4827
 21
0.398499
  0
LINE
  8
0
 10
23.4827
 20
0.398499
 11
23.9494
 21
0.105988
  0
LINE
  8
0
 10
23.9494
 20
0.105988
 11
24.5082
 21
-0.0694885
  0
LINE
  8
0
 10
24.5082
 20
-0.0694885
 11
25.1592
 21
-0.127991
  0
LINE
  8
0
 10
25.1592
 20
-0.127991
 11
25.5574
 21
-0.108932
  0
LINE
  8
0
 10
25.0426
 20
0.856552
 11
24.6787
 21
0.981247
  0
LINE
  8
0
 10
24.6787
 20
0.981247
 11
24.3786
 21
1.18906
  0
LINE
  8
0
 10
24.3786
 20
1.18906
 11
24.1422
 21
1.48
  0
LINE
  8
0
 10
24.1422
 20
1.48
 11
23.9637
 21
1.86768
  0
LINE
  8
0
 10
23.9637
 20
1.86768
 11
23.8362
 21
2.36475
  0
LINE
  8
0
 10
23.8362
 20
2.36475
 11
23.7597
 21
2.97118
  0
LINE
  8
0
 10
23.7597
 20
2.97118
 11
23.7342
 21
3.687
  0
LINE
  8
0
 10
23.7342
 20
3.687
 11
23.7599
 21
4.40074
  0
LINE
  8
0
 10
23.7599
 20
4.40074
 11
23.8372
 21
5.008
  0
LINE
  8
0
 10
23.8372
 20
5.008
 11
23.9659
 21
5.50874
  0
LINE
  8
0
 10
23.9659
 20
5.50874
 11
24.1462
 21
5.903
  0
LINE
  8
0
 10
24.1462
 20
5.903
 11
24.3843
 21
6.2018
  0
LINE
  8
0
 10
24.3843
 20
6.2018
 11
24.6867
 21
6.41524
  0
LINE
  8
0
 10
24.6867
 20
6.41524
 11
25.0533
 21
6.5433
  0
LINE
  8
0
 10
25.0533
 20
6.5433
 11
25.4842
 21
6.586
  0
LINE
  8
0
 10
25.4842
 20
6.586
 11
25.9633
 21
6.54355
  0
LINE
  8
0
 10
25.9633
 20
6.54355
 11
26.3727
 21
6.41624
  0
LINE
  8
0
 10
26.3727
 20
6.41624
 11
26.7123
 21
6.20406
  0
LINE
  8
0
 10
26.7123
 20
6.20406
 11
26.9822
 21
5.907
  0
LINE
  8
0
 10
26.9822
 20
5.907
 11
27.1878
 21
5.51868
  0
LINE
  8
0
 10
27.1878
 20
5.51868
 11
27.3347
 21
5.03275
  0
LINE
  8
0
 10
27.3347
 20
5.03275
 11
27.4228
 21
4.44917
  0
LINE
  8
0
 10
27.4228
 20
4.44917
 11
27.4522
 21
3.76799
  0
LINE
  8
0
 10
27.4522
 20
3.76799
 11
27.4228
 21
3.06062
  0
LINE
  8
0
 10
27.4228
 20
3.06062
 11
27.3347
 21
2.4525
  0
LINE
  8
0
 10
27.3347
 20
2.4525
 11
27.1878
 21
1.94362
  0
LINE
  8
0
 10
27.1878
 20
1.94362
 11
26.9822
 21
1.534
  0
LINE
  8
0
 10
26.9822
 20
1.534
 11
26.7114
 21
1.21944
  0
LINE
  8
0
 10
26.7114
 20
1.21944
 11
26.3692
 21
0.994736
  0
LINE
  8
0
 10
26.3692
 20
0.994736
 11
25.9554
 21
0.859924
  0
LINE
  8
0
 10
25.9554
 20
0.859924
 11
25.4702
 21
0.814987
  0
LINE
  8
0
 10
25.4702
 20
0.814987
 11
25.0426
 21
0.856552
  0
LINE
  8
0
 10
13.1787
 20
0.112122
 11
14.025
 21
0.832489
  0
LINE
  8
0
 10
14.025
 20
0.832489
 11
14.5327
 21
2.03311
  0
LINE
  8
0
 10
14.5327
 20
2.03311
 11
14.702
 21
3.71399
  0
LINE
  8
0
 10
14.702
 20
3.71399
 11
14.6609
 21
4.60419
  0
LINE
  8
0
 10
14.6609
 20
4.60419
 11
14.5377
 21
5.37375
  0
LINE
  8
0
 10
14.5377
 20
5.37375
 11
14.3324
 21
6.02267
  0
LINE
  8
0
 10
14.3324
 20
6.02267
 11
14.045
 21
6.55099
  0
LINE
  8
0
 10
14.045
 20
6.55099
 11
13.6708
 21
6.96094
  0
LINE
  8
0
 10
13.6708
 20
6.96094
 11
13.2042
 21
7.25374
  0
LINE
  8
0
 10
13.2042
 20
7.25374
 11
12.6453
 21
7.42943
  0
LINE
  8
0
 10
12.6453
 20
7.42943
 11
11.994
 21
7.48799
  0
LINE
  8
0
 10
11.994
 20
7.48799
 11
11.5957
 21
7.46887
  0
LINE
  8
0
 10
11.5957
 20
7.46887
 11
11.231
 21
7.4115
  0
LINE
  8
0
 10
11.231
 20
7.4115
 11
10.8997
 21
7.31587
  0
LINE
  8
0
 10
10.8997
 20
7.31587
 11
10.602
 21
7.18199
  0
LINE
  8
0
 10
10.602
 20
7.18199
 11
10.3353
 21
7.00443
  0
LINE
  8
0
 10
10.3353
 20
7.00443
 11
10.0962
 21
6.77675
  0
LINE
  8
0
 10
10.0962
 20
6.77675
 11
9.88478
 21
6.49893
  0
LINE
  8
0
 10
9.88478
 20
6.49893
 11
9.70096
 21
6.17099
  0
LINE
  8
0
 10
9.70096
 20
6.17099
 11
9.67397
 21
6.17099
  0
LINE
  8
0
 10
9.67397
 20
6.17099
 11
9.68578
 21
6.45737
  0
LINE
  8
0
 10
9.68578
 20
6.45737
 11
9.69421
 21
6.72449
  0
LINE
  8
0
 10
9.69421
 20
6.72449
 11
9.69928
 21
6.97237
  0
LINE
  8
0
 10
9.69928
 20
6.97237
 11
9.70096
 21
7.20099
  0
LINE
  8
0
 10
9.70096
 20
7.20099
 11
9.70096
 21
10.048
  0
LINE
  8
0
 10
9.70096
 20
10.048
 11
8.48096
 21
10.048
  0
LINE
  8
0
 10
8.48096
 20
10.048
 11
8.48096
 21
1.50999
  0
LINE
  8
0
 10
8.48096
 20
1.50999
 11
8.47839
 21
0.986618
  0
LINE
  8
0
 10
8.47839
 20
0.986618
 11
8.47072
 21
0.560486
  0
LINE
  8
0
 10
8.47072
 20
0.560486
 11
8.4579
 21
0.231613
  0
LINE
  8
0
 10
8.4579
 20
0.231613
 11
8.43996
 21
0
  0
LINE
  8
0
 10
8.43996
 20
0
 11
9.61996
 21
0
  0
LINE
  8
0
 10
9.61996
 20
0
 11
9.62733
 21
0.0568695
  0
LINE
  8
0
 10
9.62733
 20
0.0568695
 11
9.64734
 21
0.307861
  0
LINE
  8
0
 10
9.64734
 20
0.307861
 11
9.67177
 21
0.705124
  0
LINE
  8
0
 10
9.67177
 20
0.705124
 11
9.68021
 21
0.880493
  0
LINE
  8
0
 10
9.68021
 20
0.880493
 11
9.68527
 21
1.02812
  0
LINE
  8
0
 10
9.68527
 20
1.02812
 11
9.68697
 21
1.14799
  0
LINE
  8
0
 10
9.68697
 20
1.14799
 11
9.70096
 21
1.14799
  0
LINE
  8
0
 10
9.70096
 20
1.14799
 11
9.88741
 21
0.835114
  0
LINE
  8
0
 10
9.88741
 20
0.835114
 11
10.0997
 21
0.568497
  0
LINE
  8
0
 10
10.0997
 20
0.568497
 11
10.3379
 21
0.348114
  0
LINE
  8
0
 10
10.3379
 20
0.348114
 11
10.602
 21
0.173996
  0
LINE
  8
0
 10
10.602
 20
0.173996
 11
10.8971
 21
0.0418701
  0
LINE
  8
0
 10
10.8971
 20
0.0418701
 11
11.2275
 21
-0.0524902
  0
LINE
  8
0
 10
11.2275
 20
-0.0524902
 11
11.5931
 21
-0.109116
  0
LINE
  8
0
 10
11.5931
 20
-0.109116
 11
11.994
 21
-0.127991
  0
LINE
  8
0
 10
11.994
 20
-0.127991
 11
13.1787
 21
0.112122
  0
LINE
  8
0
 10
11.1841
 20
0.817062
 11
10.7717
 21
0.946243
  0
LINE
  8
0
 10
10.7717
 20
0.946243
 11
10.4317
 21
1.16156
  0
LINE
  8
0
 10
10.4317
 20
1.16156
 11
10.164
 21
1.463
  0
LINE
  8
0
 10
10.164
 20
1.463
 11
9.9614
 21
1.8548
  0
LINE
  8
0
 10
9.9614
 20
1.8548
 11
9.81671
 21
2.34125
  0
LINE
  8
0
 10
9.81671
 20
2.34125
 11
9.7299
 21
2.9223
  0
LINE
  8
0
 10
9.7299
 20
2.9223
 11
9.70096
 21
3.59799
  0
LINE
  8
0
 10
9.70096
 20
3.59799
 11
9.73053
 21
4.31367
  0
LINE
  8
0
 10
9.73053
 20
4.31367
 11
9.81921
 21
4.92574
  0
LINE
  8
0
 10
9.81921
 20
4.92574
 11
9.96703
 21
5.43417
  0
LINE
  8
0
 10
9.96703
 20
5.43417
 11
10.174
 21
5.83899
  0
LINE
  8
0
 10
10.174
 20
5.83899
 11
10.446
 21
6.14787
  0
LINE
  8
0
 10
10.446
 20
6.14787
 11
10.7882
 21
6.3685
  0
LINE
  8
0
 10
10.7882
 20
6.3685
 11
11.2005
 21
6.50087
  0
LINE
  8
0
 10
11.2005
 20
6.50087
 11
11.683
 21
6.545
  0
LINE
  8
0
 10
11.683
 20
6.545
 11
12.111
 21
6.50337
  0
LINE
  8
0
 10
12.111
 20
6.50337
 11
12.475
 21
6.37849
  0
LINE
  8
0
 10
12.475
 20
6.37849
 11
12.775
 21
6.17036
  0
LINE
  8
0
 10
12.775
 20
6.17036
 11
13.011
 21
5.879
  0
LINE
  8
0
 10
13.011
 20
5.879
 11
13.1899
 21
5.49174
  0
LINE
  8
0
 10
13.1899
 20
5.49174
 11
13.3177
 21
4.995
  0
LINE
  8
0
 10
13.3177
 20
4.995
 11
13.3944
 21
4.38875
  0
LINE
  8
0
 10
13.3944
 20
4.38875
 11
13.42
 21
3.67299
  0
LINE
  8
0
 10
13.42
 20
3.67299
 11
13.3942
 21
2.95918
  0
LINE
  8
0
 10
13.3942
 20
2.95918
 11
13.317
 21
2.35175
  0
LINE
  8
0
 10
13.317
 20
2.35175
 11
13.1882
 21
1.85068
  0
LINE
  8
0
 10
13.1882
 20
1.85068
 11
13.008
 21
1.45599
  0
LINE
  8
0
 10
13.008
 20
1.45599
 11
12.7698
 21
1.15762
  0
LINE
  8
0
 10
12.7698
 20
1.15762
 11
12.4672
 21
0.944489
  0
LINE
  8
0
 10
12.4672
 20
0.944489
 11
12.1003
 21
0.81662
  0
LINE
  8
0
 10
12.1003
 20
0.81662
 11
11.669
 21
0.773987
  0
LINE
  8
0
 10
11.669
 20
0.773987
 11
11.1841
 21
0.817062
  0
LINE
  8
0
 10
60.9663
 20
10.048
 11
59.7453
 21
10.048
  0
LINE
  8
0
 10
59.7453
 20
10.048
 11
59.7453
 21
8.88199
  0
LINE
  8
0
 10
59.7453
 20
8.88199
 11
60.9663
 21
8.88199
  0
LINE
  8
0
 10
60.9663
 20
8.88199
 11
60.9663
 21
10.048
  0
LINE
  8
0
 10
63.993
 20
2.61899
 11
64.903
 21
3.35999
  0
LINE
  8
0
 10
64.903
 20
3.35999
 11
67.399
 21
0
  0
LINE
  8
0
 10
67.399
 20
0
 11
68.829
 21
0
  0
LINE
  8
0
 10
68.829
 20
0
 11
65.682
 21
4.19699
  0
LINE
  8
0
 10
65.682
 20
4.19699
 11
68.672
 21
7.35999
  0
LINE
  8
0
 10
68.672
 20
7.35999
 11
67.242
 21
7.35999
  0
LINE
  8
0
 10
67.242
 20
7.35999
 11
63.993
 21
3.78899
  0
LINE
  8
0
 10
63.993
 20
3.78899
 11
63.993
 21
10.048
  0
LINE
  8
0
 10
63.993
 20
10.048
 11
62.773
 21
10.048
  0
LINE
  8
0
 10
62.773
 20
10.048
 11
62.773
 21
0
  0
LINE
  8
0
 10
62.773
 20
0
 11
63.993
 21
0
  0
LINE
  8
0
 10
63.993
 20
0
 11
63.993
 21
2.61899
  0
LINE
  8
0
 10
70.7663
 20
10.048
 11
69.5462
 21
10.048
  0
LINE
  8
0
 10
69.5462
 20
10.048
 11
69.5462
 21
0
  0
LINE
  8
0
 10
69.5462
 20
0
 11
70.7663
 21
0
  0
LINE
  8
0
 10
70.7663
 20
0
 11
70.7663
 21
10.048
  0
LINE
  8
0
 10
127.217
 20
-0.117798
 11
127.526
 21
-0.0872498
  0
LINE
  8
0
 10
127.526
 20
-0.0872498
 11
127.831
 21
-0.0363007
  0
LINE
  8
0
 10
127.831
 20
-0.0363007
 11
128.133
 21
0.0349884
  0
LINE
  8
0
 10
128.133
 20
0.0349884
 11
128.133
 21
0.936996
  0
LINE
  8
0
 10
128.133
 20
0.936996
 11
127.918
 21
0.895432
  0
LINE
  8
0
 10
127.918
 20
0.895432
 11
127.73
 21
0.865738
  0
LINE
  8
0
 10
127.73
 20
0.865738
 11
127.569
 21
0.847931
  0
LINE
  8
0
 10
127.569
 20
0.847931
 11
127.435
 21
0.841995
  0
LINE
  8
0
 10
127.435
 20
0.841995
 11
127.238
 21
0.855423
  0
LINE
  8
0
 10
127.238
 20
0.855423
 11
127.074
 21
0.895737
  0
LINE
  8
0
 10
127.074
 20
0.895737
 11
126.941
 21
0.962936
  0
LINE
  8
0
 10
126.941
 20
0.962936
 11
126.84
 21
1.05699
  0
LINE
  8
0
 10
126.84
 20
1.05699
 11
126.765
 21
1.18437
  0
LINE
  8
0
 10
126.765
 20
1.18437
 11
126.711
 21
1.35149
  0
LINE
  8
0
 10
126.711
 20
1.35149
 11
126.679
 21
1.55836
  0
LINE
  8
0
 10
126.679
 20
1.55836
 11
126.669
 21
1.80499
  0
LINE
  8
0
 10
126.669
 20
1.80499
 11
126.669
 21
6.47198
  0
LINE
  8
0
 10
126.669
 20
6.47198
 11
128.011
 21
6.47198
  0
LINE
  8
0
 10
128.011
 20
6.47198
 11
128.011
 21
7.35999
  0
LINE
  8
0
 10
128.011
 20
7.35999
 11
126.669
 21
7.35999
  0
LINE
  8
0
 10
126.669
 20
7.35999
 11
126.669
 21
9.02399
  0
LINE
  8
0
 10
126.669
 20
9.02399
 11
125.855
 21
9.02399
  0
LINE
  8
0
 10
125.855
 20
9.02399
 11
125.495
 21
7.35999
  0
LINE
  8
0
 10
125.495
 20
7.35999
 11
124.6
 21
7.35999
  0
LINE
  8
0
 10
124.6
 20
7.35999
 11
124.6
 21
6.47198
  0
LINE
  8
0
 10
124.6
 20
6.47198
 11
125.448
 21
6.47198
  0
LINE
  8
0
 10
125.448
 20
6.47198
 11
125.448
 21
1.54399
  0
LINE
  8
0
 10
125.448
 20
1.54399
 11
125.539
 21
0.8125
  0
LINE
  8
0
 10
125.539
 20
0.8125
 11
125.812
 21
0.289993
  0
LINE
  8
0
 10
125.812
 20
0.289993
 11
126.267
 21
-0.0234985
  0
LINE
  8
0
 10
126.267
 20
-0.0234985
 11
126.905
 21
-0.127991
  0
LINE
  8
0
 10
126.905
 20
-0.127991
 11
127.217
 21
-0.117798
  0
LINE
  8
0
 10
73.8049
 20
4.26099
 11
73.8334
 21
4.77437
  0
LINE
  8
0
 10
73.8334
 20
4.77437
 11
73.9187
 21
5.22649
  0
LINE
  8
0
 10
73.9187
 20
5.22649
 11
74.0609
 21
5.61737
  0
LINE
  8
0
 10
74.0609
 20
5.61737
 11
74.2599
 21
5.94699
  0
LINE
  8
0
 10
74.2599
 20
5.94699
 11
74.5079
 21
6.20862
  0
LINE
  8
0
 10
74.5079
 20
6.20862
 11
74.7967
 21
6.39549
  0
LINE
  8
0
 10
74.7967
 20
6.39549
 11
75.1264
 21
6.50761
  0
LINE
  8
0
 10
75.1264
 20
6.50761
 11
75.4969
 21
6.545
  0
LINE
  8
0
 10
75.4969
 20
6.545
 11
75.8481
 21
6.51949
  0
LINE
  8
0
 10
75.8481
 20
6.51949
 11
76.1407
 21
6.44299
  0
LINE
  8
0
 10
76.1407
 20
6.44299
 11
76.3746
 21
6.31549
  0
LINE
  8
0
 10
76.3746
 20
6.31549
 11
76.5499
 21
6.13699
  0
LINE
  8
0
 10
76.5499
 20
6.13699
 11
76.6777
 21
5.8918
  0
LINE
  8
0
 10
76.6777
 20
5.8918
 11
76.769
 21
5.56424
  0
LINE
  8
0
 10
76.769
 20
5.56424
 11
76.8237
 21
5.15431
  0
LINE
  8
0
 10
76.8237
 20
5.15431
 11
76.8419
 21
4.66199
  0
LINE
  8
0
 10
76.8419
 20
4.66199
 11
76.8419
 21
0
  0
LINE
  8
0
 10
76.8419
 20
0
 11
78.049
 21
0
  0
LINE
  8
0
 10
78.049
 20
0
 11
78.049
 21
4.26099
  0
LINE
  8
0
 10
78.049
 20
4.26099
 11
78.0768
 21
4.77718
  0
LINE
  8
0
 10
78.0768
 20
4.77718
 11
78.1602
 21
5.23074
  0
LINE
  8
0
 10
78.1602
 20
5.23074
 11
78.2993
 21
5.62167
  0
LINE
  8
0
 10
78.2993
 20
5.62167
 11
78.4939
 21
5.95
  0
LINE
  8
0
 10
78.4939
 20
5.95
 11
78.7388
 21
6.21031
  0
LINE
  8
0
 10
78.7388
 20
6.21031
 11
79.0282
 21
6.39624
  0
LINE
  8
0
 10
79.0282
 20
6.39624
 11
79.3623
 21
6.50781
  0
LINE
  8
0
 10
79.3623
 20
6.50781
 11
79.741
 21
6.545
  0
LINE
  8
0
 10
79.741
 20
6.545
 11
80.0926
 21
6.51949
  0
LINE
  8
0
 10
80.0926
 20
6.51949
 11
80.3855
 21
6.44299
  0
LINE
  8
0
 10
80.3855
 20
6.44299
 11
80.6196
 21
6.31549
  0
LINE
  8
0
 10
80.6196
 20
6.31549
 11
80.795
 21
6.13699
  0
LINE
  8
0
 10
80.795
 20
6.13699
 11
80.9227
 21
5.8918
  0
LINE
  8
0
 10
80.9227
 20
5.8918
 11
81.0139
 21
5.56424
  0
LINE
  8
0
 10
81.0139
 20
5.56424
 11
81.0687
 21
5.15431
  0
LINE
  8
0
 10
81.0687
 20
5.15431
 11
81.0869
 21
4.66199
  0
LINE
  8
0
 10
81.0869
 20
4.66199
 11
81.0869
 21
0
  0
LINE
  8
0
 10
81.0869
 20
0
 11
82.2939
 21
0
  0
LINE
  8
0
 10
82.2939
 20
0
 11
82.2939
 21
4.89899
  0
LINE
  8
0
 10
82.2939
 20
4.89899
 11
82.2623
 21
5.5405
  0
LINE
  8
0
 10
82.2623
 20
5.5405
 11
82.1674
 21
6.08499
  0
LINE
  8
0
 10
82.1674
 20
6.08499
 11
82.0093
 21
6.53249
  0
LINE
  8
0
 10
82.0093
 20
6.53249
 11
81.7879
 21
6.883
  0
LINE
  8
0
 10
81.7879
 20
6.883
 11
81.4969
 21
7.14767
  0
LINE
  8
0
 10
81.4969
 20
7.14767
 11
81.1299
 21
7.33675
  0
LINE
  8
0
 10
81.1299
 20
7.33675
 11
80.687
 21
7.45018
  0
LINE
  8
0
 10
80.687
 20
7.45018
 11
80.1679
 21
7.48799
  0
LINE
  8
0
 10
80.1679
 20
7.48799
 11
79.7986
 21
7.46762
  0
LINE
  8
0
 10
79.7986
 20
7.46762
 11
79.4577
 21
7.40649
  0
LINE
  8
0
 10
79.4577
 20
7.40649
 11
79.1451
 21
7.30461
  0
LINE
  8
0
 10
79.1451
 20
7.30461
 11
78.8609
 21
7.16199
  0
LINE
  8
0
 10
78.8609
 20
7.16199
 11
78.6009
 21
6.97305
  0
LINE
  8
0
 10
78.6009
 20
6.97305
 11
78.3607
 21
6.73224
  0
LINE
  8
0
 10
78.3607
 20
6.73224
 11
78.1404
 21
6.43956
  0
LINE
  8
0
 10
78.1404
 20
6.43956
 11
77.9399
 21
6.09499
  0
LINE
  8
0
 10
77.9399
 20
6.09499
 11
77.92
 21
6.09499
  0
LINE
  8
0
 10
77.92
 20
6.09499
 11
77.8064
 21
6.43387
  0
LINE
  8
0
 10
77.8064
 20
6.43387
 11
77.6559
 21
6.7235
  0
LINE
  8
0
 10
77.6559
 20
6.7235
 11
77.4684
 21
6.96387
  0
LINE
  8
0
 10
77.4684
 20
6.96387
 11
77.2439
 21
7.155
  0
LINE
  8
0
 10
77.2439
 20
7.155
 11
76.9796
 21
7.30067
  0
LINE
  8
0
 10
76.9796
 20
7.30067
 11
76.6714
 21
7.40474
  0
LINE
  8
0
 10
76.6714
 20
7.40474
 11
76.3196
 21
7.46718
  0
LINE
  8
0
 10
76.3196
 20
7.46718
 11
75.924
 21
7.48799
  0
LINE
  8
0
 10
75.924
 20
7.48799
 11
75.571
 21
7.46887
  0
LINE
  8
0
 10
75.571
 20
7.46887
 11
75.2462
 21
7.4115
  0
LINE
  8
0
 10
75.2462
 20
7.4115
 11
74.9495
 21
7.31587
  0
LINE
  8
0
 10
74.9495
 20
7.31587
 11
74.6809
 21
7.18199
  0
LINE
  8
0
 10
74.6809
 20
7.18199
 11
74.4336
 21
6.9993
  0
LINE
  8
0
 10
74.4336
 20
6.9993
 11
74.2007
 21
6.75725
  0
LINE
  8
0
 10
74.2007
 20
6.75725
 11
73.9821
 21
6.45581
  0
LINE
  8
0
 10
73.9821
 20
6.45581
 11
73.7779
 21
6.09499
  0
LINE
  8
0
 10
73.7779
 20
6.09499
 11
73.7579
 21
6.09499
  0
LINE
  8
0
 10
73.7579
 20
6.09499
 11
73.7392
 21
6.71094
  0
LINE
  8
0
 10
73.7392
 20
6.71094
 11
73.7099
 21
7.29674
  0
LINE
  8
0
 10
73.7099
 20
7.29674
 11
73.7029
 21
7.35999
  0
LINE
  8
0
 10
73.7029
 20
7.35999
 11
72.5499
 21
7.35999
  0
LINE
  8
0
 10
72.5499
 20
7.35999
 11
72.5679
 21
7.15456
  0
LINE
  8
0
 10
72.5679
 20
7.15456
 11
72.5807
 21
6.82425
  0
LINE
  8
0
 10
72.5807
 20
6.82425
 11
72.5884
 21
6.36905
  0
LINE
  8
0
 10
72.5884
 20
6.36905
 11
72.5909
 21
5.78899
  0
LINE
  8
0
 10
72.5909
 20
5.78899
 11
72.5909
 21
0
  0
LINE
  8
0
 10
72.5909
 20
0
 11
73.8049
 21
0
  0
LINE
  8
0
 10
73.8049
 20
0
 11
73.8049
 21
4.26099
  0
LINE
  8
0
 10
85.1108
 20
4.26099
 11
85.1427
 21
4.76868
  0
LINE
  8
0
 10
85.1427
 20
4.76868
 11
85.2385
 21
5.21774
  0
LINE
  8
0
 10
85.2385
 20
5.21774
 11
85.3982
 21
5.60818
  0
LINE
  8
0
 10
85.3982
 20
5.60818
 11
85.6218
 21
5.93999
  0
LINE
  8
0
 10
85.6218
 20
5.93999
 11
85.9007
 21
6.20468
  0
LINE
  8
0
 10
85.9007
 20
6.20468
 11
86.2265
 21
6.39374
  0
LINE
  8
0
 10
86.2265
 20
6.39374
 11
86.5992
 21
6.50719
  0
LINE
  8
0
 10
86.5992
 20
6.50719
 11
87.0188
 21
6.545
  0
LINE
  8
0
 10
87.0188
 20
6.545
 11
87.3035
 21
6.53394
  0
LINE
  8
0
 10
87.3035
 20
6.53394
 11
87.5515
 21
6.50075
  0
LINE
  8
0
 10
87.5515
 20
6.50075
 11
87.763
 21
6.44543
  0
LINE
  8
0
 10
87.763
 20
6.44543
 11
87.9378
 21
6.368
  0
LINE
  8
0
 10
87.9378
 20
6.368
 11
88.0841
 21
6.26593
  0
LINE
  8
0
 10
88.0841
 20
6.26593
 11
88.209
 21
6.13574
  0
LINE
  8
0
 10
88.209
 20
6.13574
 11
88.3126
 21
5.97743
  0
LINE
  8
0
 10
88.3126
 20
5.97743
 11
88.3948
 21
5.79099
  0
LINE
  8
0
 10
88.3948
 20
5.79099
 11
88.4574
 21
5.57005
  0
LINE
  8
0
 10
88.4574
 20
5.57005
 11
88.502
 21
5.30824
  0
LINE
  8
0
 10
88.502
 20
5.30824
 11
88.5289
 21
5.00555
  0
LINE
  8
0
 10
88.5289
 20
5.00555
 11
88.5378
 21
4.66199
  0
LINE
  8
0
 10
88.5378
 20
4.66199
 11
88.5378
 21
0
  0
LINE
  8
0
 10
88.5378
 20
0
 11
89.7648
 21
0
  0
LINE
  8
0
 10
89.7648
 20
0
 11
89.7648
 21
4.89899
  0
LINE
  8
0
 10
89.7648
 20
4.89899
 11
89.7297
 21
5.54292
  0
LINE
  8
0
 10
89.7297
 20
5.54292
 11
89.6243
 21
6.08875
  0
LINE
  8
0
 10
89.6243
 20
6.08875
 11
89.4487
 21
6.53642
  0
LINE
  8
0
 10
89.4487
 20
6.53642
 11
89.2028
 21
6.88599
  0
LINE
  8
0
 10
89.2028
 20
6.88599
 11
88.8817
 21
7.14937
  0
LINE
  8
0
 10
88.8817
 20
7.14937
 11
88.4793
 21
7.33749
  0
LINE
  8
0
 10
88.4793
 20
7.33749
 11
87.9957
 21
7.45036
  0
LINE
  8
0
 10
87.9957
 20
7.45036
 11
87.4308
 21
7.48799
  0
LINE
  8
0
 10
87.4308
 20
7.48799
 11
87.036
 21
7.46825
  0
LINE
  8
0
 10
87.036
 20
7.46825
 11
86.6748
 21
7.409
  0
LINE
  8
0
 10
86.6748
 20
7.409
 11
86.347
 21
7.31024
  0
LINE
  8
0
 10
86.347
 20
7.31024
 11
86.0528
 21
7.172
  0
LINE
  8
0
 10
86.0528
 20
7.172
 11
85.7836
 21
6.98618
  0
LINE
  8
0
 10
85.7836
 20
6.98618
 11
85.5311
 21
6.74474
  0
LINE
  8
0
 10
85.5311
 20
6.74474
 11
85.2951
 21
6.44768
  0
LINE
  8
0
 10
85.2951
 20
6.44768
 11
85.0758
 21
6.09499
  0
LINE
  8
0
 10
85.0758
 20
6.09499
 11
85.0558
 21
6.09499
  0
LINE
  8
0
 10
85.0558
 20
6.09499
 11
85.037
 21
6.71094
  0
LINE
  8
0
 10
85.037
 20
6.71094
 11
85.0085
 21
7.29674
  0
LINE
  8
0
 10
85.0085
 20
7.29674
 11
85.0018
 21
7.35999
  0
LINE
  8
0
 10
85.0018
 20
7.35999
 11
83.8488
 21
7.35999
  0
LINE
  8
0
 10
83.8488
 20
7.35999
 11
83.8667
 21
7.15456
  0
LINE
  8
0
 10
83.8667
 20
7.15456
 11
83.8795
 21
6.82425
  0
LINE
  8
0
 10
83.8795
 20
6.82425
 11
83.8872
 21
6.36905
  0
LINE
  8
0
 10
83.8872
 20
6.36905
 11
83.8898
 21
5.78899
  0
LINE
  8
0
 10
83.8898
 20
5.78899
 11
83.8898
 21
0
  0
LINE
  8
0
 10
83.8898
 20
0
 11
85.1108
 21
0
  0
LINE
  8
0
 10
85.1108
 20
0
 11
85.1108
 21
4.26099
  0
LINE
  8
0
 10
95.0698
 20
-0.0690613
 11
95.7348
 21
0.107742
  0
LINE
  8
0
 10
95.7348
 20
0.107742
 11
96.3038
 21
0.402435
  0
LINE
  8
0
 10
96.3038
 20
0.402435
 11
96.7768
 21
0.814987
  0
LINE
  8
0
 10
96.7768
 20
0.814987
 11
97.1486
 21
1.3485
  0
LINE
  8
0
 10
97.1486
 20
1.3485
 11
97.4143
 21
2.00499
  0
LINE
  8
0
 10
97.4143
 20
2.00499
 11
97.5736
 21
2.78448
  0
LINE
  8
0
 10
97.5736
 20
2.78448
 11
97.6268
 21
3.687
  0
LINE
  8
0
 10
97.6268
 20
3.687
 11
97.577
 21
4.59712
  0
LINE
  8
0
 10
97.577
 20
4.59712
 11
97.4278
 21
5.37949
  0
LINE
  8
0
 10
97.4278
 20
5.37949
 11
97.179
 21
6.03412
  0
LINE
  8
0
 10
97.179
 20
6.03412
 11
96.8308
 21
6.56099
  0
LINE
  8
0
 10
96.8308
 20
6.56099
 11
96.3776
 21
6.96655
  0
LINE
  8
0
 10
96.3776
 20
6.96655
 11
95.813
 21
7.25624
  0
LINE
  8
0
 10
95.813
 20
7.25624
 11
95.1371
 21
7.43005
  0
LINE
  8
0
 10
95.1371
 20
7.43005
 11
94.3498
 21
7.48799
  0
LINE
  8
0
 10
94.3498
 20
7.48799
 11
92.9073
 21
7.25043
  0
LINE
  8
0
 10
92.9073
 20
7.25043
 11
91.877
 21
6.53773
  0
LINE
  8
0
 10
91.877
 20
6.53773
 11
91.2588
 21
5.34993
  0
LINE
  8
0
 10
91.2588
 20
5.34993
 11
91.0528
 21
3.687
  0
LINE
  8
0
 10
91.0528
 20
3.687
 11
91.1041
 21
2.81499
  0
LINE
  8
0
 10
91.1041
 20
2.81499
 11
91.2583
 21
2.05199
  0
LINE
  8
0
 10
91.2583
 20
2.05199
 11
91.5151
 21
1.39799
  0
LINE
  8
0
 10
91.5151
 20
1.39799
 11
91.8748
 21
0.852997
  0
LINE
  8
0
 10
91.8748
 20
0.852997
 11
92.3355
 21
0.423798
  0
LINE
  8
0
 10
92.3355
 20
0.423798
 11
92.8948
 21
0.117249
  0
LINE
  8
0
 10
92.8948
 20
0.117249
 11
93.5525
 21
-0.0666809
  0
LINE
  8
0
 10
93.5525
 20
-0.0666809
 11
94.3088
 21
-0.127991
  0
LINE
  8
0
 10
94.3088
 20
-0.127991
 11
95.0698
 21
-0.0690613
  0
LINE
  8
0
 10
93.8221
 20
0.819611
 11
93.4163
 21
0.956497
  0
LINE
  8
0
 10
93.4163
 20
0.956497
 11
93.0781
 21
1.18462
  0
LINE
  8
0
 10
93.0781
 20
1.18462
 11
92.8078
 21
1.504
  0
LINE
  8
0
 10
92.8078
 20
1.504
 11
92.6008
 21
1.91418
  0
LINE
  8
0
 10
92.6008
 20
1.91418
 11
92.453
 21
2.41475
  0
LINE
  8
0
 10
92.453
 20
2.41475
 11
92.3643
 21
3.00568
  0
LINE
  8
0
 10
92.3643
 20
3.00568
 11
92.3348
 21
3.687
  0
LINE
  8
0
 10
92.3348
 20
3.687
 11
92.3648
 21
4.38449
  0
LINE
  8
0
 10
92.3648
 20
4.38449
 11
92.4548
 21
4.98299
  0
LINE
  8
0
 10
92.4548
 20
4.98299
 11
92.6048
 21
5.4825
  0
LINE
  8
0
 10
92.6048
 20
5.4825
 11
92.8148
 21
5.883
  0
LINE
  8
0
 10
92.8148
 20
5.883
 11
93.092
 21
6.19055
  0
LINE
  8
0
 10
93.092
 20
6.19055
 11
93.4438
 21
6.41025
  0
LINE
  8
0
 10
93.4438
 20
6.41025
 11
93.87
 21
6.54205
  0
LINE
  8
0
 10
93.87
 20
6.54205
 11
94.3708
 21
6.586
  0
LINE
  8
0
 10
94.3708
 20
6.586
 11
94.8667
 21
6.54292
  0
LINE
  8
0
 10
94.8667
 20
6.54292
 11
95.2855
 21
6.41374
  0
LINE
  8
0
 10
95.2855
 20
6.41374
 11
95.6272
 21
6.19843
  0
LINE
  8
0
 10
95.6272
 20
6.19843
 11
95.8918
 21
5.89699
  0
LINE
  8
0
 10
95.8918
 20
5.89699
 11
96.09
 21
5.50049
  0
LINE
  8
0
 10
96.09
 20
5.50049
 11
96.2315
 21
5
  0
LINE
  8
0
 10
96.2315
 20
5
 11
96.3165
 21
4.39549
  0
LINE
  8
0
 10
96.3165
 20
4.39549
 11
96.3448
 21
3.687
  0
LINE
  8
0
 10
96.3448
 20
3.687
 11
96.3152
 21
2.98618
  0
LINE
  8
0
 10
96.3152
 20
2.98618
 11
96.2265
 21
2.38474
  0
LINE
  8
0
 10
96.2265
 20
2.38474
 11
96.0787
 21
1.88268
  0
LINE
  8
0
 10
96.0787
 20
1.88268
 11
95.8718
 21
1.48
  0
LINE
  8
0
 10
95.8718
 20
1.48
 11
95.5959
 21
1.17111
  0
LINE
  8
0
 10
95.5959
 20
1.17111
 11
95.2413
 21
0.950485
  0
LINE
  8
0
 10
95.2413
 20
0.950485
 11
94.8079
 21
0.818115
  0
LINE
  8
0
 10
94.8079
 20
0.818115
 11
94.2958
 21
0.773987
  0
LINE
  8
0
 10
94.2958
 20
0.773987
 11
93.8221
 21
0.819611
  0
LINE
  8
0
 10
100.169
 20
-0.0059967
 11
100.167
 21
0.47905
  0
LINE
  8
0
 10
100.167
 20
0.47905
 11
100.162
 21
0.833237
  0
LINE
  8
0
 10
100.162
 20
0.833237
 11
100.154
 21
1.05655
  0
LINE
  8
0
 10
100.154
 20
1.05655
 11
100.142
 21
1.14899
  0
LINE
  8
0
 10
100.142
 20
1.14899
 11
100.176
 21
1.14899
  0
LINE
  8
0
 10
100.176
 20
1.14899
 11
100.538
 21
0.590302
  0
LINE
  8
0
 10
100.538
 20
0.590302
 11
101.04
 21
0.191238
  0
LINE
  8
0
 10
101.04
 20
0.191238
 11
101.681
 21
-0.0481873
  0
LINE
  8
0
 10
101.681
 20
-0.0481873
 11
102.462
 21
-0.127991
  0
LINE
  8
0
 10
102.462
 20
-0.127991
 11
103.646
 21
0.112305
  0
LINE
  8
0
 10
103.646
 20
0.112305
 11
104.493
 21
0.833237
  0
LINE
  8
0
 10
104.493
 20
0.833237
 11
105
 21
2.03481
  0
LINE
  8
0
 10
105
 20
2.03481
 11
105.17
 21
3.717
  0
LINE
  8
0
 10
105.17
 20
3.717
 11
105.128
 21
4.627
  0
LINE
  8
0
 10
105.128
 20
4.627
 11
105.001
 21
5.407
  0
LINE
  8
0
 10
105.001
 20
5.407
 11
104.791
 21
6.05699
  0
LINE
  8
0
 10
104.791
 20
6.05699
 11
104.496
 21
6.577
  0
LINE
  8
0
 10
104.496
 20
6.577
 11
104.116
 21
6.97556
  0
LINE
  8
0
 10
104.116
 20
6.97556
 11
103.651
 21
7.26024
  0
LINE
  8
0
 10
103.651
 20
7.26024
 11
103.099
 21
7.43106
  0
LINE
  8
0
 10
103.099
 20
7.43106
 11
102.462
 21
7.48799
  0
LINE
  8
0
 10
102.462
 20
7.48799
 11
102.044
 21
7.46825
  0
LINE
  8
0
 10
102.044
 20
7.46825
 11
101.669
 21
7.409
  0
LINE
  8
0
 10
101.669
 20
7.409
 11
101.337
 21
7.31024
  0
LINE
  8
0
 10
101.337
 20
7.31024
 11
101.047
 21
7.172
  0
LINE
  8
0
 10
101.047
 20
7.172
 11
100.791
 21
6.9913
  0
LINE
  8
0
 10
100.791
 20
6.9913
 11
100.562
 21
6.76524
  0
LINE
  8
0
 10
100.562
 20
6.76524
 11
100.359
 21
6.4938
  0
LINE
  8
0
 10
100.359
 20
6.4938
 11
100.183
 21
6.17699
  0
LINE
  8
0
 10
100.183
 20
6.17699
 11
100.156
 21
6.17699
  0
LINE
  8
0
 10
100.156
 20
6.17699
 11
100.151
 21
6.36049
  0
LINE
  8
0
 10
100.151
 20
6.36049
 11
100.13
 21
6.81519
  0
LINE
  8
0
 10
100.13
 20
6.81519
 11
100.115
 21
7.07169
  0
LINE
  8
0
 10
100.115
 20
7.07169
 11
100.096
 21
7.29799
  0
LINE
  8
0
 10
100.096
 20
7.29799
 11
100.088
 21
7.35999
  0
LINE
  8
0
 10
100.088
 20
7.35999
 11
98.9077
 21
7.35999
  0
LINE
  8
0
 10
98.9077
 20
7.35999
 11
98.9257
 21
7.12849
  0
LINE
  8
0
 10
98.9257
 20
7.12849
 11
98.9385
 21
6.80099
  0
LINE
  8
0
 10
98.9385
 20
6.80099
 11
98.9462
 21
6.37749
  0
LINE
  8
0
 10
98.9462
 20
6.37749
 11
98.9487
 21
5.85799
  0
LINE
  8
0
 10
98.9487
 20
5.85799
 11
98.9487
 21
-2.87999
  0
LINE
  8
0
 10
98.9487
 20
-2.87999
 11
100.169
 21
-2.87999
  0
LINE
  8
0
 10
100.169
 20
-2.87999
 11
100.169
 21
-0.0059967
  0
LINE
  8
0
 10
101.652
 20
0.816864
 11
101.239
 21
0.945496
  0
LINE
  8
0
 10
101.239
 20
0.945496
 11
100.899
 21
1.15987
  0
LINE
  8
0
 10
100.899
 20
1.15987
 11
100.632
 21
1.45999
  0
LINE
  8
0
 10
100.632
 20
1.45999
 11
100.429
 21
1.85106
  0
LINE
  8
0
 10
100.429
 20
1.85106
 11
100.284
 21
2.33725
  0
LINE
  8
0
 10
100.284
 20
2.33725
 11
100.198
 21
2.91855
  0
LINE
  8
0
 10
100.198
 20
2.91855
 11
100.169
 21
3.59499
  0
LINE
  8
0
 10
100.169
 20
3.59499
 11
100.182
 21
4.09056
  0
LINE
  8
0
 10
100.182
 20
4.09056
 11
100.222
 21
4.53725
  0
LINE
  8
0
 10
100.222
 20
4.53725
 11
100.289
 21
4.93506
  0
LINE
  8
0
 10
100.289
 20
4.93506
 11
100.383
 21
5.284
  0
LINE
  8
0
 10
100.383
 20
5.284
 11
100.503
 21
5.58705
  0
LINE
  8
0
 10
100.503
 20
5.58705
 11
100.647
 21
5.84724
  0
LINE
  8
0
 10
100.647
 20
5.84724
 11
100.816
 21
6.06456
  0
LINE
  8
0
 10
100.816
 20
6.06456
 11
101.01
 21
6.239
  0
LINE
  8
0
 10
101.01
 20
6.239
 11
101.236
 21
6.37286
  0
LINE
  8
0
 10
101.236
 20
6.37286
 11
101.501
 21
6.46849
  0
LINE
  8
0
 10
101.501
 20
6.46849
 11
101.806
 21
6.52586
  0
LINE
  8
0
 10
101.806
 20
6.52586
 11
102.151
 21
6.545
  0
LINE
  8
0
 10
102.151
 20
6.545
 11
102.573
 21
6.50374
  0
LINE
  8
0
 10
102.573
 20
6.50374
 11
102.934
 21
6.37999
  0
LINE
  8
0
 10
102.934
 20
6.37999
 11
103.234
 21
6.17374
  0
LINE
  8
0
 10
103.234
 20
6.17374
 11
103.472
 21
5.88499
  0
LINE
  8
0
 10
103.472
 20
5.88499
 11
103.654
 21
5.50069
  0
LINE
  8
0
 10
103.654
 20
5.50069
 11
103.784
 21
5.00674
  0
LINE
  8
0
 10
103.784
 20
5.00674
 11
103.862
 21
4.40318
  0
LINE
  8
0
 10
103.862
 20
4.40318
 11
103.888
 21
3.68999
  0
LINE
  8
0
 10
103.888
 20
3.68999
 11
103.862
 21
2.95818
  0
LINE
  8
0
 10
103.862
 20
2.95818
 11
103.783
 21
2.33974
  0
LINE
  8
0
 10
103.783
 20
2.33974
 11
103.652
 21
1.83469
  0
LINE
  8
0
 10
103.652
 20
1.83469
 11
103.469
 21
1.44299
  0
LINE
  8
0
 10
103.469
 20
1.44299
 11
103.228
 21
1.1503
  0
LINE
  8
0
 10
103.228
 20
1.1503
 11
102.926
 21
0.941238
  0
LINE
  8
0
 10
102.926
 20
0.941238
 11
102.562
 21
0.815811
  0
LINE
  8
0
 10
102.562
 20
0.815811
 11
102.137
 21
0.773987
  0
LINE
  8
0
 10
102.137
 20
0.773987
 11
101.652
 21
0.816864
  0
LINE
  8
0
 10
112.36
 20
5.42599
 11
112.363
 21
6.15012
  0
LINE
  8
0
 10
112.363
 20
6.15012
 11
112.372
 21
6.72449
  0
LINE
  8
0
 10
112.372
 20
6.72449
 11
112.387
 21
7.14912
  0
LINE
  8
0
 10
112.387
 20
7.14912
 11
112.408
 21
7.424
  0
LINE
  8
0
 10
112.408
 20
7.424
 11
111.234
 21
7.424
  0
LINE
  8
0
 10
111.234
 20
7.424
 11
111.22
 21
7.37894
  0
LINE
  8
0
 10
111.22
 20
7.37894
 11
111.207
 21
7.27675
  0
LINE
  8
0
 10
111.207
 20
7.27675
 11
111.193
 21
7.11743
  0
LINE
  8
0
 10
111.193
 20
7.11743
 11
111.18
 21
6.90099
  0
LINE
  8
0
 10
111.18
 20
6.90099
 11
111.159
 21
6.48424
  0
LINE
  8
0
 10
111.159
 20
6.48424
 11
111.154
 21
6.33005
  0
LINE
  8
0
 10
111.154
 20
6.33005
 11
111.153
 21
6.21199
  0
LINE
  8
0
 10
111.153
 20
6.21199
 11
111.139
 21
6.21199
  0
LINE
  8
0
 10
111.139
 20
6.21199
 11
110.944
 21
6.53055
  0
LINE
  8
0
 10
110.944
 20
6.53055
 11
110.727
 21
6.80025
  0
LINE
  8
0
 10
110.727
 20
6.80025
 11
110.488
 21
7.02106
  0
LINE
  8
0
 10
110.488
 20
7.02106
 11
110.227
 21
7.19299
  0
LINE
  8
0
 10
110.227
 20
7.19299
 11
109.936
 21
7.32205
  0
LINE
  8
0
 10
109.936
 20
7.32205
 11
109.609
 21
7.41425
  0
LINE
  8
0
 10
109.609
 20
7.41425
 11
109.246
 21
7.46956
  0
LINE
  8
0
 10
109.246
 20
7.46956
 11
108.846
 21
7.48799
  0
LINE
  8
0
 10
108.846
 20
7.48799
 11
107.661
 21
7.24786
  0
LINE
  8
0
 10
107.661
 20
7.24786
 11
106.815
 21
6.5275
  0
LINE
  8
0
 10
106.815
 20
6.5275
 11
106.308
 21
5.32687
  0
LINE
  8
0
 10
106.308
 20
5.32687
 11
106.139
 21
3.646
  0
LINE
  8
0
 10
106.139
 20
3.646
 11
106.18
 21
2.76143
  0
LINE
  8
0
 10
106.18
 20
2.76143
 11
106.302
 21
1.99474
  0
LINE
  8
0
 10
106.302
 20
1.99474
 11
106.506
 21
1.34593
  0
LINE
  8
0
 10
106.506
 20
1.34593
 11
106.792
 21
0.814987
  0
LINE
  8
0
 10
106.792
 20
0.814987
 11
107.165
 21
0.402435
  0
LINE
  8
0
 10
107.165
 20
0.402435
 11
107.632
 21
0.107742
  0
LINE
  8
0
 10
107.632
 20
0.107742
 11
108.192
 21
-0.0690613
  0
LINE
  8
0
 10
108.192
 20
-0.0690613
 11
108.846
 21
-0.127991
  0
LINE
  8
0
 10
108.846
 20
-0.127991
 11
109.257
 21
-0.108673
  0
LINE
  8
0
 10
109.257
 20
-0.108673
 11
109.628
 21
-0.0507355
  0
LINE
  8
0
 10
109.628
 20
-0.0507355
 11
109.958
 21
0.0458069
  0
LINE
  8
0
 10
109.958
 20
0.0458069
 11
110.247
 21
0.181
  0
LINE
  8
0
 10
110.247
 20
0.181
 11
110.505
 21
0.361557
  0
LINE
  8
0
 10
110.505
 20
0.361557
 11
110.742
 21
0.594238
  0
LINE
  8
0
 10
110.742
 20
0.594238
 11
110.958
 21
0.879059
  0
LINE
  8
0
 10
110.958
 20
0.879059
 11
111.153
 21
1.21599
  0
LINE
  8
0
 10
111.153
 20
1.21599
 11
111.167
 21
1.21599
  0
LINE
  8
0
 10
111.167
 20
1.21599
 11
111.139
 21
0.10199
  0
LINE
  8
0
 10
111.139
 20
0.10199
 11
111.139
 21
-2.87999
  0
LINE
  8
0
 10
111.139
 20
-2.87999
 11
112.36
 21
-2.87999
  0
LINE
  8
0
 10
112.36
 20
-2.87999
 11
112.36
 21
5.42599
  0
LINE
  8
0
 10
108.732
 20
0.856552
 11
108.37
 21
0.981247
  0
LINE
  8
0
 10
108.37
 20
0.981247
 11
108.07
 21
1.18906
  0
LINE
  8
0
 10
108.07
 20
1.18906
 11
107.833
 21
1.48
  0
LINE
  8
0
 10
107.833
 20
1.48
 11
107.652
 21
1.86768
  0
LINE
  8
0
 10
107.652
 20
1.86768
 11
107.524
 21
2.36475
  0
LINE
  8
0
 10
107.524
 20
2.36475
 11
107.446
 21
2.97118
  0
LINE
  8
0
 10
107.446
 20
2.97118
 11
107.421
 21
3.687
  0
LINE
  8
0
 10
107.421
 20
3.687
 11
107.446
 21
4.39262
  0
LINE
  8
0
 10
107.446
 20
4.39262
 11
107.523
 21
4.9955
  0
LINE
  8
0
 10
107.523
 20
4.9955
 11
107.65
 21
5.49562
  0
LINE
  8
0
 10
107.65
 20
5.49562
 11
107.829
 21
5.89299
  0
LINE
  8
0
 10
107.829
 20
5.89299
 11
108.066
 21
6.19618
  0
LINE
  8
0
 10
108.066
 20
6.19618
 11
108.369
 21
6.41273
  0
LINE
  8
0
 10
108.369
 20
6.41273
 11
108.737
 21
6.54268
  0
LINE
  8
0
 10
108.737
 20
6.54268
 11
109.171
 21
6.586
  0
LINE
  8
0
 10
109.171
 20
6.586
 11
109.65
 21
6.54268
  0
LINE
  8
0
 10
109.65
 20
6.54268
 11
110.059
 21
6.41273
  0
LINE
  8
0
 10
110.059
 20
6.41273
 11
110.399
 21
6.19618
  0
LINE
  8
0
 10
110.399
 20
6.19618
 11
110.669
 21
5.89299
  0
LINE
  8
0
 10
110.669
 20
5.89299
 11
110.874
 21
5.50069
  0
LINE
  8
0
 10
110.874
 20
5.50069
 11
111.021
 21
5.01575
  0
LINE
  8
0
 10
111.021
 20
5.01575
 11
111.109
 21
4.43819
  0
LINE
  8
0
 10
111.109
 20
4.43819
 11
111.139
 21
3.76799
  0
LINE
  8
0
 10
111.139
 20
3.76799
 11
111.109
 21
3.0773
  0
LINE
  8
0
 10
111.109
 20
3.0773
 11
111.021
 21
2.47824
  0
LINE
  8
0
 10
111.021
 20
2.47824
 11
110.874
 21
1.97081
  0
LINE
  8
0
 10
110.874
 20
1.97081
 11
110.669
 21
1.55499
  0
LINE
  8
0
 10
110.669
 20
1.55499
 11
110.398
 21
1.23125
  0
LINE
  8
0
 10
110.398
 20
1.23125
 11
110.056
 21
1
  0
LINE
  8
0
 10
110.056
 20
1
 11
109.642
 21
0.861237
  0
LINE
  8
0
 10
109.642
 20
0.861237
 11
109.157
 21
0.814987
  0
LINE
  8
0
 10
109.157
 20
0.814987
 11
108.732
 21
0.856552
  0
LINE
  8
0
 10
115.277
 20
3.834
 11
115.302
 21
4.41005
  0
LINE
  8
0
 10
115.302
 20
4.41005
 11
115.376
 21
4.91524
  0
LINE
  8
0
 10
115.376
 20
4.91524
 11
115.501
 21
5.34955
  0
LINE
  8
0
 10
115.501
 20
5.34955
 11
115.675
 21
5.713
  0
LINE
  8
0
 10
115.675
 20
5.713
 11
115.896
 21
6
  0
LINE
  8
0
 10
115.896
 20
6
 11
116.162
 21
6.20499
  0
LINE
  8
0
 10
116.162
 20
6.20499
 11
116.472
 21
6.32799
  0
LINE
  8
0
 10
116.472
 20
6.32799
 11
116.828
 21
6.36899
  0
LINE
  8
0
 10
116.828
 20
6.36899
 11
117.02
 21
6.36475
  0
LINE
  8
0
 10
117.02
 20
6.36475
 11
117.191
 21
6.35199
  0
LINE
  8
0
 10
117.191
 20
6.35199
 11
117.343
 21
6.33075
  0
LINE
  8
0
 10
117.343
 20
6.33075
 11
117.475
 21
6.30099
  0
LINE
  8
0
 10
117.475
 20
6.30099
 11
117.475
 21
7.42
  0
LINE
  8
0
 10
117.475
 20
7.42
 11
117.35
 21
7.44974
  0
LINE
  8
0
 10
117.35
 20
7.44974
 11
117.227
 21
7.47099
  0
LINE
  8
0
 10
117.227
 20
7.47099
 11
117.104
 21
7.48375
  0
LINE
  8
0
 10
117.104
 20
7.48375
 11
116.983
 21
7.48799
  0
LINE
  8
0
 10
116.983
 20
7.48799
 11
116.658
 21
7.46637
  0
LINE
  8
0
 10
116.658
 20
7.46637
 11
116.372
 21
7.40149
  0
LINE
  8
0
 10
116.372
 20
7.40149
 11
116.125
 21
7.29337
  0
LINE
  8
0
 10
116.125
 20
7.29337
 11
115.917
 21
7.142
  0
LINE
  8
0
 10
115.917
 20
7.142
 11
115.733
 21
6.93175
  0
LINE
  8
0
 10
115.733
 20
6.93175
 11
115.561
 21
6.64699
  0
LINE
  8
0
 10
115.561
 20
6.64699
 11
115.399
 21
6.28773
  0
LINE
  8
0
 10
115.399
 20
6.28773
 11
115.249
 21
5.85399
  0
LINE
  8
0
 10
115.249
 20
5.85399
 11
115.222
 21
5.85399
  0
LINE
  8
0
 10
115.222
 20
5.85399
 11
115.218
 21
6.04262
  0
LINE
  8
0
 10
115.218
 20
6.04262
 11
115.208
 21
6.35649
  0
LINE
  8
0
 10
115.208
 20
6.35649
 11
115.168
 21
7.35999
  0
LINE
  8
0
 10
115.168
 20
7.35999
 11
114.015
 21
7.35999
  0
LINE
  8
0
 10
114.015
 20
7.35999
 11
114.033
 21
6.90074
  0
LINE
  8
0
 10
114.033
 20
6.90074
 11
114.045
 21
6.46199
  0
LINE
  8
0
 10
114.045
 20
6.46199
 11
114.053
 21
6.04375
  0
LINE
  8
0
 10
114.053
 20
6.04375
 11
114.056
 21
5.646
  0
LINE
  8
0
 10
114.056
 20
5.646
 11
114.056
 21
0
  0
LINE
  8
0
 10
114.056
 20
0
 11
115.277
 21
0
  0
LINE
  8
0
 10
115.277
 20
0
 11
115.277
 21
3.834
  0
LINE
  8
0
 10
3.24467
 20
-0.106186
 11
3.63974
 21
-0.040741
  0
LINE
  8
0
 10
3.63974
 20
-0.040741
 11
4.00117
 21
0.0682983
  0
LINE
  8
0
 10
4.00117
 20
0.0682983
 11
4.32899
 21
0.220993
  0
LINE
  8
0
 10
4.32899
 20
0.220993
 11
4.63087
 21
0.426743
  0
LINE
  8
0
 10
4.63087
 20
0.426743
 11
4.9135
 21
0.693985
  0
LINE
  8
0
 10
4.9135
 20
0.693985
 11
5.17686
 21
1.02274
  0
LINE
  8
0
 10
5.17686
 20
1.02274
 11
5.42099
 21
1.41299
  0
LINE
  8
0
 10
5.42099
 20
1.41299
 11
5.46199
 21
1.41299
  0
LINE
  8
0
 10
5.46199
 20
1.41299
 11
5.49924
 21
1.05724
  0
LINE
  8
0
 10
5.49924
 20
1.05724
 11
5.56999
 21
0.751999
  0
LINE
  8
0
 10
5.56999
 20
0.751999
 11
5.67424
 21
0.497238
  0
LINE
  8
0
 10
5.67424
 20
0.497238
 11
5.812
 21
0.292999
  0
LINE
  8
0
 10
5.812
 20
0.292999
 11
5.98962
 21
0.13681
  0
LINE
  8
0
 10
5.98962
 20
0.13681
 11
6.21349
 21
0.025238
  0
LINE
  8
0
 10
6.21349
 20
0.025238
 11
6.48361
 21
-0.041687
  0
LINE
  8
0
 10
6.48361
 20
-0.041687
 11
6.79999
 21
-0.0639954
  0
LINE
  8
0
 10
6.79999
 20
-0.0639954
 11
7.03975
 21
-0.0571747
  0
LINE
  8
0
 10
7.03975
 20
-0.0571747
 11
7.27699
 21
-0.0367432
  0
LINE
  8
0
 10
7.27699
 20
-0.0367432
 11
7.51175
 21
-0.00268555
  0
LINE
  8
0
 10
7.51175
 20
-0.00268555
 11
7.74399
 21
0.0449982
  0
LINE
  8
0
 10
7.74399
 20
0.0449982
 11
7.74399
 21
0.803986
  0
LINE
  8
0
 10
7.74399
 20
0.803986
 11
7.63493
 21
0.783432
  0
LINE
  8
0
 10
7.63493
 20
0.783432
 11
7.53174
 21
0.768738
  0
LINE
  8
0
 10
7.53174
 20
0.768738
 11
7.43443
 21
0.759933
  0
LINE
  8
0
 10
7.43443
 20
0.759933
 11
7.34299
 21
0.756989
  0
LINE
  8
0
 10
7.34299
 20
0.756989
 11
7.15862
 21
0.774185
  0
LINE
  8
0
 10
7.15862
 20
0.774185
 11
7.00648
 21
0.825745
  0
LINE
  8
0
 10
7.00648
 20
0.825745
 11
6.88661
 21
0.911682
  0
LINE
  8
0
 10
6.88661
 20
0.911682
 11
6.799
 21
1.032
  0
LINE
  8
0
 10
6.799
 20
1.032
 11
6.73643
 21
1.18631
  0
LINE
  8
0
 10
6.73643
 20
1.18631
 11
6.69174
 21
1.37424
  0
LINE
  8
0
 10
6.69174
 20
1.37424
 11
6.66493
 21
1.59581
  0
LINE
  8
0
 10
6.66493
 20
1.59581
 11
6.65599
 21
1.851
  0
LINE
  8
0
 10
6.65599
 20
1.851
 11
6.65599
 21
5.01599
  0
LINE
  8
0
 10
6.65599
 20
5.01599
 11
6.61218
 21
5.58156
  0
LINE
  8
0
 10
6.61218
 20
5.58156
 11
6.48074
 21
6.07625
  0
LINE
  8
0
 10
6.48074
 20
6.07625
 11
6.26167
 21
6.50006
  0
LINE
  8
0
 10
6.26167
 20
6.50006
 11
5.95499
 21
6.853
  0
LINE
  8
0
 10
5.95499
 20
6.853
 11
5.56212
 21
7.1308
  0
LINE
  8
0
 10
5.56212
 20
7.1308
 11
5.0835
 21
7.32924
  0
LINE
  8
0
 10
5.0835
 20
7.32924
 11
4.51912
 21
7.4483
  0
LINE
  8
0
 10
4.51912
 20
7.4483
 11
3.86899
 21
7.48799
  0
LINE
  8
0
 10
3.86899
 20
7.48799
 11
2.69531
 21
7.36324
  0
LINE
  8
0
 10
2.69531
 20
7.36324
 11
1.81224
 21
6.989
  0
LINE
  8
0
 10
1.81224
 20
6.989
 11
1.2198
 21
6.36525
  0
LINE
  8
0
 10
1.2198
 20
6.36525
 11
0.917999
 21
5.49199
  0
LINE
  8
0
 10
0.917999
 20
5.49199
 11
2.19299
 21
5.37599
  0
LINE
  8
0
 10
2.19299
 20
5.37599
 11
2.24918
 21
5.66443
  0
LINE
  8
0
 10
2.24918
 20
5.66443
 11
2.34274
 21
5.91074
  0
LINE
  8
0
 10
2.34274
 20
5.91074
 11
2.47368
 21
6.11493
  0
LINE
  8
0
 10
2.47368
 20
6.11493
 11
2.642
 21
6.27699
  0
LINE
  8
0
 10
2.642
 20
6.27699
 11
2.85762
 21
6.40036
  0
LINE
  8
0
 10
2.85762
 20
6.40036
 11
3.12949
 21
6.48849
  0
LINE
  8
0
 10
3.12949
 20
6.48849
 11
3.45761
 21
6.54137
  0
LINE
  8
0
 10
3.45761
 20
6.54137
 11
3.842
 21
6.55899
  0
LINE
  8
0
 10
3.842
 20
6.55899
 11
4.22324
 21
6.53468
  0
LINE
  8
0
 10
4.22324
 20
6.53468
 11
4.54999
 21
6.46175
  0
LINE
  8
0
 10
4.54999
 20
6.46175
 11
4.82224
 21
6.34018
  0
LINE
  8
0
 10
4.82224
 20
6.34018
 11
5.03999
 21
6.17
  0
LINE
  8
0
 10
5.03999
 20
6.17
 11
5.20712
 21
5.94398
  0
LINE
  8
0
 10
5.20712
 20
5.94398
 11
5.32649
 21
5.65399
  0
LINE
  8
0
 10
5.32649
 20
5.65399
 11
5.39812
 21
5.29999
  0
LINE
  8
0
 10
5.39812
 20
5.29999
 11
5.422
 21
4.88199
  0
LINE
  8
0
 10
5.422
 20
4.88199
 11
5.422
 21
4.48
  0
LINE
  8
0
 10
5.422
 20
4.48
 11
3.769
 21
4.45299
  0
LINE
  8
0
 10
3.769
 20
4.45299
 11
2.98962
 21
4.39693
  0
LINE
  8
0
 10
2.98962
 20
4.39693
 11
2.32549
 21
4.26974
  0
LINE
  8
0
 10
2.32549
 20
4.26974
 11
1.77661
 21
4.07143
  0
LINE
  8
0
 10
1.77661
 20
4.07143
 11
1.34299
 21
3.80199
  0
LINE
  8
0
 10
1.34299
 20
3.80199
 11
1.01443
 21
3.46399
  0
LINE
  8
0
 10
1.01443
 20
3.46399
 11
0.779739
 21
3.06
  0
LINE
  8
0
 10
0.779739
 20
3.06
 11
0.638931
 21
2.59
  0
LINE
  8
0
 10
0.638931
 20
2.59
 11
0.591995
 21
2.05399
  0
LINE
  8
0
 10
0.591995
 20
2.05399
 11
0.626801
 21
1.57306
  0
LINE
  8
0
 10
0.626801
 20
1.57306
 11
0.731247
 21
1.14624
  0
LINE
  8
0
 10
0.731247
 20
1.14624
 11
0.905304
 21
0.77356
  0
LINE
  8
0
 10
0.905304
 20
0.77356
 11
1.14899
 21
0.454987
  0
LINE
  8
0
 10
1.14899
 20
0.454987
 11
1.46243
 21
0.199936
  0
LINE
  8
0
 10
1.46243
 20
0.199936
 11
1.84474
 21
0.017746
  0
LINE
  8
0
 10
1.84474
 20
0.017746
 11
2.29593
 21
-0.0915527
  0
LINE
  8
0
 10
2.29593
 20
-0.0915527
 11
2.81599
 21
-0.127991
  0
LINE
  8
0
 10
2.81599
 20
-0.127991
 11
3.24467
 21
-0.106186
  0
LINE
  8
0
 10
2.81068
 20
0.807312
 11
2.56274
 21
0.86824
  0
LINE
  8
0
 10
2.56274
 20
0.86824
 11
2.34918
 21
0.969803
  0
LINE
  8
0
 10
2.34918
 20
0.969803
 11
2.17
 21
1.112
  0
LINE
  8
0
 10
2.17
 20
1.112
 11
2.02869
 21
1.29149
  0
LINE
  8
0
 10
2.02869
 20
1.29149
 11
1.92775
 21
1.50499
  0
LINE
  8
0
 10
1.92775
 20
1.50499
 11
1.86719
 21
1.75249
  0
LINE
  8
0
 10
1.86719
 20
1.75249
 11
1.84698
 21
2.034
  0
LINE
  8
0
 10
1.84698
 20
2.034
 11
1.86186
 21
2.2953
  0
LINE
  8
0
 10
1.86186
 20
2.2953
 11
1.90649
 21
2.53024
  0
LINE
  8
0
 10
1.90649
 20
2.53024
 11
1.98087
 21
2.7388
  0
LINE
  8
0
 10
1.98087
 20
2.7388
 11
2.08499
 21
2.92099
  0
LINE
  8
0
 10
2.08499
 20
2.92099
 11
2.21742
 21
3.07944
  0
LINE
  8
0
 10
2.21742
 20
3.07944
 11
2.37575
 21
3.21574
  0
LINE
  8
0
 10
2.37575
 20
3.21574
 11
2.55994
 21
3.32993
  0
LINE
  8
0
 10
2.55994
 20
3.32993
 11
2.76999
 21
3.422
  0
LINE
  8
0
 10
2.76999
 20
3.422
 11
3.01918
 21
3.49419
  0
LINE
  8
0
 10
3.01918
 20
3.49419
 11
3.32074
 21
3.54774
  0
LINE
  8
0
 10
3.32074
 20
3.54774
 11
3.67468
 21
3.58269
  0
LINE
  8
0
 10
3.67468
 20
3.58269
 11
4.08099
 21
3.599
  0
LINE
  8
0
 10
4.08099
 20
3.599
 11
5.422
 21
3.62599
  0
LINE
  8
0
 10
5.422
 20
3.62599
 11
5.422
 21
3.02299
  0
LINE
  8
0
 10
5.422
 20
3.02299
 11
5.40306
 21
2.74387
  0
LINE
  8
0
 10
5.40306
 20
2.74387
 11
5.34624
 21
2.46849
  0
LINE
  8
0
 10
5.34624
 20
2.46849
 11
5.25156
 21
2.19687
  0
LINE
  8
0
 10
5.25156
 20
2.19687
 11
5.11899
 21
1.92899
  0
LINE
  8
0
 10
5.11899
 20
1.92899
 11
4.95361
 21
1.67719
  0
LINE
  8
0
 10
4.95361
 20
1.67719
 11
4.7605
 21
1.45374
  0
LINE
  8
0
 10
4.7605
 20
1.45374
 11
4.53961
 21
1.25868
  0
LINE
  8
0
 10
4.53961
 20
1.25868
 11
4.29099
 21
1.092
  0
LINE
  8
0
 10
4.29099
 20
1.092
 11
4.01962
 21
0.958557
  0
LINE
  8
0
 10
4.01962
 20
0.958557
 11
3.72949
 21
0.863235
  0
LINE
  8
0
 10
3.72949
 20
0.863235
 11
3.42062
 21
0.806061
  0
LINE
  8
0
 10
3.42062
 20
0.806061
 11
3.09299
 21
0.786987
  0
LINE
  8
0
 10
3.09299
 20
0.786987
 11
2.81068
 21
0.807312
  0
LINE
  8
0
 10
34.4046
 20
-0.0191193
 11
35.2592
 21
0.307495
  0
LINE
  8
0
 10
35.2592
 20
0.307495
 11
35.9037
 21
0.851868
  0
LINE
  8
0
 10
35.9037
 20
0.851868
 11
36.3382
 21
1.614
  0
LINE
  8
0
 10
36.3382
 20
1.614
 11
35.2672
 21
1.92
  0
LINE
  8
0
 10
35.2672
 20
1.92
 11
35.1628
 21
1.68512
  0
LINE
  8
0
 10
35.1628
 20
1.68512
 11
35.0197
 21
1.4715
  0
LINE
  8
0
 10
35.0197
 20
1.4715
 11
34.8378
 21
1.27911
  0
LINE
  8
0
 10
34.8378
 20
1.27911
 11
34.6171
 21
1.10799
  0
LINE
  8
0
 10
34.6171
 20
1.10799
 11
34.3573
 21
0.96756
  0
LINE
  8
0
 10
34.3573
 20
0.96756
 11
34.0579
 21
0.867249
  0
LINE
  8
0
 10
34.0579
 20
0.867249
 11
33.7188
 21
0.807053
  0
LINE
  8
0
 10
33.7188
 20
0.807053
 11
33.3401
 21
0.786987
  0
LINE
  8
0
 10
33.3401
 20
0.786987
 11
32.8668
 21
0.829742
  0
LINE
  8
0
 10
32.8668
 20
0.829742
 11
32.4536
 21
0.957993
  0
LINE
  8
0
 10
32.4536
 20
0.957993
 11
32.1008
 21
1.17174
  0
LINE
  8
0
 10
32.1008
 20
1.17174
 11
31.8082
 21
1.47099
  0
LINE
  8
0
 10
31.8082
 20
1.47099
 11
31.5789
 21
1.84943
  0
LINE
  8
0
 10
31.5789
 20
1.84943
 11
31.4151
 21
2.29974
  0
LINE
  8
0
 10
31.4151
 20
2.29974
 11
31.3169
 21
2.82193
  0
LINE
  8
0
 10
31.3169
 20
2.82193
 11
31.2841
 21
3.41599
  0
LINE
  8
0
 10
31.2841
 20
3.41599
 11
36.5352
 21
3.41599
  0
LINE
  8
0
 10
36.5352
 20
3.41599
 11
36.5352
 21
3.57899
  0
LINE
  8
0
 10
36.5352
 20
3.57899
 11
36.3325
 21
5.28918
  0
LINE
  8
0
 10
36.3325
 20
5.28918
 11
35.7244
 21
6.51074
  0
LINE
  8
0
 10
35.7244
 20
6.51074
 11
34.711
 21
7.24368
  0
LINE
  8
0
 10
34.711
 20
7.24368
 11
33.2921
 21
7.48799
  0
LINE
  8
0
 10
33.2921
 20
7.48799
 11
32.5458
 21
7.42731
  0
LINE
  8
0
 10
32.5458
 20
7.42731
 11
31.8909
 21
7.24524
  0
LINE
  8
0
 10
31.8909
 20
7.24524
 11
31.3273
 21
6.9418
  0
LINE
  8
0
 10
31.3273
 20
6.9418
 11
30.8551
 21
6.517
  0
LINE
  8
0
 10
30.8551
 20
6.517
 11
30.482
 21
5.97893
  0
LINE
  8
0
 10
30.482
 20
5.97893
 11
30.2154
 21
5.33475
  0
LINE
  8
0
 10
30.2154
 20
5.33475
 11
30.0555
 21
4.58443
  0
LINE
  8
0
 10
30.0555
 20
4.58443
 11
30.0022
 21
3.728
  0
LINE
  8
0
 10
30.0022
 20
3.728
 11
30.0555
 21
2.8295
  0
LINE
  8
0
 10
30.0555
 20
2.8295
 11
30.2154
 21
2.049
  0
LINE
  8
0
 10
30.2154
 20
2.049
 11
30.482
 21
1.38649
  0
LINE
  8
0
 10
30.482
 20
1.38649
 11
30.8551
 21
0.841995
  0
LINE
  8
0
 10
30.8551
 20
0.841995
 11
31.3303
 21
0.417618
  0
LINE
  8
0
 10
31.3303
 20
0.417618
 11
31.9029
 21
0.114487
  0
LINE
  8
0
 10
31.9029
 20
0.114487
 11
32.5728
 21
-0.0673676
  0
LINE
  8
0
 10
32.5728
 20
-0.0673676
 11
33.3401
 21
-0.127991
  0
LINE
  8
0
 10
33.3401
 20
-0.127991
 11
34.4046
 21
-0.0191193
  0
LINE
  8
0
 10
31.2971
 20
4.35199
 11
31.3477
 21
4.84512
  0
LINE
  8
0
 10
31.3477
 20
4.84512
 11
31.4581
 21
5.28249
  0
LINE
  8
0
 10
31.4581
 20
5.28249
 11
31.6286
 21
5.66412
  0
LINE
  8
0
 10
31.6286
 20
5.66412
 11
31.8591
 21
5.98999
  0
LINE
  8
0
 10
31.8591
 20
5.98999
 11
32.1428
 21
6.25075
  0
LINE
  8
0
 10
32.1428
 20
6.25075
 11
32.4727
 21
6.437
  0
LINE
  8
0
 10
32.4727
 20
6.437
 11
32.8488
 21
6.54874
  0
LINE
  8
0
 10
32.8488
 20
6.54874
 11
33.2711
 21
6.586
  0
LINE
  8
0
 10
33.2711
 20
6.586
 11
33.7038
 21
6.55255
  0
LINE
  8
0
 10
33.7038
 20
6.55255
 11
34.0829
 21
6.45224
  0
LINE
  8
0
 10
34.0829
 20
6.45224
 11
34.4083
 21
6.28505
  0
LINE
  8
0
 10
34.4083
 20
6.28505
 11
34.6801
 21
6.05099
  0
LINE
  8
0
 10
34.6801
 20
6.05099
 11
34.9013
 21
5.74455
  0
LINE
  8
0
 10
34.9013
 20
5.74455
 11
35.0739
 21
5.35924
  0
LINE
  8
0
 10
35.0739
 20
5.35924
 11
35.1978
 21
4.89505
  0
LINE
  8
0
 10
35.1978
 20
4.89505
 11
35.2731
 21
4.35199
  0
LINE
  8
0
 10
35.2731
 20
4.35199
 11
31.2971
 21
4.35199
  0
LINE
  8
0
 10
19.4134
 20
-0.0880585
 11
19.9227
 21
0.0317383
  0
LINE
  8
0
 10
19.9227
 20
0.0317383
 11
20.3809
 21
0.23143
  0
LINE
  8
0
 10
20.3809
 20
0.23143
 11
20.7879
 21
0.510986
  0
LINE
  8
0
 10
20.7879
 20
0.510986
 11
21.1307
 21
0.857559
  0
LINE
  8
0
 10
21.1307
 20
0.857559
 11
21.3959
 21
1.25824
  0
LINE
  8
0
 10
21.3959
 20
1.25824
 11
21.5837
 21
1.71306
  0
LINE
  8
0
 10
21.5837
 20
1.71306
 11
21.6939
 21
2.22198
  0
LINE
  8
0
 10
21.6939
 20
2.22198
 11
20.4599
 21
2.30399
  0
LINE
  8
0
 10
20.4599
 20
2.30399
 11
20.3873
 21
1.95418
  0
LINE
  8
0
 10
20.3873
 20
1.95418
 11
20.2724
 21
1.65274
  0
LINE
  8
0
 10
20.2724
 20
1.65274
 11
20.1153
 21
1.39967
  0
LINE
  8
0
 10
20.1153
 20
1.39967
 11
19.9159
 21
1.19499
  0
LINE
  8
0
 10
19.9159
 20
1.19499
 11
19.6824
 21
1.03749
  0
LINE
  8
0
 10
19.6824
 20
1.03749
 11
19.4219
 21
0.924988
  0
LINE
  8
0
 10
19.4219
 20
0.924988
 11
19.1344
 21
0.857498
  0
LINE
  8
0
 10
19.1344
 20
0.857498
 11
18.8199
 21
0.834991
  0
LINE
  8
0
 10
18.8199
 20
0.834991
 11
18.3809
 21
0.87912
  0
LINE
  8
0
 10
18.3809
 20
0.87912
 11
18.0009
 21
1.01149
  0
LINE
  8
0
 10
18.0009
 20
1.01149
 11
17.6799
 21
1.23212
  0
LINE
  8
0
 10
17.6799
 20
1.23212
 11
17.4179
 21
1.54099
  0
LINE
  8
0
 10
17.4179
 20
1.54099
 11
17.2149
 21
1.94156
  0
LINE
  8
0
 10
17.2149
 20
1.94156
 11
17.0699
 21
2.43724
  0
LINE
  8
0
 10
17.0699
 20
2.43724
 11
16.9829
 21
3.02806
  0
LINE
  8
0
 10
16.9829
 20
3.02806
 11
16.9539
 21
3.71399
  0
LINE
  8
0
 10
16.9539
 20
3.71399
 11
16.9812
 21
4.42281
  0
LINE
  8
0
 10
16.9812
 20
4.42281
 11
17.0632
 21
5.02124
  0
LINE
  8
0
 10
17.0632
 20
5.02124
 11
17.1997
 21
5.50931
  0
LINE
  8
0
 10
17.1997
 20
5.50931
 11
17.3909
 21
5.88699
  0
LINE
  8
0
 10
17.3909
 20
5.88699
 11
17.6436
 21
6.16917
  0
LINE
  8
0
 10
17.6436
 20
6.16917
 11
17.9637
 21
6.37074
  0
LINE
  8
0
 10
17.9637
 20
6.37074
 11
18.3511
 21
6.49168
  0
LINE
  8
0
 10
18.3511
 20
6.49168
 11
18.8059
 21
6.532
  0
LINE
  8
0
 10
18.8059
 20
6.532
 11
19.1444
 21
6.50919
  0
LINE
  8
0
 10
19.1444
 20
6.50919
 11
19.4417
 21
6.44073
  0
LINE
  8
0
 10
19.4417
 20
6.44073
 11
19.6979
 21
6.32668
  0
LINE
  8
0
 10
19.6979
 20
6.32668
 11
19.9129
 21
6.16699
  0
LINE
  8
0
 10
19.9129
 20
6.16699
 11
20.0896
 21
5.96906
  0
LINE
  8
0
 10
20.0896
 20
5.96906
 11
20.2294
 21
5.73924
  0
LINE
  8
0
 10
20.2294
 20
5.73924
 11
20.3326
 21
5.47755
  0
LINE
  8
0
 10
20.3326
 20
5.47755
 11
20.3989
 21
5.18399
  0
LINE
  8
0
 10
20.3989
 20
5.18399
 11
21.6529
 21
5.28
  0
LINE
  8
0
 10
21.6529
 20
5.28
 11
21.5227
 21
5.76825
  0
LINE
  8
0
 10
21.5227
 20
5.76825
 11
21.3232
 21
6.20099
  0
LINE
  8
0
 10
21.3232
 20
6.20099
 11
21.0542
 21
6.57825
  0
LINE
  8
0
 10
21.0542
 20
6.57825
 11
20.7159
 21
6.89999
  0
LINE
  8
0
 10
20.7159
 20
6.89999
 11
20.3189
 21
7.15724
  0
LINE
  8
0
 10
20.3189
 20
7.15724
 11
19.8739
 21
7.34099
  0
LINE
  8
0
 10
19.8739
 20
7.34099
 11
19.3809
 21
7.45125
  0
LINE
  8
0
 10
19.3809
 20
7.45125
 11
18.8399
 21
7.48799
  0
LINE
  8
0
 10
18.8399
 20
7.48799
 11
18.1212
 21
7.42712
  0
LINE
  8
0
 10
18.1212
 20
7.42712
 11
17.4909
 21
7.24449
  0
LINE
  8
0
 10
17.4909
 20
7.24449
 11
16.9492
 21
6.94012
  0
LINE
  8
0
 10
16.9492
 20
6.94012
 11
16.4959
 21
6.51399
  0
LINE
  8
0
 10
16.4959
 20
6.51399
 11
16.1385
 21
5.97206
  0
LINE
  8
0
 10
16.1385
 20
5.97206
 11
15.8832
 21
5.32024
  0
LINE
  8
0
 10
15.8832
 20
5.32024
 11
15.73
 21
4.55855
  0
LINE
  8
0
 10
15.73
 20
4.55855
 11
15.6789
 21
3.687
  0
LINE
  8
0
 10
15.6789
 20
3.687
 11
15.7298
 21
2.80931
  0
LINE
  8
0
 10
15.7298
 20
2.80931
 11
15.8824
 21
2.04324
  0
LINE
  8
0
 10
15.8824
 20
2.04324
 11
16.1368
 21
1.38881
  0
LINE
  8
0
 10
16.1368
 20
1.38881
 11
16.4929
 21
0.845993
  0
LINE
  8
0
 10
16.4929
 20
0.845993
 11
16.9457
 21
0.419861
  0
LINE
  8
0
 10
16.9457
 20
0.419861
 11
17.4899
 21
0.115494
  0
LINE
  8
0
 10
17.4899
 20
0.115494
 11
18.1257
 21
-0.0671234
  0
LINE
  8
0
 10
18.1257
 20
-0.0671234
 11
18.8529
 21
-0.127991
  0
LINE
  8
0
 10
18.8529
 20
-0.127991
 11
19.4134
 21
-0.0880585
  0
LINE
  8
0
 10
45.7952
 20
-2.68637
 11
46.7577
 21
-2.1055
  0
LINE
  8
0
 10
46.7577
 20
-2.1055
 11
47.3352
 21
-1.13737
  0
LINE
  8
0
 10
47.3352
 20
-1.13737
 11
47.5277
 21
0.217987
  0
LINE
  8
0
 10
47.5277
 20
0.217987
 11
47.5277
 21
5.838
  0
LINE
  8
0
 10
47.5277
 20
5.838
 11
47.5302
 21
6.36624
  0
LINE
  8
0
 10
47.5302
 20
6.36624
 11
47.5379
 21
6.79599
  0
LINE
  8
0
 10
47.5379
 20
6.79599
 11
47.5507
 21
7.12724
  0
LINE
  8
0
 10
47.5507
 20
7.12724
 11
47.5687
 21
7.35999
  0
LINE
  8
0
 10
47.5687
 20
7.35999
 11
46.4087
 21
7.35999
  0
LINE
  8
0
 10
46.4087
 20
7.35999
 11
46.3952
 21
7.306
  0
LINE
  8
0
 10
46.3952
 20
7.306
 11
46.3817
 21
7.19299
  0
LINE
  8
0
 10
46.3817
 20
7.19299
 11
46.3682
 21
7.021
  0
LINE
  8
0
 10
46.3682
 20
7.021
 11
46.3547
 21
6.78999
  0
LINE
  8
0
 10
46.3547
 20
6.78999
 11
46.3344
 21
6.3465
  0
LINE
  8
0
 10
46.3344
 20
6.3465
 11
46.3294
 21
6.18286
  0
LINE
  8
0
 10
46.3294
 20
6.18286
 11
46.3277
 21
6.058
  0
LINE
  8
0
 10
46.3277
 20
6.058
 11
46.3137
 21
6.058
  0
LINE
  8
0
 10
46.3137
 20
6.058
 11
46.1408
 21
6.36719
  0
LINE
  8
0
 10
46.1408
 20
6.36719
 11
45.9352
 21
6.63875
  0
LINE
  8
0
 10
45.9352
 20
6.63875
 11
45.6968
 21
6.87268
  0
LINE
  8
0
 10
45.6968
 20
6.87268
 11
45.4257
 21
7.06898
  0
LINE
  8
0
 10
45.4257
 20
7.06898
 11
45.1252
 21
7.2243
  0
LINE
  8
0
 10
45.1252
 20
7.2243
 11
44.7989
 21
7.33524
  0
LINE
  8
0
 10
44.7989
 20
7.33524
 11
44.4467
 21
7.40181
  0
LINE
  8
0
 10
44.4467
 20
7.40181
 11
44.0687
 21
7.424
  0
LINE
  8
0
 10
44.0687
 20
7.424
 11
43.4156
 21
7.36624
  0
LINE
  8
0
 10
43.4156
 20
7.36624
 11
42.8514
 21
7.19299
  0
LINE
  8
0
 10
42.8514
 20
7.19299
 11
42.3761
 21
6.90424
  0
LINE
  8
0
 10
42.3761
 20
6.90424
 11
41.9897
 21
6.5
  0
LINE
  8
0
 10
41.9897
 20
6.5
 11
41.6909
 21
5.97487
  0
LINE
  8
0
 10
41.6909
 20
5.97487
 11
41.4774
 21
5.32249
  0
LINE
  8
0
 10
41.4774
 20
5.32249
 11
41.3494
 21
4.54286
  0
LINE
  8
0
 10
41.3494
 20
4.54286
 11
41.3067
 21
3.63599
  0
LINE
  8
0
 10
41.3067
 20
3.63599
 11
41.3464
 21
2.7428
  0
LINE
  8
0
 10
41.3464
 20
2.7428
 11
41.4657
 21
1.97725
  0
LINE
  8
0
 10
41.4657
 20
1.97725
 11
41.6644
 21
1.33931
  0
LINE
  8
0
 10
41.6644
 20
1.33931
 11
41.9427
 21
0.828995
  0
LINE
  8
0
 10
41.9427
 20
0.828995
 11
42.3055
 21
0.438309
  0
LINE
  8
0
 10
42.3055
 20
0.438309
 11
42.7582
 21
0.159241
  0
LINE
  8
0
 10
42.7582
 20
0.159241
 11
43.3006
 21
-0.00817871
  0
LINE
  8
0
 10
43.3006
 20
-0.00817871
 11
43.9327
 21
-0.0639954
  0
LINE
  8
0
 10
43.9327
 20
-0.0639954
 11
44.3249
 21
-0.0418091
  0
LINE
  8
0
 10
44.3249
 20
-0.0418091
 11
44.6914
 21
0.0247498
  0
LINE
  8
0
 10
44.6914
 20
0.0247498
 11
45.0324
 21
0.135681
  0
LINE
  8
0
 10
45.0324
 20
0.135681
 11
45.3477
 21
0.290985
  0
LINE
  8
0
 10
45.3477
 20
0.290985
 11
45.634
 21
0.490311
  0
LINE
  8
0
 10
45.634
 20
0.490311
 11
45.8882
 21
0.733246
  0
LINE
  8
0
 10
45.8882
 20
0.733246
 11
46.11
 21
1.01981
  0
LINE
  8
0
 10
46.11
 20
1.01981
 11
46.2997
 21
1.34999
  0
LINE
  8
0
 10
46.2997
 20
1.34999
 11
46.3137
 21
1.34999
  0
LINE
  8
0
 10
46.3137
 20
1.34999
 11
46.3137
 21
0.174988
  0
LINE
  8
0
 10
46.3137
 20
0.174988
 11
46.1992
 21
-0.755112
  0
LINE
  8
0
 10
46.1992
 20
-0.755112
 11
45.8557
 21
-1.41949
  0
LINE
  8
0
 10
45.8557
 20
-1.41949
 11
45.2832
 21
-1.81812
  0
LINE
  8
0
 10
45.2832
 20
-1.81812
 11
44.4817
 21
-1.95099
  0
LINE
  8
0
 10
44.4817
 20
-1.95099
 11
44.1575
 21
-1.93381
  0
LINE
  8
0
 10
44.1575
 20
-1.93381
 11
43.8662
 21
-1.88225
  0
LINE
  8
0
 10
43.8662
 20
-1.88225
 11
43.6075
 21
-1.79631
  0
LINE
  8
0
 10
43.6075
 20
-1.79631
 11
43.3817
 21
-1.67599
  0
LINE
  8
0
 10
43.3817
 20
-1.67599
 11
43.1911
 21
-1.52431
  0
LINE
  8
0
 10
43.1911
 20
-1.52431
 11
43.0374
 21
-1.34325
  0
LINE
  8
0
 10
43.0374
 20
-1.34325
 11
42.9206
 21
-1.1328
  0
LINE
  8
0
 10
42.9206
 20
-1.1328
 11
42.8407
 21
-0.89299
  0
LINE
  8
0
 10
42.8407
 20
-0.89299
 11
41.6127
 21
-1.06898
  0
LINE
  8
0
 10
41.6127
 20
-1.06898
 11
41.7466
 21
-1.47818
  0
LINE
  8
0
 10
41.7466
 20
-1.47818
 11
41.9442
 21
-1.83774
  0
LINE
  8
0
 10
41.9442
 20
-1.83774
 11
42.2056
 21
-2.14767
  0
LINE
  8
0
 10
42.2056
 20
-2.14767
 11
42.5307
 21
-2.40799
  0
LINE
  8
0
 10
42.5307
 20
-2.40799
 11
42.9182
 21
-2.61449
  0
LINE
  8
0
 10
42.9182
 20
-2.61449
 11
43.3669
 21
-2.76199
  0
LINE
  8
0
 10
43.3669
 20
-2.76199
 11
43.8767
 21
-2.85049
  0
LINE
  8
0
 10
43.8767
 20
-2.85049
 11
44.4477
 21
-2.87999
  0
LINE
  8
0
 10
44.4477
 20
-2.87999
 11
45.7952
 21
-2.68637
  0
LINE
  8
0
 10
43.8944
 20
0.878937
 11
43.5147
 21
1.00174
  0
LINE
  8
0
 10
43.5147
 20
1.00174
 11
43.2064
 21
1.20644
  0
LINE
  8
0
 10
43.2064
 20
1.20644
 11
42.9697
 21
1.493
  0
LINE
  8
0
 10
42.9697
 20
1.493
 11
42.7942
 21
1.87375
  0
LINE
  8
0
 10
42.7942
 20
1.87375
 11
42.6689
 21
2.35999
  0
LINE
  8
0
 10
42.6689
 20
2.35999
 11
42.5937
 21
2.95174
  0
LINE
  8
0
 10
42.5937
 20
2.95174
 11
42.5687
 21
3.64899
  0
LINE
  8
0
 10
42.5687
 20
3.64899
 11
42.5955
 21
4.35362
  0
LINE
  8
0
 10
42.5955
 20
4.35362
 11
42.6759
 21
4.95349
  0
LINE
  8
0
 10
42.6759
 20
4.95349
 11
42.81
 21
5.44862
  0
LINE
  8
0
 10
42.81
 20
5.44862
 11
42.9977
 21
5.83899
  0
LINE
  8
0
 10
42.9977
 20
5.83899
 11
43.2441
 21
6.13474
  0
LINE
  8
0
 10
43.2441
 20
6.13474
 11
43.5544
 21
6.34599
  0
LINE
  8
0
 10
43.5544
 20
6.34599
 11
43.9286
 21
6.47275
  0
LINE
  8
0
 10
43.9286
 20
6.47275
 11
44.3667
 21
6.515
  0
LINE
  8
0
 10
44.3667
 20
6.515
 11
44.6417
 21
6.49362
  0
LINE
  8
0
 10
44.6417
 20
6.49362
 11
44.9019
 21
6.42949
  0
LINE
  8
0
 10
44.9019
 20
6.42949
 11
45.1472
 21
6.32262
  0
LINE
  8
0
 10
45.1472
 20
6.32262
 11
45.3777
 21
6.17299
  0
LINE
  8
0
 10
45.3777
 20
6.17299
 11
45.5881
 21
5.98349
  0
LINE
  8
0
 10
45.5881
 20
5.98349
 11
45.7734
 21
5.756
  0
LINE
  8
0
 10
45.7734
 20
5.756
 11
45.9336
 21
5.49049
  0
LINE
  8
0
 10
45.9336
 20
5.49049
 11
46.0687
 21
5.187
  0
LINE
  8
0
 10
46.0687
 20
5.187
 11
46.1759
 21
4.849
  0
LINE
  8
0
 10
46.1759
 20
4.849
 11
46.2524
 21
4.48
  0
LINE
  8
0
 10
46.2524
 20
4.48
 11
46.2984
 21
4.07999
  0
LINE
  8
0
 10
46.2984
 20
4.07999
 11
46.3137
 21
3.64899
  0
LINE
  8
0
 10
46.3137
 20
3.64899
 11
46.2984
 21
3.22842
  0
LINE
  8
0
 10
46.2984
 20
3.22842
 11
46.2524
 21
2.83774
  0
LINE
  8
0
 10
46.2524
 20
2.83774
 11
46.1759
 21
2.47693
  0
LINE
  8
0
 10
46.1759
 20
2.47693
 11
46.0687
 21
2.146
  0
LINE
  8
0
 10
46.0687
 20
2.146
 11
45.9334
 21
1.84837
  0
LINE
  8
0
 10
45.9334
 20
1.84837
 11
45.7724
 21
1.58749
  0
LINE
  8
0
 10
45.7724
 20
1.58749
 11
45.5859
 21
1.36337
  0
LINE
  8
0
 10
45.5859
 20
1.36337
 11
45.3737
 21
1.17599
  0
LINE
  8
0
 10
45.3737
 20
1.17599
 11
45.1411
 21
1.02812
  0
LINE
  8
0
 10
45.1411
 20
1.02812
 11
44.8922
 21
0.922485
  0
LINE
  8
0
 10
44.8922
 20
0.922485
 11
44.627
 21
0.859116
  0
LINE
  8
0
 10
44.627
 20
0.859116
 11
44.3457
 21
0.837997
  0
LINE
  8
0
 10
44.3457
 20
0.837997
 11
43.8944
 21
0.878937
  0
LINE
  8
0
 10
121.763
 20
-0.0929871
 11
122.354
 21
0.0119934
  0
LINE
  8
0
 10
122.354
 20
0.0119934
 11
122.865
 21
0.186996
  0
LINE
  8
0
 10
122.865
 20
0.186996
 11
123.298
 21
0.431992
  0
LINE
  8
0
 10
123.298
 20
0.431992
 11
123.643
 21
0.741562
  0
LINE
  8
0
 10
123.643
 20
0.741562
 11
123.889
 21
1.11024
  0
LINE
  8
0
 10
123.889
 20
1.11024
 11
124.036
 21
1.53806
  0
LINE
  8
0
 10
124.036
 20
1.53806
 11
124.085
 21
2.02499
  0
LINE
  8
0
 10
124.085
 20
2.02499
 11
124.077
 21
2.22874
  0
LINE
  8
0
 10
124.077
 20
2.22874
 11
124.051
 21
2.42099
  0
LINE
  8
0
 10
124.051
 20
2.42099
 11
124.008
 21
2.60175
  0
LINE
  8
0
 10
124.008
 20
2.60175
 11
123.948
 21
2.771
  0
LINE
  8
0
 10
123.948
 20
2.771
 11
123.873
 21
2.92969
  0
LINE
  8
0
 10
123.873
 20
2.92969
 11
123.784
 21
3.07874
  0
LINE
  8
0
 10
123.784
 20
3.07874
 11
123.681
 21
3.21819
  0
LINE
  8
0
 10
123.681
 20
3.21819
 11
123.563
 21
3.34799
  0
LINE
  8
0
 10
123.563
 20
3.34799
 11
123.427
 21
3.47018
  0
LINE
  8
0
 10
123.427
 20
3.47018
 11
123.269
 21
3.58675
  0
LINE
  8
0
 10
123.269
 20
3.58675
 11
123.088
 21
3.69768
  0
LINE
  8
0
 10
123.088
 20
3.69768
 11
122.884
 21
3.80299
  0
LINE
  8
0
 10
122.884
 20
3.80299
 11
122.636
 21
3.90831
  0
LINE
  8
0
 10
122.636
 20
3.90831
 11
122.319
 21
4.01825
  0
LINE
  8
0
 10
122.319
 20
4.01825
 11
121.933
 21
4.13281
  0
LINE
  8
0
 10
121.933
 20
4.13281
 11
121.479
 21
4.252
  0
LINE
  8
0
 10
121.479
 20
4.252
 11
121.009
 21
4.37024
  0
LINE
  8
0
 10
121.009
 20
4.37024
 11
120.627
 21
4.47499
  0
LINE
  8
0
 10
120.627
 20
4.47499
 11
120.334
 21
4.56624
  0
LINE
  8
0
 10
120.334
 20
4.56624
 11
120.129
 21
4.644
  0
LINE
  8
0
 10
120.129
 20
4.644
 11
119.979
 21
4.71875
  0
LINE
  8
0
 10
119.979
 20
4.71875
 11
119.848
 21
4.80099
  0
LINE
  8
0
 10
119.848
 20
4.80099
 11
119.736
 21
4.89075
  0
LINE
  8
0
 10
119.736
 20
4.89075
 11
119.644
 21
4.98799
  0
LINE
  8
0
 10
119.644
 20
4.98799
 11
119.573
 21
5.09618
  0
LINE
  8
0
 10
119.573
 20
5.09618
 11
119.522
 21
5.21774
  0
LINE
  8
0
 10
119.522
 20
5.21774
 11
119.491
 21
5.35268
  0
LINE
  8
0
 10
119.491
 20
5.35268
 11
119.481
 21
5.50099
  0
LINE
  8
0
 10
119.481
 20
5.50099
 11
119.506
 21
5.737
  0
LINE
  8
0
 10
119.506
 20
5.737
 11
119.58
 21
5.94099
  0
LINE
  8
0
 10
119.58
 20
5.94099
 11
119.704
 21
6.11299
  0
LINE
  8
0
 10
119.704
 20
6.11299
 11
119.877
 21
6.25299
  0
LINE
  8
0
 10
119.877
 20
6.25299
 11
120.103
 21
6.36192
  0
LINE
  8
0
 10
120.103
 20
6.36192
 11
120.383
 21
6.43974
  0
LINE
  8
0
 10
120.383
 20
6.43974
 11
120.718
 21
6.48643
  0
LINE
  8
0
 10
120.718
 20
6.48643
 11
121.107
 21
6.502
  0
LINE
  8
0
 10
121.107
 20
6.502
 11
121.464
 21
6.48569
  0
LINE
  8
0
 10
121.464
 20
6.48569
 11
121.783
 21
6.43674
  0
LINE
  8
0
 10
121.783
 20
6.43674
 11
122.064
 21
6.35518
  0
LINE
  8
0
 10
122.064
 20
6.35518
 11
122.306
 21
6.241
  0
LINE
  8
0
 10
122.306
 20
6.241
 11
122.509
 21
6.09624
  0
LINE
  8
0
 10
122.509
 20
6.09624
 11
122.668
 21
5.92299
  0
LINE
  8
0
 10
122.668
 20
5.92299
 11
122.784
 21
5.72124
  0
LINE
  8
0
 10
122.784
 20
5.72124
 11
122.857
 21
5.491
  0
LINE
  8
0
 10
122.857
 20
5.491
 11
123.955
 21
5.627
  0
LINE
  8
0
 10
123.955
 20
5.627
 11
123.827
 21
6.06581
  0
LINE
  8
0
 10
123.827
 20
6.06581
 11
123.632
 21
6.44025
  0
LINE
  8
0
 10
123.632
 20
6.44025
 11
123.372
 21
6.75031
  0
LINE
  8
0
 10
123.372
 20
6.75031
 11
123.045
 21
6.99599
  0
LINE
  8
0
 10
123.045
 20
6.99599
 11
122.655
 21
7.18324
  0
LINE
  8
0
 10
122.655
 20
7.18324
 11
122.202
 21
7.31699
  0
LINE
  8
0
 10
122.202
 20
7.31699
 11
121.686
 21
7.39725
  0
LINE
  8
0
 10
121.686
 20
7.39725
 11
121.107
 21
7.424
  0
LINE
  8
0
 10
121.107
 20
7.424
 11
120.46
 21
7.39131
  0
LINE
  8
0
 10
120.46
 20
7.39131
 11
119.896
 21
7.29324
  0
LINE
  8
0
 10
119.896
 20
7.29324
 11
119.413
 21
7.12981
  0
LINE
  8
0
 10
119.413
 20
7.12981
 11
119.012
 21
6.90099
  0
LINE
  8
0
 10
119.012
 20
6.90099
 11
118.698
 21
6.60974
  0
LINE
  8
0
 10
118.698
 20
6.60974
 11
118.474
 21
6.25899
  0
LINE
  8
0
 10
118.474
 20
6.25899
 11
118.339
 21
5.84874
  0
LINE
  8
0
 10
118.339
 20
5.84874
 11
118.294
 21
5.379
  0
LINE
  8
0
 10
118.294
 20
5.379
 11
118.31
 21
5.11955
  0
LINE
  8
0
 10
118.31
 20
5.11955
 11
118.357
 21
4.88124
  0
LINE
  8
0
 10
118.357
 20
4.88124
 11
118.436
 21
4.66406
  0
LINE
  8
0
 10
118.436
 20
4.66406
 11
118.546
 21
4.46799
  0
LINE
  8
0
 10
118.546
 20
4.46799
 11
118.685
 21
4.28943
  0
LINE
  8
0
 10
118.685
 20
4.28943
 11
118.848
 21
4.12474
  0
LINE
  8
0
 10
118.848
 20
4.12474
 11
119.034
 21
3.97392
  0
LINE
  8
0
 10
119.034
 20
3.97392
 11
119.245
 21
3.83699
  0
LINE
  8
0
 10
119.245
 20
3.83699
 11
119.507
 21
3.70636
  0
LINE
  8
0
 10
119.507
 20
3.70636
 11
119.845
 21
3.57449
  0
LINE
  8
0
 10
119.845
 20
3.57449
 11
120.259
 21
3.44136
  0
LINE
  8
0
 10
120.259
 20
3.44136
 11
120.749
 21
3.30699
  0
LINE
  8
0
 10
120.749
 20
3.30699
 11
121.629
 21
3.077
  0
LINE
  8
0
 10
121.629
 20
3.077
 11
121.941
 21
2.98355
  0
LINE
  8
0
 10
121.941
 20
2.98355
 11
122.206
 21
2.87823
  0
LINE
  8
0
 10
122.206
 20
2.87823
 11
122.425
 21
2.76105
  0
LINE
  8
0
 10
122.425
 20
2.76105
 11
122.598
 21
2.63199
  0
LINE
  8
0
 10
122.598
 20
2.63199
 11
122.73
 21
2.48686
  0
LINE
  8
0
 10
122.73
 20
2.48686
 11
122.823
 21
2.32149
  0
LINE
  8
0
 10
122.823
 20
2.32149
 11
122.88
 21
2.13586
  0
LINE
  8
0
 10
122.88
 20
2.13586
 11
122.898
 21
1.92999
  0
LINE
  8
0
 10
122.898
 20
1.92999
 11
122.871
 21
1.66556
  0
LINE
  8
0
 10
122.871
 20
1.66556
 11
122.79
 21
1.43625
  0
LINE
  8
0
 10
122.79
 20
1.43625
 11
122.654
 21
1.24205
  0
LINE
  8
0
 10
122.654
 20
1.24205
 11
122.464
 21
1.08299
  0
LINE
  8
0
 10
122.464
 20
1.08299
 11
122.216
 21
0.95961
  0
LINE
  8
0
 10
122.216
 20
0.95961
 11
121.905
 21
0.87149
  0
LINE
  8
0
 10
121.905
 20
0.87149
 11
121.531
 21
0.818619
  0
LINE
  8
0
 10
121.531
 20
0.818619
 11
121.094
 21
0.800995
  0
LINE
  8
0
 10
121.094
 20
0.800995
 11
120.681
 21
0.818176
  0
LINE
  8
0
 10
120.681
 20
0.818176
 11
120.316
 21
0.869736
  0
LINE
  8
0
 10
120.316
 20
0.869736
 11
119.998
 21
0.955673
  0
LINE
  8
0
 10
119.998
 20
0.955673
 11
119.728
 21
1.07599
  0
LINE
  8
0
 10
119.728
 20
1.07599
 11
119.503
 21
1.23318
  0
LINE
  8
0
 10
119.503
 20
1.23318
 11
119.32
 21
1.42975
  0
LINE
  8
0
 10
119.32
 20
1.42975
 11
119.179
 21
1.66568
  0
LINE
  8
0
 10
119.179
 20
1.66568
 11
119.079
 21
1.94099
  0
LINE
  8
0
 10
119.079
 20
1.94099
 11
118.001
 21
1.73099
  0
LINE
  8
0
 10
118.001
 20
1.73099
 11
118.146
 21
1.28412
  0
LINE
  8
0
 10
118.146
 20
1.28412
 11
118.357
 21
0.900497
  0
LINE
  8
0
 10
118.357
 20
0.900497
 11
118.632
 21
0.580124
  0
LINE
  8
0
 10
118.632
 20
0.580124
 11
118.972
 21
0.322998
  0
LINE
  8
0
 10
118.972
 20
0.322998
 11
119.385
 21
0.125687
  0
LINE
  8
0
 10
119.385
 20
0.125687
 11
119.876
 21
-0.0152435
  0
LINE
  8
0
 10
119.876
 20
-0.0152435
 11
120.446
 21
-0.0998077
  0
LINE
  8
0
 10
120.446
 20
-0.0998077
 11
121.094
 21
-0.127991
  0
LINE
  8
0
 10
121.094
 20
-0.127991
 11
121.763
 21
-0.0929871
  0
LINE
  8
0
 10
172.125
 20
0.942993
 11
167.846
 21
0.942993
  0
LINE
  8
0
 10
167.846
 20
0.942993
 11
171.982
 21
6.42999
  0
LINE
  8
0
 10
171.982
 20
6.42999
 11
171.982
 21
7.35999
  0
LINE
  8
0
 10
171.982
 20
7.35999
 11
166.641
 21
7.35999
  0
LINE
  8
0
 10
166.641
 20
7.35999
 11
166.641
 21
6.41699
  0
LINE
  8
0
 10
166.641
 20
6.41699
 11
170.538
 21
6.41699
  0
LINE
  8
0
 10
170.538
 20
6.41699
 11
166.409
 21
0.928986
  0
LINE
  8
0
 10
166.409
 20
0.928986
 11
166.409
 21
0
  0
LINE
  8
0
 10
166.409
 20
0
 11
172.125
 21
0
  0
LINE
  8
0
 10
172.125
 20
0
 11
172.125
 21
0.942993
  0
LINE
  8
0
 10
131.796
 20
-0.108307
 11
132.157
 21
-0.0492401
  0
LINE
  8
0
 10
132.157
 20
-0.0492401
 11
132.485
 21
0.0491791
  0
LINE
  8
0
 10
132.485
 20
0.0491791
 11
132.779
 21
0.186996
  0
LINE
  8
0
 10
132.779
 20
0.186996
 11
133.048
 21
0.372742
  0
LINE
  8
0
 10
133.048
 20
0.372742
 11
133.301
 21
0.613998
  0
LINE
  8
0
 10
133.301
 20
0.613998
 11
133.537
 21
0.910736
  0
LINE
  8
0
 10
133.537
 20
0.910736
 11
133.756
 21
1.26299
  0
LINE
  8
0
 10
133.756
 20
1.26299
 11
133.776
 21
1.26299
  0
LINE
  8
0
 10
133.776
 20
1.26299
 11
133.795
 21
0.647995
  0
LINE
  8
0
 10
133.795
 20
0.647995
 11
133.823
 21
0.0629883
  0
LINE
  8
0
 10
133.823
 20
0.0629883
 11
133.83
 21
0
  0
LINE
  8
0
 10
133.83
 20
0
 11
134.983
 21
0
  0
LINE
  8
0
 10
134.983
 20
0
 11
134.965
 21
0.205429
  0
LINE
  8
0
 10
134.965
 20
0.205429
 11
134.952
 21
0.535736
  0
LINE
  8
0
 10
134.952
 20
0.535736
 11
134.945
 21
0.990936
  0
LINE
  8
0
 10
134.945
 20
0.990936
 11
134.942
 21
1.571
  0
LINE
  8
0
 10
134.942
 20
1.571
 11
134.942
 21
7.35999
  0
LINE
  8
0
 10
134.942
 20
7.35999
 11
133.721
 21
7.35999
  0
LINE
  8
0
 10
133.721
 20
7.35999
 11
133.721
 21
3.099
  0
LINE
  8
0
 10
133.721
 20
3.099
 11
133.689
 21
2.59131
  0
LINE
  8
0
 10
133.689
 20
2.59131
 11
133.593
 21
2.14224
  0
LINE
  8
0
 10
133.593
 20
2.14224
 11
133.434
 21
1.7518
  0
LINE
  8
0
 10
133.434
 20
1.7518
 11
133.21
 21
1.42
  0
LINE
  8
0
 10
133.21
 20
1.42
 11
132.931
 21
1.1553
  0
LINE
  8
0
 10
132.931
 20
1.1553
 11
132.605
 21
0.966248
  0
LINE
  8
0
 10
132.605
 20
0.966248
 11
132.233
 21
0.852798
  0
LINE
  8
0
 10
132.233
 20
0.852798
 11
131.813
 21
0.814987
  0
LINE
  8
0
 10
131.813
 20
0.814987
 11
131.528
 21
0.825989
  0
LINE
  8
0
 10
131.528
 20
0.825989
 11
131.28
 21
0.858994
  0
LINE
  8
0
 10
131.28
 20
0.858994
 11
131.068
 21
0.913986
  0
LINE
  8
0
 10
131.068
 20
0.913986
 11
130.893
 21
0.990997
  0
LINE
  8
0
 10
130.893
 20
0.990997
 11
130.747
 21
1.09349
  0
LINE
  8
0
 10
130.747
 20
1.09349
 11
130.623
 21
1.224
  0
LINE
  8
0
 10
130.623
 20
1.224
 11
130.519
 21
1.38249
  0
LINE
  8
0
 10
130.519
 20
1.38249
 11
130.437
 21
1.56898
  0
LINE
  8
0
 10
130.437
 20
1.56898
 11
130.375
 21
1.78993
  0
LINE
  8
0
 10
130.375
 20
1.78993
 11
130.33
 21
2.05174
  0
LINE
  8
0
 10
130.33
 20
2.05174
 11
130.303
 21
2.35443
  0
LINE
  8
0
 10
130.303
 20
2.35443
 11
130.294
 21
2.698
  0
LINE
  8
0
 10
130.294
 20
2.698
 11
130.294
 21
7.35999
  0
LINE
  8
0
 10
130.294
 20
7.35999
 11
129.067
 21
7.35999
  0
LINE
  8
0
 10
129.067
 20
7.35999
 11
129.067
 21
2.461
  0
LINE
  8
0
 10
129.067
 20
2.461
 11
129.102
 21
1.81699
  0
LINE
  8
0
 10
129.102
 20
1.81699
 11
129.207
 21
1.271
  0
LINE
  8
0
 10
129.207
 20
1.271
 11
129.383
 21
0.822998
  0
LINE
  8
0
 10
129.383
 20
0.822998
 11
129.628
 21
0.472992
  0
LINE
  8
0
 10
129.628
 20
0.472992
 11
129.95
 21
0.210052
  0
LINE
  8
0
 10
129.95
 20
0.210052
 11
130.352
 21
0.0222473
  0
LINE
  8
0
 10
130.352
 20
0.0222473
 11
130.836
 21
-0.0904236
  0
LINE
  8
0
 10
130.836
 20
-0.0904236
 11
131.401
 21
-0.127991
  0
LINE
  8
0
 10
131.401
 20
-0.127991
 11
131.796
 21
-0.108307
  0
LINE
  8
0
 10
149.981
 20
1.95599
 11
149.77
 21
1.00999
  0
LINE
  8
0
 10
149.77
 20
1.00999
 11
149.457
 21
2.30299
  0
LINE
  8
0
 10
149.457
 20
2.30299
 11
148.173
 21
7.35999
  0
LINE
  8
0
 10
148.173
 20
7.35999
 11
146.864
 21
7.35999
  0
LINE
  8
0
 10
146.864
 20
7.35999
 11
145.328
 21
1.51399
  0
LINE
  8
0
 10
145.328
 20
1.51399
 11
145.212
 21
1.00999
  0
LINE
  8
0
 10
145.212
 20
1.00999
 11
145.102
 21
1.53824
  0
LINE
  8
0
 10
145.102
 20
1.53824
 11
145.017
 21
1.939
  0
LINE
  8
0
 10
145.017
 20
1.939
 11
144.956
 21
2.21225
  0
LINE
  8
0
 10
144.956
 20
2.21225
 11
143.674
 21
7.35999
  0
LINE
  8
0
 10
143.674
 20
7.35999
 11
141.338
 21
7.35999
  0
LINE
  8
0
 10
141.338
 20
7.35999
 11
139.658
 21
2.55499
  0
LINE
  8
0
 10
139.658
 20
2.55499
 11
139.392
 21
1.752
  0
LINE
  8
0
 10
139.392
 20
1.752
 11
139.153
 21
0.955994
  0
LINE
  8
0
 10
139.153
 20
0.955994
 11
138.844
 21
2.02974
  0
LINE
  8
0
 10
138.844
 20
2.02974
 11
138.744
 21
2.36618
  0
LINE
  8
0
 10
138.744
 20
2.36618
 11
138.682
 21
2.56898
  0
LINE
  8
0
 10
138.682
 20
2.56898
 11
137.056
 21
7.35999
  0
LINE
  8
0
 10
137.056
 20
7.35999
 11
135.754
 21
7.35999
  0
LINE
  8
0
 10
135.754
 20
7.35999
 11
138.435
 21
0
  0
LINE
  8
0
 10
138.435
 20
0
 11
139.879
 21
0
  0
LINE
  8
0
 10
139.879
 20
0
 11
142.539
 21
7.1051
  0
LINE
  8
0
 10
142.539
 20
7.1051
 11
144.527
 21
0
  0
LINE
  8
0
 10
144.527
 20
0
 11
145.938
 21
0
  0
LINE
  8
0
 10
145.938
 20
0
 11
146.497
 21
2.17969
  0
LINE
  8
0
 10
146.497
 20
2.17969
 11
146.914
 21
3.81874
  0
LINE
  8
0
 10
146.914
 20
3.81874
 11
147.19
 21
4.91718
  0
LINE
  8
0
 10
147.19
 20
4.91718
 11
147.325
 21
5.47499
  0
LINE
  8
0
 10
147.325
 20
5.47499
 11
147.437
 21
5.98349
  0
LINE
  8
0
 10
147.437
 20
5.98349
 11
147.515
 21
6.35699
  0
LINE
  8
0
 10
147.515
 20
6.35699
 11
147.76
 21
5.20699
  0
LINE
  8
0
 10
147.76
 20
5.20699
 11
149.044
 21
0
  0
LINE
  8
0
 10
149.044
 20
0
 11
150.461
 21
0
  0
LINE
  8
0
 10
150.461
 20
0
 11
152.567
 21
7.35081
  0
LINE
  8
0
 10
152.567
 20
7.35081
 11
155.064
 21
3.782
  0
LINE
  8
0
 10
155.064
 20
3.782
 11
152.438
 21
0
  0
LINE
  8
0
 10
152.438
 20
0
 11
153.754
 21
0
  0
LINE
  8
0
 10
153.754
 20
0
 11
155.755
 21
3.01999
  0
LINE
  8
0
 10
155.755
 20
3.01999
 11
157.744
 21
0
  0
LINE
  8
0
 10
157.744
 20
0
 11
159.107
 21
0
  0
LINE
  8
0
 10
159.107
 20
0
 11
156.447
 21
3.79599
  0
LINE
  8
0
 10
156.447
 20
3.79599
 11
158.95
 21
7.35999
  0
LINE
  8
0
 10
158.95
 20
7.35999
 11
157.587
 21
7.35999
  0
LINE
  8
0
 10
157.587
 20
7.35999
 11
155.755
 21
4.49599
  0
LINE
  8
0
 10
155.755
 20
4.49599
 11
153.91
 21
7.35999
  0
LINE
  8
0
 10
153.91
 20
7.35999
 11
151.376
 21
7.35999
  0
LINE
  8
0
 10
151.376
 20
7.35999
 11
149.981
 21
1.95599
  0
LINE
  8
0
 10
160.658
 20
-2.86243
 11
160.937
 21
-2.80974
  0
LINE
  8
0
 10
160.937
 20
-2.80974
 11
161.201
 21
-2.72192
  0
LINE
  8
0
 10
161.201
 20
-2.72192
 11
161.448
 21
-2.599
  0
LINE
  8
0
 10
161.448
 20
-2.599
 11
161.683
 21
-2.44025
  0
LINE
  8
0
 10
161.683
 20
-2.44025
 11
161.907
 21
-2.245
  0
LINE
  8
0
 10
161.907
 20
-2.245
 11
162.121
 21
-2.01324
  0
LINE
  8
0
 10
162.121
 20
-2.01324
 11
162.323
 21
-1.745
  0
LINE
  8
0
 10
162.323
 20
-1.745
 11
162.525
 21
-1.42105
  0
LINE
  8
0
 10
162.525
 20
-1.42105
 11
162.734
 21
-1.02225
  0
LINE
  8
0
 10
162.734
 20
-1.02225
 11
162.95
 21
-0.548553
  0
LINE
  8
0
 10
162.95
 20
-0.548553
 11
163.174
 21
0
  0
LINE
  8
0
 10
163.174
 20
0
 11
166.011
 21
7.35999
  0
LINE
  8
0
 10
166.011
 20
7.35999
 11
164.722
 21
7.35999
  0
LINE
  8
0
 10
164.722
 20
7.35999
 11
163.103
 21
2.67
  0
LINE
  8
0
 10
163.103
 20
2.67
 11
162.625
 21
1.32899
  0
LINE
  8
0
 10
162.625
 20
1.32899
 11
162.6
 21
1.41475
  0
LINE
  8
0
 10
162.6
 20
1.41475
 11
162.545
 21
1.584
  0
LINE
  8
0
 10
162.545
 20
1.584
 11
162.075
 21
2.95599
  0
LINE
  8
0
 10
162.075
 20
2.95599
 11
161.956
 21
3.28899
  0
LINE
  8
0
 10
161.956
 20
3.28899
 11
160.398
 21
7.35999
  0
LINE
  8
0
 10
160.398
 20
7.35999
 11
159.096
 21
7.35999
  0
LINE
  8
0
 10
159.096
 20
7.35999
 11
162.021
 21
0.0339966
  0
LINE
  8
0
 10
162.021
 20
0.0339966
 11
161.905
 21
-0.256989
  0
LINE
  8
0
 10
161.905
 20
-0.256989
 11
161.542
 21
-0.989365
  0
LINE
  8
0
 10
161.542
 20
-0.989365
 11
161.118
 21
-1.5125
  0
LINE
  8
0
 10
161.118
 20
-1.5125
 11
160.635
 21
-1.82637
  0
LINE
  8
0
 10
160.635
 20
-1.82637
 11
160.091
 21
-1.931
  0
LINE
  8
0
 10
160.091
 20
-1.931
 11
159.938
 21
-1.92844
  0
LINE
  8
0
 10
159.938
 20
-1.92844
 11
159.791
 21
-1.92075
  0
LINE
  8
0
 10
159.791
 20
-1.92075
 11
159.651
 21
-1.90793
  0
LINE
  8
0
 10
159.651
 20
-1.90793
 11
159.518
 21
-1.89
  0
LINE
  8
0
 10
159.518
 20
-1.89
 11
159.518
 21
-2.80499
  0
LINE
  8
0
 10
159.518
 20
-2.80499
 11
159.699
 21
-2.8378
  0
LINE
  8
0
 10
159.699
 20
-2.8378
 11
159.899
 21
-2.86124
  0
LINE
  8
0
 10
159.899
 20
-2.86124
 11
160.121
 21
-2.87531
  0
LINE
  8
0
 10
160.121
 20
-2.87531
 11
160.362
 21
-2.87999
  0
LINE
  8
0
 10
160.362
 20
-2.87999
 11
160.658
 21
-2.86243
  0
LINE
  8
0
 10
57.9536
 20
7.35999
 11
56.7326
 21
7.35999
  0
LINE
  8
0
 10
56.7326
 20
7.35999
 11
56.7326
 21
0
  0
LINE
  8
0
 10
56.7326
 20
0
 11
57.9536
 21
0
  0
LINE
  8
0
 10
57.9536
 20
0
 11
57.9536
 21
7.35999
  0
LINE
  8
0
 10
59.7219
 20
-2.85068
 11
60.0518
 21
-2.76274
  0
LINE
  8
0
 10
60.0518
 20
-2.76274
 11
60.3309
 21
-2.61618
  0
LINE
  8
0
 10
60.3309
 20
-2.61618
 11
60.5593
 21
-2.411
  0
LINE
  8
0
 10
60.5593
 20
-2.411
 11
60.7374
 21
-2.14087
  0
LINE
  8
0
 10
60.7374
 20
-2.14087
 11
60.8645
 21
-1.7995
  0
LINE
  8
0
 10
60.8645
 20
-1.7995
 11
60.9409
 21
-1.38687
  0
LINE
  8
0
 10
60.9409
 20
-1.38687
 11
60.9663
 21
-0.903
  0
LINE
  8
0
 10
60.9663
 20
-0.903
 11
60.9663
 21
7.35999
  0
LINE
  8
0
 10
60.9663
 20
7.35999
 11
59.7453
 21
7.35999
  0
LINE
  8
0
 10
59.7453
 20
7.35999
 11
59.7453
 21
-0.720993
  0
LINE
  8
0
 10
59.7453
 20
-0.720993
 11
59.7334
 21
-1.04555
  0
LINE
  8
0
 10
59.7334
 20
-1.04555
 11
59.6978
 21
-1.31224
  0
LINE
  8
0
 10
59.6978
 20
-1.31224
 11
59.6384
 21
-1.52106
  0
LINE
  8
0
 10
59.6384
 20
-1.52106
 11
59.5553
 21
-1.672
  0
LINE
  8
0
 10
59.5553
 20
-1.672
 11
59.4435
 21
-1.77917
  0
LINE
  8
0
 10
59.4435
 20
-1.77917
 11
59.2971
 21
-1.85574
  0
LINE
  8
0
 10
59.2971
 20
-1.85574
 11
59.116
 21
-1.90167
  0
LINE
  8
0
 10
59.116
 20
-1.90167
 11
58.9003
 21
-1.91699
  0
LINE
  8
0
 10
58.9003
 20
-1.91699
 11
58.4813
 21
-1.87599
  0
LINE
  8
0
 10
58.4813
 20
-1.87599
 11
58.4813
 21
-2.81898
  0
LINE
  8
0
 10
58.4813
 20
-2.81898
 11
58.6622
 21
-2.84567
  0
LINE
  8
0
 10
58.6622
 20
-2.84567
 11
58.8658
 21
-2.86475
  0
LINE
  8
0
 10
58.8658
 20
-2.86475
 11
59.0922
 21
-2.87617
  0
LINE
  8
0
 10
59.0922
 20
-2.87617
 11
59.3413
 21
-2.87999
  0
LINE
  8
0
 10
59.3413
 20
-2.87999
 11
59.7219
 21
-2.85068
  0
ENDSEC
  0
SECTION
  2
OBJECTS
  0
DICTIONARY
  0
ENDSEC
  0
EOF
